<svg width="3122" height="1962" xmlns="http://www.w3.org/2000/svg" xmlns:xlink="http://www.w3.org/1999/xlink" xml:space="preserve" overflow="hidden"><defs><clipPath id="clip0"><rect x="3658" y="771" width="3122" height="1962"/></clipPath></defs><g clip-path="url(#clip0)" transform="translate(-3658 -771)"><rect x="3660" y="773" width="3117" height="1957" fill="#FFFFFF"/><g><rect x="3931" y="962" width="2750" height="1326" fill="#FFFFFF"/></g><g><path d="M3931.5 2111.57 6680.5 2111.57M3931.5 1934.56 6680.5 1934.56M3931.5 1757.56 6680.5 1757.56M3931.5 1580.55 6680.5 1580.55M3931.5 1403.55 6680.5 1403.55M3931.5 1227.54 6680.5 1227.54M3931.5 1050.5 6680.5 1050.5" stroke="#D9D9D9" stroke-width="3.4375" stroke-linejoin="round" stroke-miterlimit="10" fill="none"/></g><g><path d="M3931.5 2288.5 6680.5 2288.5" stroke="#D9D9D9" stroke-width="3.4375" stroke-linejoin="round" stroke-miterlimit="10" fill="none" fill-rule="evenodd"/></g><g><path d="M3937.5 2244.5 3951.63 2104.57 3965.63 2074.57 3978.63 2031.57 3992.63 1957.56 4006.63 1941.56 4019.63 1887.56 4033.63 1875.56 4047.63 1856.56 4060.63 1693.56 4074.63 1794.56 4088.63 1745.56 4101.63 1666.55 4115.64 1653.55 4129.64 1651.55 4142.64 1683.56 4156.64 1601.55 4170.64 1561.55 4183.64 1569.55 4197.64 1630.55 4211.64 1491.55 4225.64 1528.55 4238.64 1525.55 4252.64 1456.55 4266.64 1405.55 4279.64 1398.55 4293.64 1400.55 4307.64 1554.55 4320.64 1427.55 4334.64 1496.55 4348.64 1480.55 4361.64 1361.54 4375.64 1331.54 4389.64 1413.55 4402.64 1338.54 4416.65 1348.54 4430.65 1270.54 4443.65 1286.54 4457.65 1290.54 4471.65 1269.54 4484.65 1317.54 4498.65 1354.54 4512.65 1212.54 4525.65 1292.54 4539.65 1245.54 4553.65 1267.54 4567.65 1213.54 4580.65 1213.54 4594.65 1259.54 4608.65 1257.54 4621.65 1214.54 4635.65 1255.54 4649.65 1215.54 4662.65 1194.54 4676.65 1319.54 4690.65 1212.54 4703.65 1226.54 4717.66 1230.54 4731.66 1232.54 4744.66 1209.54 4758.66 1177.54 4772.66 1184.54 4785.66 1231.54 4799.66 1171.54 4813.66 1234.54 4826.66 1191.54 4840.66 1141.54 4854.66 1180.54 4867.66 1204.54 4881.66 1142.54 4895.66 1181.54 4909.66 1152.54 4922.66 1213.54 4936.66 1144.54 4950.66 1202.54 4963.66 1167.54 4977.66 1145.54 4991.66 1135.54 5004.66 1151.54 5018.67 1161.54 5032.67 1138.54 5045.67 1134.54 5059.67 1269.54 5073.67 1171.54 5086.67 1169.54 5100.67 1143.54 5114.67 1123.54 5127.67 1149.54 5141.67 1111.54 5155.67 1125.54 5168.67 1158.54 5182.67 1183.54 5196.67 1159.54 5210.67 1126.54 5223.67 1102.54 5237.67 1160.54 5251.67 1124.54 5264.67 1161.54 5278.67 1099.54 5292.67 1182.54 5305.67 1046.53 5319.67 1038.53 5333.68 1036.53 5346.68 1028.53 5360.68 1027.53 5374.68 1032.53 5387.68 1028.53 5401.68 1027.53 5415.68 1026.53 5428.68 1025.53 5442.68 1032.53 5456.68 1029.53 5469.68 1021.53 5483.68 1025.53 5497.68 1026.53 5510.68 1027.53 5524.68 1021.53 5538.68 1025.53 5552.68 1029.53 5565.68 1025.53 5579.68 1022.53 5593.68 1025.53 5606.68 1024.53 5620.68 1020.53 5634.69 1022.53 5647.69 1023.53 5661.69 1024.53 5675.69 1028.53 5688.69 1031.53 5702.69 1022.53 5716.69 1027.53 5729.69 1031.53 5743.69 1031.53 5757.69 1018.53 5770.69 1029.53 5784.69 1024.53 5798.69 1020.53 5811.69 1028.53 5825.69 1023.53 5839.69 1023.53 5852.69 1023.53 5866.69 1017.53 5880.69 1024.53 5894.69 1025.53 5907.69 1014.53 5921.69 1026.53 5935.69 1020.53 5948.7 1025.53 5962.7 1029.53 5976.7 1033.53 5989.7 1024.53 6003.7 1021.53 6017.7 1021.53 6030.7 1016.53 6044.7 1018.53 6058.7 1017.53 6071.7 1010.53 6085.7 1018.53 6099.7 1015.53 6112.7 1012.53 6126.7 1012.53 6140.7 1015.53 6153.7 1010.53 6167.7 1011.53 6181.7 1014.53 6194.7 1013.53 6208.7 1020.53 6222.7 1017.53 6236.71 1014.53 6249.71 1015.53 6263.71 1014.53 6277.71 1019.53 6290.71 1011.53 6304.71 1010.53 6318.71 1016.53 6331.71 1013.53 6345.71 1014.53 6359.71 1011.53 6372.71 1012.53 6386.71 1009.5 6400.71 1016.53 6413.71 1011.53 6427.71 1016.53 6441.71 1016.53 6454.71 1011.53 6468.71 1012.53 6482.71 1011.53 6495.71 1013.53 6509.71 1015.53 6523.71 1016.53 6537.71 1012.53 6550.71 1011.53 6564.72 1012.53 6578.72 1011.53 6591.72 1011.53 6605.72 1015.53 6619.72 1010.53 6632.72 1015.53 6646.72 1015.53 6660.72 1015.53 6674.5 1019.53" stroke="#E97132" stroke-width="4.58333" stroke-linecap="round" stroke-linejoin="round" stroke-miterlimit="10" fill="none"/></g><g><path d="M3937.5 2075.57 3951.63 2127.5 3965.63 1958.56 3978.63 1928.56 3992.63 1929.56 4006.63 1710.56 4019.63 1744.56 4033.63 1717.56 4047.63 1578.55 4060.63 1770.56 4074.63 1605.55 4088.63 1546.55 4101.63 1423.55 4115.64 1514.55 4129.64 1456.55 4142.64 1459.55 4156.64 1460.55 4170.64 1447.55 4183.64 1343.54 4197.64 1362.54 4211.64 1353.54 4225.64 1269.54 4238.64 1370.55 4252.64 1243.54 4266.64 1355.54 4279.64 1200.54 4293.64 1261.54 4307.64 1283.54 4320.64 1236.54 4334.64 1257.54 4348.64 1278.54 4361.64 1259.54 4375.64 1228.54 4389.64 1244.54 4402.64 1388.55 4416.65 1229.54 4430.65 1192.54 4443.65 1272.54 4457.65 1219.54 4471.65 1169.54 4484.65 1161.54 4498.65 1169.54 4512.65 1210.54 4525.65 1201.54 4539.65 1173.54 4553.65 1178.54 4567.65 1164.54 4580.65 1206.54 4594.65 1176.54 4608.65 1198.54 4621.65 1149.54 4635.65 1162.54 4649.65 1163.54 4662.65 1172.54 4676.65 1191.54 4690.65 1133.54 4703.65 1115.54 4717.66 1138.54 4731.66 1125.54 4744.66 1129.54 4758.66 1175.54 4772.66 1173.54 4785.66 1142.54 4799.66 1149.54 4813.66 1136.54 4826.66 1171.54 4840.66 1148.54 4854.66 1140.54 4867.66 1116.54 4881.66 1119.54 4895.66 1131.54 4909.66 1118.54 4922.66 1087.54 4936.66 1112.54 4950.66 1118.54 4963.66 1120.54 4977.66 1124.54 4991.66 1148.54 5004.66 1111.54 5018.67 1218.54 5032.67 1126.54 5045.67 1127.54 5059.67 1128.54 5073.67 1122.54 5086.67 1113.54 5100.67 1137.54 5114.67 1152.54 5127.67 1165.54 5141.67 1185.54 5155.67 1167.54 5168.67 1102.54 5182.67 1119.54 5196.67 1101.54 5210.67 1140.54 5223.67 1124.54 5237.67 1117.54 5251.67 1133.54 5264.67 1128.54 5278.67 1106.54 5292.67 1101.54 5305.67 1019.53 5319.67 1013.53 5333.68 1011.53 5346.68 1012.53 5360.68 1014.53 5374.68 1013.53 5387.68 1011.53 5401.68 1009.53 5415.68 1010.53 5428.68 1007.53 5442.68 1005.53 5456.68 1013.53 5469.68 1012.53 5483.68 1007.53 5497.68 1006.53 5510.68 1007.53 5524.68 1010.53 5538.68 1007.53 5552.68 1010.53 5565.68 1008.53 5579.68 1008.53 5593.68 1010.53 5606.68 1002.53 5620.68 1010.53 5634.69 1012.53 5647.69 1016.53 5661.69 1012.53 5675.69 1015.53 5688.69 1007.53 5702.69 1014.53 5716.69 1014.53 5729.69 1016.53 5743.69 1019.53 5757.69 1009.53 5770.69 1007.53 5784.69 1006.53 5798.69 1022.53 5811.69 1006.53 5825.69 998.533 5839.69 1006.53 5852.69 1004.53 5866.69 1006.53 5880.69 1004.53 5894.69 1001.53 5907.69 1011.53 5921.69 1006.53 5935.69 1008.53 5948.7 1006.53 5962.7 1005.53 5976.7 1011.53 5989.7 1006.53 6003.7 1006.53 6017.7 1006.53 6030.7 1002.53 6044.7 1003.53 6058.7 1005.53 6071.7 1008.53 6085.7 1003.53 6099.7 1006.53 6112.7 1004.53 6126.7 1003.53 6140.7 998.533 6153.7 1001.53 6167.7 999.533 6181.7 1000.53 6194.7 1005.53 6208.7 996.5 6222.7 1000.53 6236.71 999.533 6249.71 1006.53 6263.71 1000.53 6277.71 999.533 6290.71 999.533 6304.71 1003.53 6318.71 1007.53 6331.71 1001.53 6345.71 999.533 6359.71 1000.53 6372.71 1003.53 6386.71 998.533 6400.71 1002.53 6413.71 1002.53 6427.71 1002.53 6441.71 999.533 6454.71 1001.53 6468.71 1004.53 6482.71 1000.53 6495.71 998.533 6509.71 1003.53 6523.71 1001.53 6537.71 1000.53 6550.71 999.533 6564.72 1002.53 6578.72 1000.53 6591.72 998.533 6605.72 998.533 6619.72 998.533 6632.72 998.533 6646.72 1000.53 6660.72 1002.53 6674.5 998.533" stroke="#0F9ED5" stroke-width="4.58333" stroke-linecap="round" stroke-linejoin="round" stroke-miterlimit="10" fill="none"/></g><g><path d="M3937.5 2091.5 3951.63 1987.57 3965.63 1927.56 3978.63 1895.56 3992.63 1958.56 4006.63 1892.56 4019.63 1695.56 4033.63 1778.56 4047.63 1533.55 4060.63 1579.55 4074.63 1683.56 4088.63 1675.56 4101.63 1632.55 4115.64 1568.55 4129.64 1483.55 4142.64 1561.55 4156.64 1417.55 4170.64 1369.55 4183.64 1311.54 4197.64 1426.55 4211.64 1484.55 4225.64 1270.54 4238.64 1366.55 4252.64 1326.54 4266.64 1317.54 4279.64 1452.55 4293.64 1426.55 4307.64 1305.54 4320.64 1289.54 4334.64 1245.54 4348.64 1253.54 4361.64 1227.54 4375.64 1179.54 4389.64 1189.54 4402.64 1198.54 4416.65 1241.54 4430.65 1224.54 4443.65 1239.54 4457.65 1189.54 4471.65 1190.54 4484.65 1178.54 4498.65 1206.54 4512.65 1165.54 4525.65 1155.54 4539.65 1203.54 4553.65 1132.54 4567.65 1177.54 4580.65 1195.54 4594.65 1177.54 4608.65 1146.54 4621.65 1164.54 4635.65 1207.54 4649.65 1190.54 4662.65 1206.54 4676.65 1201.54 4690.65 1142.54 4703.65 1170.54 4717.66 1124.54 4731.66 1164.54 4744.66 1170.54 4758.66 1161.54 4772.66 1132.54 4785.66 1177.54 4799.66 1123.54 4813.66 1196.54 4826.66 1133.54 4840.66 1198.54 4854.66 1139.54 4867.66 1114.54 4881.66 1100.54 4895.66 1106.54 4909.66 1130.54 4922.66 1136.54 4936.66 1111.54 4950.66 1087.54 4963.66 1142.54 4977.66 1112.54 4991.66 1137.54 5004.66 1100.54 5018.67 1153.54 5032.67 1094.54 5045.67 1135.54 5059.67 1128.54 5073.67 1145.54 5086.67 1101.54 5100.67 1142.54 5114.67 1088.54 5127.67 1112.54 5141.67 1108.54 5155.67 1102.54 5168.67 1127.54 5182.67 1169.54 5196.67 1119.54 5210.67 1124.54 5223.67 1100.54 5237.67 1191.54 5251.67 1110.54 5264.67 1151.54 5278.67 1180.54 5292.67 1077.54 5305.67 1025.53 5319.67 1018.53 5333.68 1018.53 5346.68 1015.53 5360.68 1014.53 5374.68 1007.53 5387.68 1012.53 5401.68 1007.53 5415.68 1012.53 5428.68 1007.53 5442.68 1002.53 5456.68 1006.53 5469.68 1004.53 5483.68 1012.53 5497.68 1007.53 5510.68 1010.53 5524.68 1006.53 5538.68 1007.53 5552.68 1001.53 5565.68 1015.53 5579.68 1015.53 5593.68 1011.53 5606.68 1009.53 5620.68 1016.53 5634.69 1005.53 5647.69 1011.53 5661.69 1011.53 5675.69 1013.53 5688.69 1008.53 5702.69 1010.53 5716.69 1009.53 5729.69 1004.53 5743.69 1011.53 5757.69 1009.53 5770.69 1012.53 5784.69 1012.53 5798.69 1012.53 5811.69 1008.53 5825.69 1010.53 5839.69 1013.53 5852.69 1005.53 5866.69 1012.53 5880.69 1020.53 5894.69 1013.53 5907.69 1015.53 5921.69 1014.53 5935.69 1004.53 5948.7 1005.53 5962.7 1015.53 5976.7 1012.53 5989.7 1003.53 6003.7 1003.53 6017.7 1004.53 6030.7 1006.53 6044.7 1009.53 6058.7 1002.53 6071.7 1005.53 6085.7 1000.53 6099.7 1009.53 6112.7 1005.53 6126.7 1004.53 6140.7 1001.53 6153.7 1006.53 6167.7 1006.53 6181.7 1007.53 6194.7 1003.53 6208.7 1006.53 6222.7 1002.53 6236.71 1003.53 6249.71 1003.53 6263.71 1006.53 6277.71 1002.53 6290.71 1005.53 6304.71 1004.53 6318.71 1006.53 6331.71 1005.53 6345.71 1006.53 6359.71 1002.53 6372.71 1001.53 6386.71 998.5 6400.71 1003.53 6413.71 1005.53 6427.71 1002.53 6441.71 1001.53 6454.71 1003.53 6468.71 1006.53 6482.71 1003.53 6495.71 1002.53 6509.71 1003.53 6523.71 1007.53 6537.71 999.533 6550.71 1000.53 6564.72 1007.53 6578.72 1005.53 6591.72 1002.53 6605.72 999.533 6619.72 1004.53 6632.72 1003.53 6646.72 1003.53 6660.72 1003.53 6674.5 1002.53" stroke="#4EA72E" stroke-width="4.58333" stroke-linecap="round" stroke-linejoin="round" stroke-miterlimit="10" fill="none"/></g><g><path d="M3937.5 2202.5 3951.63 2188.57 3965.63 2091.57 3978.63 2051.57 3992.63 2064.57 4006.63 2059.57 4019.63 2010.57 4033.63 1993.57 4047.63 2047.57 4060.63 1928.56 4074.63 1917.56 4088.63 1899.56 4101.63 1934.56 4115.64 1960.56 4129.64 1960.56 4142.64 2062.57 4156.64 1970.56 4170.64 1868.56 4183.64 1929.56 4197.64 1920.56 4211.64 1927.56 4225.64 1903.56 4238.64 1961.56 4252.64 1901.56 4266.64 1821.56 4279.64 1812.56 4293.64 1701.56 4307.64 1755.56 4320.64 1822.56 4334.64 1787.56 4348.64 1828.56 4361.64 1872.56 4375.64 1812.56 4389.64 1892.56 4402.64 1812.56 4416.65 1915.56 4430.65 1878.56 4443.65 1698.56 4457.65 1779.56 4471.65 1812.56 4484.65 1838.56 4498.65 1768.56 4512.65 1770.56 4525.65 1843.56 4539.65 1774.56 4553.65 1930.56 4567.65 1761.56 4580.65 1715.56 4594.65 1749.56 4608.65 1737.56 4621.65 1809.56 4635.65 1930.56 4649.65 1896.56 4662.65 1769.56 4676.65 1740.56 4690.65 1749.56 4703.65 1729.56 4717.66 1748.56 4731.66 1735.56 4744.66 1807.56 4758.66 1821.56 4772.66 1806.56 4785.66 1877.56 4799.66 1855.56 4813.66 1778.56 4826.66 1865.56 4840.66 1826.56 4854.66 1836.56 4867.66 1893.56 4881.66 1757.56 4895.66 1824.56 4909.66 1872.56 4922.66 1858.56 4936.66 1699.56 4950.66 1771.56 4963.66 1837.56 4977.66 1780.56 4991.66 1853.56 5004.66 1797.56 5018.67 2010.57 5032.67 2043.57 5045.67 1844.56 5059.67 1889.56 5073.67 1825.56 5086.67 1904.56 5100.67 1876.56 5114.67 1832.56 5127.67 1743.56 5141.67 1846.56 5155.67 1789.56 5168.67 1906.56 5182.67 1791.56 5196.67 1863.56 5210.67 1694.5 5223.67 1823.56 5237.67 1829.56 5251.67 1893.56 5264.67 1830.56 5278.67 1852.56 5292.67 1715.56 5305.67 1742.56 5319.67 1736.56 5333.68 1735.56 5346.68 1721.56 5360.68 1735.56 5374.68 1706.56 5387.68 1722.56 5401.68 1728.56 5415.68 1722.56 5428.68 1718.56 5442.68 1711.56 5456.68 1718.56 5469.68 1722.56 5483.68 1714.56 5497.68 1712.56 5510.68 1724.56 5524.68 1755.56 5538.68 1725.56 5552.68 1715.56 5565.68 1721.56 5579.68 1735.56 5593.68 1723.56 5606.68 1726.56 5620.68 1717.56 5634.69 1736.56 5647.69 1713.56 5661.69 1761.56 5675.69 1744.56 5688.69 1738.56 5702.69 1748.56 5716.69 1768.56 5729.69 1730.56 5743.69 1725.56 5757.69 1734.56 5770.69 1749.56 5784.69 1756.56 5798.69 1729.56 5811.69 1742.56 5825.69 1747.56 5839.69 1733.56 5852.69 1730.56 5866.69 1720.56 5880.69 1729.56 5894.69 1735.56 5907.69 1758.56 5921.69 1750.56 5935.69 1745.56 5948.7 1746.56 5962.7 1739.56 5976.7 1796.56 5989.7 1750.56 6003.7 1755.56 6017.7 1747.56 6030.7 1752.56 6044.7 1751.56 6058.7 1742.56 6071.7 1763.56 6085.7 1742.56 6099.7 1750.56 6112.7 1733.56 6126.7 1726.56 6140.7 1746.56 6153.7 1741.56 6167.7 1740.56 6181.7 1739.56 6194.7 1740.56 6208.7 1739.56 6222.7 1740.56 6236.71 1758.56 6249.71 1758.56 6263.71 1754.56 6277.71 1743.56 6290.71 1737.56 6304.71 1739.56 6318.71 1757.56 6331.71 1758.56 6345.71 1755.56 6359.71 1749.56 6372.71 1743.56 6386.71 1744.56 6400.71 1744.56 6413.71 1735.56 6427.71 1740.56 6441.71 1750.56 6454.71 1744.56 6468.71 1730.56 6482.71 1760.56 6495.71 1735.56 6509.71 1758.56 6523.71 1758.56 6537.71 1746.56 6550.71 1750.56 6564.72 1743.56 6578.72 1725.56 6591.72 1750.56 6605.72 1749.56 6619.72 1749.56 6632.72 1746.56 6646.72 1740.56 6660.72 1748.56 6674.5 1736.56" stroke="#994010" stroke-width="4.58333" stroke-linecap="round" stroke-linejoin="round" stroke-miterlimit="10" fill="none"/></g><g><text font-family="Arial,Arial_MSFontService,sans-serif" font-weight="400" font-size="64" transform="matrix(1 0 0 1 3804.45 2308)">15</text></g><g><text font-family="Arial,Arial_MSFontService,sans-serif" font-weight="400" font-size="64" transform="matrix(1 0 0 1 3804.45 2131)">25</text></g><g><text font-family="Arial,Arial_MSFontService,sans-serif" font-weight="400" font-size="64" transform="matrix(1 0 0 1 3804.45 1955)">35</text></g><g><text font-family="Arial,Arial_MSFontService,sans-serif" font-weight="400" font-size="64" transform="matrix(1 0 0 1 3804.45 1778)">45</text></g><g><text font-family="Arial,Arial_MSFontService,sans-serif" font-weight="400" font-size="64" transform="matrix(1 0 0 1 3804.45 1601)">55</text></g><g><text font-family="Arial,Arial_MSFontService,sans-serif" font-weight="400" font-size="64" transform="matrix(1 0 0 1 3804.45 1424)">65</text></g><g><text font-family="Arial,Arial_MSFontService,sans-serif" font-weight="400" font-size="64" transform="matrix(1 0 0 1 3804.45 1247)">75</text></g><g><text font-family="Arial,Arial_MSFontService,sans-serif" font-weight="400" font-size="64" transform="matrix(1 0 0 1 3804.45 1071)">85</text></g><g><text font-family="Arial,Arial_MSFontService,sans-serif" font-weight="400" font-size="64" transform="matrix(1 0 0 1 3920.02 2385)">0</text></g><g><text font-family="Arial,Arial_MSFontService,sans-serif" font-weight="400" font-size="64" transform="matrix(1 0 0 1 4175.79 2385)">20</text></g><g><text font-family="Arial,Arial_MSFontService,sans-serif" font-weight="400" font-size="64" transform="matrix(1 0 0 1 4449.41 2385)">40</text></g><g><text font-family="Arial,Arial_MSFontService,sans-serif" font-weight="400" font-size="64" transform="matrix(1 0 0 1 4723.03 2385)">60</text></g><g><text font-family="Arial,Arial_MSFontService,sans-serif" font-weight="400" font-size="64" transform="matrix(1 0 0 1 4996.64 2385)">80</text></g><g><text font-family="Arial,Arial_MSFontService,sans-serif" font-weight="400" font-size="64" transform="matrix(1 0 0 1 5252.42 2385)">100</text></g><g><text font-family="Arial,Arial_MSFontService,sans-serif" font-weight="400" font-size="64" transform="matrix(1 0 0 1 5526.04 2385)">120</text></g><g><text font-family="Arial,Arial_MSFontService,sans-serif" font-weight="400" font-size="64" transform="matrix(1 0 0 1 5799.65 2385)">140</text></g><g><text font-family="Arial,Arial_MSFontService,sans-serif" font-weight="400" font-size="64" transform="matrix(1 0 0 1 6073.27 2385)">160</text></g><g><text font-family="Arial,Arial_MSFontService,sans-serif" font-weight="400" font-size="64" transform="matrix(1 0 0 1 6346.89 2385)">180</text></g><g><text font-family="Arial,Arial_MSFontService,sans-serif" font-weight="400" font-size="64" transform="matrix(1 0 0 1 6620.5 2385)">200</text></g><g><text font-family="Arial,Arial_MSFontService,sans-serif" font-weight="700" font-size="64" transform="matrix(6.12323e-17 -1 1 6.12323e-17 3776.9 1908)">Test Accuracy @ 1</text></g><g><text font-family="Arial,Arial_MSFontService,sans-serif" font-weight="700" font-size="64" transform="matrix(1 0 0 1 5207.92 2472)">Epoch</text></g><g><g><text font-family="Arial,Arial_MSFontService,sans-serif" font-weight="700" font-size="77" transform="matrix(1 0 0 1 4762.74 880)">MobileNetV2: Imagewoof</text></g></g><g><path d="M3921.5 2584.5 4009.5 2584.5" stroke="#E97132" stroke-width="4.58333" stroke-linecap="round" stroke-linejoin="round" stroke-miterlimit="10" fill="none" fill-rule="evenodd"/></g><g><text font-family="Arial,Arial_MSFontService,sans-serif" font-weight="400" font-size="50" transform="matrix(1 0 0 1 4019.13 2601)">Imagewoof - MobileNetV2 - Original</text></g><g><path d="M5232.5 2584.5 5320.5 2584.5" stroke="#0F9ED5" stroke-width="4.58333" stroke-linecap="round" stroke-linejoin="round" stroke-miterlimit="10" fill="none" fill-rule="evenodd"/></g><g><text font-family="Arial,Arial_MSFontService,sans-serif" font-weight="400" font-size="50" transform="matrix(1 0 0 1 5330.11 2601)">Imagewoof - MobileNetV2 - Original+Synthetic(Clean)</text></g><g><path d="M3921.5 2668.5 4009.5 2668.5" stroke="#4EA72E" stroke-width="4.58333" stroke-linecap="round" stroke-linejoin="round" stroke-miterlimit="10" fill="none" fill-rule="evenodd"/></g><g><text font-family="Arial,Arial_MSFontService,sans-serif" font-weight="400" font-size="50" transform="matrix(1 0 0 1 4019.13 2685)">Imagewoof - MobileNetV2 - Original+Synthetic(Noisy)</text></g><g><path d="M5232.5 2668.5 5320.5 2668.5" stroke="#994010" stroke-width="4.58333" stroke-linecap="round" stroke-linejoin="round" stroke-miterlimit="10" fill="none" fill-rule="evenodd"/></g><g><text font-family="Arial,Arial_MSFontService,sans-serif" font-weight="400" font-size="50" transform="matrix(1 0 0 1 5330.11 2685)">Imagewoof - MobileNetV2 - Synthetic</text></g><rect x="3660.5" y="773.5" width="3117" height="1957" stroke="#898989" stroke-width="4.58333" stroke-linejoin="round" stroke-miterlimit="10" fill="none"/></g></svg>