<svg width="2956" height="1962" xmlns="http://www.w3.org/2000/svg" xmlns:xlink="http://www.w3.org/1999/xlink" xml:space="preserve" overflow="hidden"><defs><clipPath id="clip0"><rect x="3195" y="771" width="2956" height="1962"/></clipPath></defs><g clip-path="url(#clip0)" transform="translate(-3195 -771)"><rect x="3197" y="773" width="2951" height="1957" fill="#FFFFFF"/><g><rect x="3522" y="962" width="2536" height="1402" fill="#FFFFFF"/></g><g><path d="M3521.5 2189.57 6058.5 2189.57M3521.5 2013.57 6058.5 2013.57M3521.5 1838.56 6058.5 1838.56M3521.5 1663.55 6058.5 1663.55M3521.5 1487.55 6058.5 1487.55M3521.5 1312.54 6058.5 1312.54M3521.5 1137.54 6058.5 1137.54M3521.5 961.5 6058.5 961.5" stroke="#D9D9D9" stroke-width="3.4375" stroke-linejoin="round" stroke-miterlimit="10" fill="none"/></g><g><path d="M3521.5 2364.5 6058.5 2364.5" stroke="#D9D9D9" stroke-width="3.4375" stroke-linejoin="round" stroke-miterlimit="10" fill="none" fill-rule="evenodd"/></g><g><path d="M3534.5 1431.55 3559.62 1361.54 3585.62 1369.55 3610.62 1365.54 3635.62 1332.54 3661.62 1304.54 3686.62 1292.54 3711.62 1406.55 3737.62 1369.55 3762.62 1296.54 3787.62 1365.54 3813.63 1394.55 3838.63 1337.54 3864.63 1234.5 3889.63 1316.54 3914.63 1463.5 3940.63 1353.54 3965.63 1288.54 3990.63 1398.55 4016.63 1316.54 4041.63 1259.54 4067.63 1312.54 4092.63 1349.54 4117.64 1382.55 4143.64 1239.54 4168.64 1337.54 4193.64 1337.54 4219.64 1390.55 4244.64 1377.55 4269.64 1394.55 4295.64 1353.54 4320.64 1443.55 4346.64 1263.54 4371.64 1410.55 4396.64 1345.54 4422.65 1390.55 4447.65 1410.55 4472.65 1288.54 4498.65 1275.54 4523.65 1349.54 4548.65 1328.54 4574.65 1382.55 4599.65 1320.54 4625.65 1382.55 4650.65 1337.54 4675.65 1406.55 4701.65 1308.54 4726.66 1398.55 4751.66 1431.55 4777.66 1345.54 4802.66 1402.55 4827.66 1365.54 4853.66 1259.54 4878.66 1390.55 4904.66 1324.54 4929.66 1410.55 4954.66 1288.54 4980.66 1418.55 5005.66 1312.54 5030.67 1292.54 5056.67 1316.54 5081.67 1390.55 5106.67 1410.55 5132.67 1320.54 5157.67 1369.55 5183.67 1324.54 5208.67 1365.54 5233.67 1361.54 5259.67 1386.55 5284.67 1316.54 5309.67 1382.55 5335.68 1426.55 5360.68 1324.54 5385.68 1304.54 5411.68 1332.54 5436.68 1402.55 5462.68 1455.55 5487.68 1308.54 5512.68 1447.55 5538.68 1300.54 5563.68 1332.54 5588.68 1390.55 5614.68 1426.55 5639.69 1263.54 5664.69 1426.55 5690.69 1288.54 5715.69 1361.54 5741.69 1402.55 5766.69 1308.54 5791.69 1373.55 5817.69 1386.55 5842.69 1251.54 5867.69 1390.55 5893.69 1316.54 5918.69 1332.54 5943.7 1304.54 5969.7 1345.54 5994.7 1337.54 6020.7 1300.54 6045.5 1320.54" stroke="#E97132" stroke-width="4.58333" stroke-linecap="round" stroke-linejoin="round" stroke-miterlimit="10" fill="none"/></g><g><path d="M3534.5 2346.5 3559.62 2142.57 3585.62 2076.57 3610.62 2072.57 3635.62 2093.57 3661.62 2048.57 3686.62 1905.56 3711.62 1827.56 3737.62 1802.56 3762.62 1745.56 3787.62 1712.56 3813.63 1680.56 3838.63 1631.55 3864.63 1643.55 3889.63 1537.55 3914.63 1590.55 3940.63 1520.55 3965.63 1610.55 3990.63 1541.55 4016.63 1537.55 4041.63 1512.55 4067.63 1557.55 4092.63 1520.55 4117.64 1431.55 4143.64 1418.55 4168.64 1365.54 4193.64 1390.55 4219.64 1308.54 4244.64 1418.55 4269.64 1369.55 4295.64 1324.54 4320.64 1304.54 4346.64 1308.54 4371.64 1239.54 4396.64 1296.54 4422.65 1373.55 4447.65 1283.54 4472.65 1332.54 4498.65 1283.54 4523.65 1259.54 4548.65 1239.54 4574.65 1349.54 4599.65 1300.54 4625.65 1251.54 4650.65 1259.54 4675.65 1226.54 4701.65 1308.54 4726.66 1210.54 4751.66 1202.54 4777.66 1177.54 4802.66 1124.54 4827.66 1185.54 4853.66 1145.54 4878.66 1251.54 4904.66 1185.54 4929.66 1275.54 4954.66 1145.54 4980.66 1202.54 5005.66 1267.54 5030.67 1247.54 5056.67 1247.54 5081.67 1169.54 5106.67 1206.54 5132.67 1234.54 5157.67 1210.54 5183.67 1140.54 5208.67 1169.54 5233.67 1214.54 5259.67 1226.54 5284.67 1218.54 5309.67 1214.54 5335.68 1157.54 5360.68 1145.54 5385.68 1185.54 5411.68 1198.54 5436.68 1226.54 5462.68 1169.54 5487.68 1165.54 5512.68 1177.54 5538.68 1296.54 5563.68 1222.54 5588.68 1243.54 5614.68 1140.54 5639.69 1059.5 5664.69 1169.54 5690.69 1189.54 5715.69 1202.54 5741.69 1243.54 5766.69 1157.54 5791.69 1177.54 5817.69 1177.54 5842.69 1247.54 5867.69 1222.54 5893.69 1116.54 5918.69 1218.54 5943.7 1169.54 5969.7 1169.54 5994.7 1169.54 6020.7 1177.54 6045.5 1153.54" stroke="#0F9ED5" stroke-width="4.58333" stroke-linecap="round" stroke-linejoin="round" stroke-miterlimit="10" fill="none"/></g><g><text font-family="Arial,Arial_MSFontService,sans-serif" font-weight="400" font-size="64" transform="matrix(1 0 0 1 3395.22 2385)">62</text></g><g><text font-family="Arial,Arial_MSFontService,sans-serif" font-weight="400" font-size="64" transform="matrix(1 0 0 1 3341.71 2209)">62.5</text></g><g><text font-family="Arial,Arial_MSFontService,sans-serif" font-weight="400" font-size="64" transform="matrix(1 0 0 1 3395.22 2034)">63</text></g><g><text font-family="Arial,Arial_MSFontService,sans-serif" font-weight="400" font-size="64" transform="matrix(1 0 0 1 3341.71 1859)">63.5</text></g><g><text font-family="Arial,Arial_MSFontService,sans-serif" font-weight="400" font-size="64" transform="matrix(1 0 0 1 3395.22 1683)">64</text></g><g><text font-family="Arial,Arial_MSFontService,sans-serif" font-weight="400" font-size="64" transform="matrix(1 0 0 1 3341.71 1508)">64.5</text></g><g><text font-family="Arial,Arial_MSFontService,sans-serif" font-weight="400" font-size="64" transform="matrix(1 0 0 1 3395.22 1333)">65</text></g><g><text font-family="Arial,Arial_MSFontService,sans-serif" font-weight="400" font-size="64" transform="matrix(1 0 0 1 3341.71 1158)">65.5</text></g><g><text font-family="Arial,Arial_MSFontService,sans-serif" font-weight="400" font-size="64" transform="matrix(1 0 0 1 3395.22 982)">66</text></g><g><text font-family="Arial,Arial_MSFontService,sans-serif" font-weight="400" font-size="64" transform="matrix(1 0 0 1 3480.95 2461)">201</text></g><g><text font-family="Arial,Arial_MSFontService,sans-serif" font-weight="400" font-size="64" transform="matrix(1 0 0 1 3759.96 2461)">212</text></g><g><text font-family="Arial,Arial_MSFontService,sans-serif" font-weight="400" font-size="64" transform="matrix(1 0 0 1 4038.98 2461)">223</text></g><g><text font-family="Arial,Arial_MSFontService,sans-serif" font-weight="400" font-size="64" transform="matrix(1 0 0 1 4317.99 2461)">234</text></g><g><text font-family="Arial,Arial_MSFontService,sans-serif" font-weight="400" font-size="64" transform="matrix(1 0 0 1 4597.01 2461)">245</text></g><g><text font-family="Arial,Arial_MSFontService,sans-serif" font-weight="400" font-size="64" transform="matrix(1 0 0 1 4876.02 2461)">256</text></g><g><text font-family="Arial,Arial_MSFontService,sans-serif" font-weight="400" font-size="64" transform="matrix(1 0 0 1 5155.04 2461)">267</text></g><g><text font-family="Arial,Arial_MSFontService,sans-serif" font-weight="400" font-size="64" transform="matrix(1 0 0 1 5434.05 2461)">278</text></g><g><text font-family="Arial,Arial_MSFontService,sans-serif" font-weight="400" font-size="64" transform="matrix(1 0 0 1 5713.06 2461)">289</text></g><g><text font-family="Arial,Arial_MSFontService,sans-serif" font-weight="400" font-size="64" transform="matrix(1 0 0 1 5992.08 2461)">300</text></g><g><text font-family="Arial,Arial_MSFontService,sans-serif" font-weight="700" font-size="64" transform="matrix(6.12323e-17 -1 1 6.12323e-17 3314.16 1946)">Test Accuracy @ 1</text></g><g><text font-family="Arial,Arial_MSFontService,sans-serif" font-weight="700" font-size="64" transform="matrix(1 0 0 1 4692.01 2549)">Epoch</text></g><g><g><text font-family="Arial,Arial_MSFontService,sans-serif" font-weight="700" font-size="77" transform="matrix(1 0 0 1 4152.51 880)">MobileNetV2: Stanford Dogs</text></g></g><g><path d="M3480.5 2661.5 3568.5 2661.5" stroke="#E97132" stroke-width="4.58333" stroke-linecap="round" stroke-linejoin="round" stroke-miterlimit="10" fill="none" fill-rule="evenodd"/></g><g><text font-family="Arial,Arial_MSFontService,sans-serif" font-weight="400" font-size="50" transform="matrix(1 0 0 1 3577.6 2678)">Stanford Dogs - MobileNetV2 - Base+100</text></g><g><path d="M4640.5 2661.5 4728.5 2661.5" stroke="#0F9ED5" stroke-width="4.58333" stroke-linecap="round" stroke-linejoin="round" stroke-miterlimit="10" fill="none" fill-rule="evenodd"/></g><g><text font-family="Arial,Arial_MSFontService,sans-serif" font-weight="400" font-size="50" transform="matrix(1 0 0 1 4738.24 2678)">Stanford Dogs - MobileNetV2 - AugmentNoisy+100</text></g><rect x="3197.5" y="773.5" width="2951" height="1957" stroke="#898989" stroke-width="4.58333" stroke-linejoin="round" stroke-miterlimit="10" fill="none"/></g></svg>