<svg width="3122" height="1962" xmlns="http://www.w3.org/2000/svg" xmlns:xlink="http://www.w3.org/1999/xlink" xml:space="preserve" overflow="hidden"><defs><clipPath id="clip0"><rect x="3658" y="771" width="3122" height="1962"/></clipPath></defs><g clip-path="url(#clip0)" transform="translate(-3658 -771)"><rect x="3660" y="773" width="3117" height="1957" fill="#FFFFFF"/><g><rect x="3931" y="962" width="2750" height="1326" fill="#FFFFFF"/></g><g><path d="M3931.5 2111.57 6680.5 2111.57M3931.5 1934.56 6680.5 1934.56M3931.5 1757.56 6680.5 1757.56M3931.5 1580.55 6680.5 1580.55M3931.5 1403.55 6680.5 1403.55M3931.5 1227.54 6680.5 1227.54M3931.5 1050.5 6680.5 1050.5" stroke="#D9D9D9" stroke-width="3.4375" stroke-linejoin="round" stroke-miterlimit="10" fill="none"/></g><g><path d="M3931.5 2288.5 6680.5 2288.5" stroke="#D9D9D9" stroke-width="3.4375" stroke-linejoin="round" stroke-miterlimit="10" fill="none" fill-rule="evenodd"/></g><g><path d="M3937.5 2213.5 3951.63 1834.56 3965.63 1687.56 3978.63 1816.56 3992.63 1618.55 4006.63 1535.55 4019.63 1452.55 4033.63 1421.55 4047.63 1454.55 4060.63 1342.54 4074.63 1343.54 4088.63 1307.54 4101.63 1316.54 4115.64 1409.55 4129.64 1246.54 4142.64 1280.54 4156.64 1225.54 4170.64 1298.54 4183.64 1327.54 4197.64 1254.54 4211.64 1221.54 4225.64 1341.54 4238.64 1212.54 4252.64 1222.54 4266.64 1139.54 4279.64 1183.54 4293.64 1211.54 4307.64 1164.54 4320.64 1184.54 4334.64 1159.54 4348.64 1196.54 4361.64 1133.54 4375.64 1149.54 4389.64 1163.54 4402.64 1145.54 4416.65 1136.54 4430.65 1222.54 4443.65 1143.54 4457.65 1136.54 4471.65 1151.54 4484.65 1138.54 4498.65 1164.54 4512.65 1162.54 4525.65 1128.54 4539.65 1103.54 4553.65 1113.54 4567.65 1110.54 4580.65 1129.54 4594.65 1110.54 4608.65 1112.54 4621.65 1154.54 4635.65 1115.54 4649.65 1139.54 4662.65 1120.54 4676.65 1093.54 4690.65 1092.54 4703.65 1126.54 4717.66 1119.54 4731.66 1126.54 4744.66 1114.54 4758.66 1099.54 4772.66 1104.54 4785.66 1154.54 4799.66 1104.54 4813.66 1111.54 4826.66 1089.54 4840.66 1125.54 4854.66 1069.54 4867.66 1146.54 4881.66 1092.54 4895.66 1105.54 4909.66 1153.54 4922.66 1114.54 4936.66 1090.54 4950.66 1128.54 4963.66 1115.54 4977.66 1062.54 4991.66 1080.54 5004.66 1084.54 5018.67 1132.54 5032.67 1136.54 5045.67 1096.54 5059.67 1120.54 5073.67 1105.54 5086.67 1130.54 5100.67 1115.54 5114.67 1096.54 5127.67 1079.54 5141.67 1101.54 5155.67 1083.54 5168.67 1106.54 5182.67 1073.54 5196.67 1123.54 5210.67 1078.54 5223.67 1139.54 5237.67 1102.54 5251.67 1087.54 5264.67 1078.54 5278.67 1089.54 5292.67 1090.54 5305.67 1025.53 5319.67 1011.53 5333.68 1016.53 5346.68 1008.53 5360.68 1012.53 5374.68 1015.53 5387.68 1009.53 5401.68 1005.53 5415.68 1011.53 5428.68 1008.53 5442.68 1004.5 5456.68 1005.53 5469.68 1009.53 5483.68 1006.53 5497.68 1012.53 5510.68 1007.53 5524.68 1012.53 5538.68 1005.53 5552.68 1008.53 5565.68 1007.53 5579.68 1008.53 5593.68 1012.53 5606.68 1013.53 5620.68 1010.53 5634.69 1007.53 5647.69 1009.53 5661.69 1011.53 5675.69 1012.53 5688.69 1016.53 5702.69 1012.53 5716.69 1015.53 5729.69 1010.53 5743.69 1015.53 5757.69 1014.53 5770.69 1015.53 5784.69 1009.53 5798.69 1017.53 5811.69 1010.53 5825.69 1015.53 5839.69 1009.53 5852.69 1012.53 5866.69 1009.53 5880.69 1014.53 5894.69 1015.53 5907.69 1014.53 5921.69 1015.53 5935.69 1017.53 5948.7 1009.53 5962.7 1015.53 5976.7 1015.53 5989.7 1009.53 6003.7 1007.53 6017.7 1010.53 6030.7 1009.53 6044.7 1012.53 6058.7 1014.53 6071.7 1010.53 6085.7 1010.53 6099.7 1007.53 6112.7 1011.53 6126.7 1011.53 6140.7 1010.53 6153.7 1010.53 6167.7 1011.53 6181.7 1009.53 6194.7 1007.53 6208.7 1008.53 6222.7 1011.53 6236.71 1008.53 6249.71 1007.53 6263.71 1010.53 6277.71 1007.53 6290.71 1007.53 6304.71 1010.53 6318.71 1014.53 6331.71 1011.53 6345.71 1008.53 6359.71 1010.53 6372.71 1013.53 6386.71 1006.53 6400.71 1010.53 6413.71 1011.53 6427.71 1008.53 6441.71 1014.53 6454.71 1012.53 6468.71 1013.53 6482.71 1010.53 6495.71 1011.53 6509.71 1010.53 6523.71 1010.53 6537.71 1015.53 6550.71 1011.53 6564.72 1007.53 6578.72 1008.53 6591.72 1005.53 6605.72 1008.53 6619.72 1007.53 6632.72 1006.53 6646.72 1009.53 6660.72 1006.53 6674.5 1010.53" stroke="#E97132" stroke-width="4.58333" stroke-linecap="round" stroke-linejoin="round" stroke-miterlimit="10" fill="none"/></g><g><path d="M3937.5 1824.5 3951.63 1683.56 3965.63 1527.55 3978.63 1604.55 3992.63 1495.55 4006.63 1470.55 4019.63 1385.55 4033.63 1319.54 4047.63 1323.54 4060.63 1274.54 4074.63 1269.54 4088.63 1288.54 4101.63 1241.54 4115.64 1235.54 4129.64 1280.54 4142.64 1223.54 4156.64 1199.54 4170.64 1249.54 4183.64 1200.54 4197.64 1214.54 4211.64 1214.54 4225.64 1209.54 4238.64 1184.54 4252.64 1183.54 4266.64 1237.54 4279.64 1187.54 4293.64 1208.54 4307.64 1175.54 4320.64 1157.54 4334.64 1148.54 4348.64 1168.54 4361.64 1201.54 4375.64 1215.54 4389.64 1184.54 4402.64 1130.54 4416.65 1117.54 4430.65 1165.54 4443.65 1124.54 4457.65 1134.54 4471.65 1105.54 4484.65 1086.54 4498.65 1130.54 4512.65 1103.54 4525.65 1145.54 4539.65 1133.54 4553.65 1113.54 4567.65 1142.54 4580.65 1106.54 4594.65 1110.54 4608.65 1095.54 4621.65 1125.54 4635.65 1087.54 4649.65 1099.54 4662.65 1179.54 4676.65 1126.54 4690.65 1072.54 4703.65 1139.54 4717.66 1088.54 4731.66 1132.54 4744.66 1092.54 4758.66 1100.54 4772.66 1065.54 4785.66 1097.54 4799.66 1160.54 4813.66 1100.54 4826.66 1136.54 4840.66 1154.54 4854.66 1119.54 4867.66 1165.54 4881.66 1096.54 4895.66 1100.54 4909.66 1082.54 4922.66 1083.54 4936.66 1113.54 4950.66 1124.54 4963.66 1119.54 4977.66 1080.54 4991.66 1063.54 5004.66 1107.54 5018.67 1117.54 5032.67 1114.54 5045.67 1071.54 5059.67 1120.54 5073.67 1098.54 5086.67 1106.54 5100.67 1087.54 5114.67 1090.54 5127.67 1096.54 5141.67 1101.54 5155.67 1078.54 5168.67 1100.54 5182.67 1132.54 5196.67 1092.54 5210.67 1101.54 5223.67 1101.54 5237.67 1080.54 5251.67 1099.54 5264.67 1099.54 5278.67 1077.54 5292.67 1113.54 5305.67 1020.53 5319.67 1011.53 5333.68 998.533 5346.68 995.533 5360.68 999.533 5374.68 1002.53 5387.68 996.533 5401.68 993.533 5415.68 1001.53 5428.68 1003.53 5442.68 1001.53 5456.68 1003.53 5469.68 1007.53 5483.68 1002.53 5497.68 997.533 5510.68 1001.53 5524.68 1002.53 5538.68 1005.53 5552.68 1002.53 5565.68 1003.53 5579.68 1003.53 5593.68 994.533 5606.68 994.533 5620.68 1000.53 5634.69 1003.53 5647.69 996.533 5661.69 997.533 5675.69 1001.53 5688.69 998.533 5702.69 1002.53 5716.69 993.5 5729.69 995.533 5743.69 1003.53 5757.69 1004.53 5770.69 1005.53 5784.69 1001.53 5798.69 999.533 5811.69 1001.53 5825.69 1003.53 5839.69 1009.53 5852.69 1000.53 5866.69 1000.53 5880.69 999.533 5894.69 1004.53 5907.69 1003.53 5921.69 1007.53 5935.69 1006.53 5948.7 999.533 5962.7 998.533 5976.7 1001.53 5989.7 1004.53 6003.7 1002.53 6017.7 999.533 6030.7 1001.53 6044.7 1003.53 6058.7 1002.53 6071.7 1001.53 6085.7 1002.53 6099.7 1001.53 6112.7 999.533 6126.7 1002.53 6140.7 1004.53 6153.7 1001.53 6167.7 1002.53 6181.7 1002.53 6194.7 1001.53 6208.7 1002.53 6222.7 1001.53 6236.71 1002.53 6249.71 1005.53 6263.71 1000.53 6277.71 998.533 6290.71 996.533 6304.71 998.533 6318.71 1002.53 6331.71 999.533 6345.71 1001.53 6359.71 999.533 6372.71 995.533 6386.71 1000.53 6400.71 1000.53 6413.71 1004.53 6427.71 998.533 6441.71 999.533 6454.71 998.533 6468.71 1002.53 6482.71 998.533 6495.71 1005.53 6509.71 1004.53 6523.71 997.533 6537.71 998.533 6550.71 999.533 6564.72 1001.53 6578.72 999.533 6591.72 996.533 6605.72 1000.53 6619.72 1001.53 6632.72 1002.53 6646.72 1001.53 6660.72 997.533 6674.5 999.533" stroke="#0F9ED5" stroke-width="4.58333" stroke-linecap="round" stroke-linejoin="round" stroke-miterlimit="10" fill="none"/></g><g><path d="M3937.5 1899.5 3951.63 1710.56 3965.63 1568.55 3978.63 1537.55 3992.63 1449.55 4006.63 1359.54 4019.63 1306.54 4033.63 1349.54 4047.63 1296.54 4060.63 1281.54 4074.63 1304.54 4088.63 1298.54 4101.63 1343.54 4115.64 1245.54 4129.64 1248.54 4142.64 1246.54 4156.64 1218.54 4170.64 1207.54 4183.64 1202.54 4197.64 1184.54 4211.64 1184.54 4225.64 1151.54 4238.64 1184.54 4252.64 1194.54 4266.64 1147.54 4279.64 1161.54 4293.64 1159.54 4307.64 1183.54 4320.64 1140.54 4334.64 1135.54 4348.64 1155.54 4361.64 1143.54 4375.64 1146.54 4389.64 1138.54 4402.64 1134.54 4416.65 1163.54 4430.65 1169.54 4443.65 1133.54 4457.65 1136.54 4471.65 1121.54 4484.65 1120.54 4498.65 1119.54 4512.65 1168.54 4525.65 1112.54 4539.65 1110.54 4553.65 1107.54 4567.65 1102.54 4580.65 1130.54 4594.65 1128.54 4608.65 1113.54 4621.65 1121.54 4635.65 1120.54 4649.65 1103.54 4662.65 1123.54 4676.65 1104.54 4690.65 1084.54 4703.65 1122.54 4717.66 1080.54 4731.66 1099.54 4744.66 1122.54 4758.66 1106.54 4772.66 1128.54 4785.66 1115.54 4799.66 1127.54 4813.66 1088.54 4826.66 1105.54 4840.66 1092.54 4854.66 1104.54 4867.66 1100.54 4881.66 1108.54 4895.66 1096.54 4909.66 1111.54 4922.66 1101.54 4936.66 1112.54 4950.66 1102.54 4963.66 1104.54 4977.66 1074.54 4991.66 1098.54 5004.66 1122.54 5018.67 1095.54 5032.67 1103.54 5045.67 1078.54 5059.67 1127.54 5073.67 1099.54 5086.67 1103.54 5100.67 1074.54 5114.67 1096.54 5127.67 1159.54 5141.67 1141.54 5155.67 1108.54 5168.67 1112.54 5182.67 1136.54 5196.67 1074.54 5210.67 1119.54 5223.67 1106.54 5237.67 1091.54 5251.67 1095.54 5264.67 1065.54 5278.67 1110.54 5292.67 1093.54 5305.67 1030.53 5319.67 1024.53 5333.68 1022.53 5346.68 1009.53 5360.68 1017.53 5374.68 1016.53 5387.68 1019.53 5401.68 1015.53 5415.68 1018.53 5428.68 1021.53 5442.68 1011.53 5456.68 1010.53 5469.68 1016.53 5483.68 1014.53 5497.68 1015.53 5510.68 1016.53 5524.68 1012.53 5538.68 1010.53 5552.68 1011.53 5565.68 1007.53 5579.68 1016.53 5593.68 1013.53 5606.68 1013.53 5620.68 1018.53 5634.69 1019.53 5647.69 1017.53 5661.69 1013.53 5675.69 1017.53 5688.69 1018.53 5702.69 1010.53 5716.69 1010.53 5729.69 1020.53 5743.69 1011.53 5757.69 1020.53 5770.69 1008.53 5784.69 1017.53 5798.69 1012.53 5811.69 1017.53 5825.69 1011.53 5839.69 1015.53 5852.69 1012.53 5866.69 1014.53 5880.69 1015.53 5894.69 1010.53 5907.69 1014.53 5921.69 1017.53 5935.69 1012.53 5948.7 1015.53 5962.7 1014.53 5976.7 1010.53 5989.7 1008.53 6003.7 1009.53 6017.7 1011.53 6030.7 1009.53 6044.7 1010.53 6058.7 1010.53 6071.7 1008.53 6085.7 1008.53 6099.7 1006.53 6112.7 1010.53 6126.7 1008.53 6140.7 1008.53 6153.7 1011.53 6167.7 1005.53 6181.7 1007.53 6194.7 1009.53 6208.7 1010.53 6222.7 1010.53 6236.71 1010.53 6249.71 1006.53 6263.71 1012.53 6277.71 1006.53 6290.71 1007.53 6304.71 1005.53 6318.71 1011.53 6331.71 1006.53 6345.71 1010.53 6359.71 1010.53 6372.71 1006.53 6386.71 1015.53 6400.71 1013.53 6413.71 1010.53 6427.71 1011.53 6441.71 1008.53 6454.71 1010.53 6468.71 1003.5 6482.71 1010.53 6495.71 1011.53 6509.71 1010.53 6523.71 1005.53 6537.71 1014.53 6550.71 1009.53 6564.72 1009.53 6578.72 1012.53 6591.72 1015.53 6605.72 1012.53 6619.72 1009.53 6632.72 1007.53 6646.72 1016.53 6660.72 1007.53 6674.5 1012.53" stroke="#4EA72E" stroke-width="4.58333" stroke-linecap="round" stroke-linejoin="round" stroke-miterlimit="10" fill="none"/></g><g><path d="M3937.5 2072.5 3951.63 1806.56 3965.63 1818.56 3978.63 1989.57 3992.63 1845.56 4006.63 1688.56 4019.63 1757.56 4033.63 1652.55 4047.63 1642.55 4060.63 1660.55 4074.63 1692.56 4088.63 1529.55 4101.63 1552.55 4115.64 1641.55 4129.64 1588.55 4142.64 1495.55 4156.64 1602.55 4170.64 1569.55 4183.64 1541.55 4197.64 1571.55 4211.64 1655.55 4225.64 1466.55 4238.64 1688.56 4252.64 1625.55 4266.64 1498.55 4279.64 1515.55 4293.64 1537.55 4307.64 1439.55 4320.64 1470.55 4334.64 1515.55 4348.64 1455.55 4361.64 1544.55 4375.64 1593.55 4389.64 1506.55 4402.64 1402.5 4416.65 1583.55 4430.65 1566.55 4443.65 1540.55 4457.65 1693.56 4471.65 1442.55 4484.65 1702.56 4498.65 1506.55 4512.65 1517.55 4525.65 1564.55 4539.65 1537.55 4553.65 1637.55 4567.65 1659.55 4580.65 1647.55 4594.65 1480.55 4608.65 1598.55 4621.65 1530.55 4635.65 1424.55 4649.65 1471.55 4662.65 1531.55 4676.65 1483.55 4690.65 1614.55 4703.65 1556.55 4717.66 1511.55 4731.66 1618.55 4744.66 1563.55 4758.66 1545.55 4772.66 1502.55 4785.66 1667.55 4799.66 1611.55 4813.66 1621.55 4826.66 1703.56 4840.66 1519.55 4854.66 1608.55 4867.66 1569.55 4881.66 1596.55 4895.66 1483.55 4909.66 1515.55 4922.66 1558.55 4936.66 1579.55 4950.66 1579.55 4963.66 1603.55 4977.66 1583.55 4991.66 1571.55 5004.66 1609.55 5018.67 1635.55 5032.67 1607.55 5045.67 1684.56 5059.67 1518.55 5073.67 1455.55 5086.67 1507.55 5100.67 1505.55 5114.67 1538.55 5127.67 1500.55 5141.67 1590.55 5155.67 1573.55 5168.67 1530.55 5182.67 1528.55 5196.67 1463.55 5210.67 1588.55 5223.67 1557.55 5237.67 1509.55 5251.67 1508.55 5264.67 1667.55 5278.67 1641.55 5292.67 1507.55 5305.67 1474.55 5319.67 1466.55 5333.68 1442.55 5346.68 1425.55 5360.68 1448.55 5374.68 1447.55 5387.68 1464.55 5401.68 1438.55 5415.68 1443.55 5428.68 1439.55 5442.68 1451.55 5456.68 1449.55 5469.68 1454.55 5483.68 1440.55 5497.68 1437.55 5510.68 1419.55 5524.68 1443.55 5538.68 1451.55 5552.68 1447.55 5565.68 1445.55 5579.68 1424.55 5593.68 1435.55 5606.68 1422.55 5620.68 1482.55 5634.69 1422.55 5647.69 1457.55 5661.69 1461.55 5675.69 1441.55 5688.69 1450.55 5702.69 1474.55 5716.69 1478.55 5729.69 1456.55 5743.69 1449.55 5757.69 1475.55 5770.69 1426.55 5784.69 1449.55 5798.69 1425.55 5811.69 1459.55 5825.69 1445.55 5839.69 1443.55 5852.69 1433.55 5866.69 1457.55 5880.69 1467.55 5894.69 1478.55 5907.69 1457.55 5921.69 1457.55 5935.69 1437.55 5948.7 1459.55 5962.7 1442.55 5976.7 1437.55 5989.7 1451.55 6003.7 1451.55 6017.7 1462.55 6030.7 1461.55 6044.7 1437.55 6058.7 1453.55 6071.7 1441.55 6085.7 1428.55 6099.7 1451.55 6112.7 1454.55 6126.7 1469.55 6140.7 1435.55 6153.7 1435.55 6167.7 1437.55 6181.7 1450.55 6194.7 1453.55 6208.7 1437.55 6222.7 1424.55 6236.71 1431.55 6249.71 1461.55 6263.71 1438.55 6277.71 1433.55 6290.71 1446.55 6304.71 1456.55 6318.71 1446.55 6331.71 1434.55 6345.71 1446.55 6359.71 1451.55 6372.71 1454.55 6386.71 1442.55 6400.71 1438.55 6413.71 1448.55 6427.71 1429.55 6441.71 1445.55 6454.71 1443.55 6468.71 1440.55 6482.71 1468.55 6495.71 1455.55 6509.71 1455.55 6523.71 1462.55 6537.71 1459.55 6550.71 1451.55 6564.72 1431.55 6578.72 1440.55 6591.72 1446.55 6605.72 1443.55 6619.72 1437.55 6632.72 1456.55 6646.72 1431.55 6660.72 1448.55 6674.5 1454.55" stroke="#994010" stroke-width="4.58333" stroke-linecap="round" stroke-linejoin="round" stroke-miterlimit="10" fill="none"/></g><g><text font-family="Arial,Arial_MSFontService,sans-serif" font-weight="400" font-size="64" transform="matrix(1 0 0 1 3804.45 2308)">20</text></g><g><text font-family="Arial,Arial_MSFontService,sans-serif" font-weight="400" font-size="64" transform="matrix(1 0 0 1 3804.45 2131)">30</text></g><g><text font-family="Arial,Arial_MSFontService,sans-serif" font-weight="400" font-size="64" transform="matrix(1 0 0 1 3804.45 1955)">40</text></g><g><text font-family="Arial,Arial_MSFontService,sans-serif" font-weight="400" font-size="64" transform="matrix(1 0 0 1 3804.45 1778)">50</text></g><g><text font-family="Arial,Arial_MSFontService,sans-serif" font-weight="400" font-size="64" transform="matrix(1 0 0 1 3804.45 1601)">60</text></g><g><text font-family="Arial,Arial_MSFontService,sans-serif" font-weight="400" font-size="64" transform="matrix(1 0 0 1 3804.45 1424)">70</text></g><g><text font-family="Arial,Arial_MSFontService,sans-serif" font-weight="400" font-size="64" transform="matrix(1 0 0 1 3804.45 1247)">80</text></g><g><text font-family="Arial,Arial_MSFontService,sans-serif" font-weight="400" font-size="64" transform="matrix(1 0 0 1 3804.45 1071)">90</text></g><g><text font-family="Arial,Arial_MSFontService,sans-serif" font-weight="400" font-size="64" transform="matrix(1 0 0 1 3920.02 2385)">0</text></g><g><text font-family="Arial,Arial_MSFontService,sans-serif" font-weight="400" font-size="64" transform="matrix(1 0 0 1 4175.79 2385)">20</text></g><g><text font-family="Arial,Arial_MSFontService,sans-serif" font-weight="400" font-size="64" transform="matrix(1 0 0 1 4449.41 2385)">40</text></g><g><text font-family="Arial,Arial_MSFontService,sans-serif" font-weight="400" font-size="64" transform="matrix(1 0 0 1 4723.03 2385)">60</text></g><g><text font-family="Arial,Arial_MSFontService,sans-serif" font-weight="400" font-size="64" transform="matrix(1 0 0 1 4996.64 2385)">80</text></g><g><text font-family="Arial,Arial_MSFontService,sans-serif" font-weight="400" font-size="64" transform="matrix(1 0 0 1 5252.42 2385)">100</text></g><g><text font-family="Arial,Arial_MSFontService,sans-serif" font-weight="400" font-size="64" transform="matrix(1 0 0 1 5526.04 2385)">120</text></g><g><text font-family="Arial,Arial_MSFontService,sans-serif" font-weight="400" font-size="64" transform="matrix(1 0 0 1 5799.65 2385)">140</text></g><g><text font-family="Arial,Arial_MSFontService,sans-serif" font-weight="400" font-size="64" transform="matrix(1 0 0 1 6073.27 2385)">160</text></g><g><text font-family="Arial,Arial_MSFontService,sans-serif" font-weight="400" font-size="64" transform="matrix(1 0 0 1 6346.89 2385)">180</text></g><g><text font-family="Arial,Arial_MSFontService,sans-serif" font-weight="400" font-size="64" transform="matrix(1 0 0 1 6620.5 2385)">200</text></g><g><text font-family="Arial,Arial_MSFontService,sans-serif" font-weight="700" font-size="64" transform="matrix(6.12323e-17 -1 1 6.12323e-17 3776.9 1908)">Test Accuracy @ 1</text></g><g><text font-family="Arial,Arial_MSFontService,sans-serif" font-weight="700" font-size="64" transform="matrix(1 0 0 1 5207.92 2472)">Epoch</text></g><g><g><text font-family="Arial,Arial_MSFontService,sans-serif" font-weight="700" font-size="77" transform="matrix(1 0 0 1 4760.55 880)">MobileNetV2: Imagenette</text></g></g><g><path d="M3916.5 2584.5 4004.5 2584.5" stroke="#E97132" stroke-width="4.58333" stroke-linecap="round" stroke-linejoin="round" stroke-miterlimit="10" fill="none" fill-rule="evenodd"/></g><g><text font-family="Arial,Arial_MSFontService,sans-serif" font-weight="400" font-size="50" transform="matrix(1 0 0 1 4013.49 2601)">Imagenette - MobileNetV2 - Original</text></g><g><path d="M5232.5 2584.5 5320.5 2584.5" stroke="#0F9ED5" stroke-width="4.58333" stroke-linecap="round" stroke-linejoin="round" stroke-miterlimit="10" fill="none" fill-rule="evenodd"/></g><g><text font-family="Arial,Arial_MSFontService,sans-serif" font-weight="400" font-size="50" transform="matrix(1 0 0 1 5330.11 2601)">Imagenette - MobileNetV2 - Original+Synthetic(Clean)</text></g><g><path d="M3916.5 2668.5 4004.5 2668.5" stroke="#4EA72E" stroke-width="4.58333" stroke-linecap="round" stroke-linejoin="round" stroke-miterlimit="10" fill="none" fill-rule="evenodd"/></g><g><text font-family="Arial,Arial_MSFontService,sans-serif" font-weight="400" font-size="50" transform="matrix(1 0 0 1 4013.49 2685)">Imagenette - MobileNetV2 - Original+Synthetic(Noisy)</text></g><g><path d="M5232.5 2668.5 5320.5 2668.5" stroke="#994010" stroke-width="4.58333" stroke-linecap="round" stroke-linejoin="round" stroke-miterlimit="10" fill="none" fill-rule="evenodd"/></g><g><text font-family="Arial,Arial_MSFontService,sans-serif" font-weight="400" font-size="50" transform="matrix(1 0 0 1 5330.11 2685)">Imagenette - MobileNetV2 - Synthetic</text></g><rect x="3660.5" y="773.5" width="3117" height="1957" stroke="#898989" stroke-width="4.58333" stroke-linejoin="round" stroke-miterlimit="10" fill="none"/></g></svg>