<svg width="2956" height="1962" xmlns="http://www.w3.org/2000/svg" xmlns:xlink="http://www.w3.org/1999/xlink" xml:space="preserve" overflow="hidden"><defs><clipPath id="clip0"><rect x="3195" y="771" width="2956" height="1962"/></clipPath></defs><g clip-path="url(#clip0)" transform="translate(-3195 -771)"><rect x="3197" y="773" width="2951" height="1957" fill="#FFFFFF"/><g><rect x="3522" y="962" width="2536" height="1402" fill="#FFFFFF"/></g><g><path d="M3521.5 2224.57 6058.5 2224.57M3521.5 2083.57 6058.5 2083.57M3521.5 1943.56 6058.5 1943.56M3521.5 1803.56 6058.5 1803.56M3521.5 1663.55 6058.5 1663.55M3521.5 1522.55 6058.5 1522.55M3521.5 1382.55 6058.5 1382.55M3521.5 1242.54 6058.5 1242.54M3521.5 1102.54 6058.5 1102.54M3521.5 961.5 6058.5 961.5" stroke="#D9D9D9" stroke-width="3.4375" stroke-linejoin="round" stroke-miterlimit="10" fill="none"/></g><g><path d="M3521.5 2364.5 6058.5 2364.5" stroke="#D9D9D9" stroke-width="3.4375" stroke-linejoin="round" stroke-miterlimit="10" fill="none" fill-rule="evenodd"/></g><g><path d="M3534.5 1702.56 3559.62 1702.56 3585.62 1881.56 3610.62 1845.56 3635.62 1667.55 3661.62 1631.55 3686.62 1792.56 3711.62 1542.55 3737.62 1738.56 3762.62 1578.55 3787.62 1774.56 3813.63 1792.56 3838.63 1935.5 3864.63 1899.56 3889.63 1560.55 3914.63 1649.55 3940.63 1631.55 3965.63 1827.56 3990.63 1578.55 4016.63 1649.55 4041.63 1595.55 4067.63 1720.56 4092.63 1595.55 4117.64 1685.56 4143.64 1845.56 4168.64 1685.56 4193.64 1899.56 4219.64 1810.56 4244.64 1756.56 4269.64 1685.56 4295.64 1595.55 4320.64 1738.56 4346.64 1631.55 4371.64 1792.56 4396.64 1720.56 4422.65 1613.55 4447.65 1810.56 4472.65 1845.56 4498.65 1774.56 4523.65 1578.55 4548.65 1827.56 4574.65 1649.55 4599.65 1738.56 4625.65 1702.56 4650.65 1720.56 4675.65 1667.55 4701.65 1702.56 4726.66 1774.56 4751.66 1453.5 4777.66 1649.55 4802.66 1720.56 4827.66 1702.56 4853.66 1613.55 4878.66 1738.56 4904.66 1845.56 4929.66 1774.56 4954.66 1917.56 4980.66 1792.56 5005.66 1578.55 5030.67 1792.56 5056.67 1845.56 5081.67 1685.56 5106.67 1774.56 5132.67 1702.56 5157.67 1720.56 5183.67 1756.56 5208.67 1702.56 5233.67 1756.56 5259.67 1917.56 5284.67 1631.55 5309.67 1899.56 5335.68 1685.56 5360.68 1774.56 5385.68 1631.55 5411.68 1774.56 5436.68 1774.56 5462.68 1756.56 5487.68 1792.56 5512.68 1720.56 5538.68 1738.56 5563.68 1845.56 5588.68 1774.56 5614.68 1738.56 5639.69 1649.55 5664.69 1702.56 5690.69 1578.55 5715.69 1810.56 5741.69 1702.56 5766.69 1899.56 5791.69 1649.55 5817.69 1685.56 5842.69 1613.55 5867.69 1685.56 5893.69 1774.56 5918.69 1720.56 5943.7 1827.56 5969.7 1863.56 5994.7 1881.56 6020.7 1578.55 6045.5 1738.56" stroke="#E97132" stroke-width="4.58333" stroke-linecap="round" stroke-linejoin="round" stroke-miterlimit="10" fill="none"/></g><g><path d="M3534.5 2184.57 3559.62 2131.57 3585.62 2220.57 3610.62 2345.5 3635.62 2042.57 3661.62 2220.57 3686.62 2006.57 3711.62 1988.57 3737.62 1774.56 3762.62 2006.57 3787.62 1988.57 3813.63 1934.56 3838.63 1792.56 3864.63 1720.56 3889.63 1988.57 3914.63 1702.56 3940.63 1667.55 3965.63 1988.57 3990.63 1613.55 4016.63 1649.55 4041.63 1524.55 4067.63 1685.56 4092.63 1595.55 4117.64 1685.56 4143.64 1720.56 4168.64 1488.55 4193.64 1810.56 4219.64 1667.55 4244.64 1631.55 4269.64 1595.55 4295.64 1488.55 4320.64 1524.55 4346.64 1560.55 4371.64 1506.55 4396.64 1310.54 4422.65 1453.55 4447.65 1470.55 4472.65 1506.55 4498.65 1435.55 4523.65 1488.55 4548.65 1595.55 4574.65 1399.55 4599.65 1417.55 4625.65 1417.55 4650.65 1399.55 4675.65 1453.55 4701.65 1417.55 4726.66 1363.54 4751.66 1381.55 4777.66 1506.55 4802.66 1363.54 4827.66 1560.55 4853.66 1292.54 4878.66 1399.55 4904.66 1542.55 4929.66 1488.55 4954.66 1417.55 4980.66 1381.55 5005.66 1435.55 5030.67 1578.55 5056.67 1488.55 5081.67 1399.55 5106.67 1399.55 5132.67 1256.54 5157.67 1381.55 5183.67 1363.54 5208.67 1453.55 5233.67 1310.54 5259.67 1435.55 5284.67 1346.54 5309.67 1310.54 5335.68 1328.54 5360.68 1488.55 5385.68 1470.55 5411.68 1453.55 5436.68 1381.55 5462.68 1560.55 5487.68 1363.54 5512.68 1417.55 5538.68 1274.54 5563.68 1363.54 5588.68 1346.54 5614.68 1453.55 5639.69 1381.55 5664.69 1435.55 5690.69 1381.55 5715.69 1363.54 5741.69 1435.55 5766.69 1470.55 5791.69 1328.54 5817.69 1238.54 5842.69 1203.54 5867.69 1114.5 5893.69 1310.54 5918.69 1506.55 5943.7 1274.54 5969.7 1185.54 5994.7 1346.54 6020.7 1185.54 6045.5 1274.54" stroke="#0F9ED5" stroke-width="4.58333" stroke-linecap="round" stroke-linejoin="round" stroke-miterlimit="10" fill="none"/></g><g><text font-family="Arial,Arial_MSFontService,sans-serif" font-weight="400" font-size="64" transform="matrix(1 0 0 1 3395.22 2385)">86</text></g><g><text font-family="Arial,Arial_MSFontService,sans-serif" font-weight="400" font-size="64" transform="matrix(1 0 0 1 3341.71 2244)">86.2</text></g><g><text font-family="Arial,Arial_MSFontService,sans-serif" font-weight="400" font-size="64" transform="matrix(1 0 0 1 3341.71 2104)">86.4</text></g><g><text font-family="Arial,Arial_MSFontService,sans-serif" font-weight="400" font-size="64" transform="matrix(1 0 0 1 3341.71 1964)">86.6</text></g><g><text font-family="Arial,Arial_MSFontService,sans-serif" font-weight="400" font-size="64" transform="matrix(1 0 0 1 3341.71 1824)">86.8</text></g><g><text font-family="Arial,Arial_MSFontService,sans-serif" font-weight="400" font-size="64" transform="matrix(1 0 0 1 3395.22 1683)">87</text></g><g><text font-family="Arial,Arial_MSFontService,sans-serif" font-weight="400" font-size="64" transform="matrix(1 0 0 1 3341.71 1543)">87.2</text></g><g><text font-family="Arial,Arial_MSFontService,sans-serif" font-weight="400" font-size="64" transform="matrix(1 0 0 1 3341.71 1403)">87.4</text></g><g><text font-family="Arial,Arial_MSFontService,sans-serif" font-weight="400" font-size="64" transform="matrix(1 0 0 1 3341.71 1263)">87.6</text></g><g><text font-family="Arial,Arial_MSFontService,sans-serif" font-weight="400" font-size="64" transform="matrix(1 0 0 1 3341.71 1123)">87.8</text></g><g><text font-family="Arial,Arial_MSFontService,sans-serif" font-weight="400" font-size="64" transform="matrix(1 0 0 1 3395.22 982)">88</text></g><g><text font-family="Arial,Arial_MSFontService,sans-serif" font-weight="400" font-size="64" transform="matrix(1 0 0 1 3480.95 2461)">201</text></g><g><text font-family="Arial,Arial_MSFontService,sans-serif" font-weight="400" font-size="64" transform="matrix(1 0 0 1 3759.96 2461)">212</text></g><g><text font-family="Arial,Arial_MSFontService,sans-serif" font-weight="400" font-size="64" transform="matrix(1 0 0 1 4038.98 2461)">223</text></g><g><text font-family="Arial,Arial_MSFontService,sans-serif" font-weight="400" font-size="64" transform="matrix(1 0 0 1 4317.99 2461)">234</text></g><g><text font-family="Arial,Arial_MSFontService,sans-serif" font-weight="400" font-size="64" transform="matrix(1 0 0 1 4597.01 2461)">245</text></g><g><text font-family="Arial,Arial_MSFontService,sans-serif" font-weight="400" font-size="64" transform="matrix(1 0 0 1 4876.02 2461)">256</text></g><g><text font-family="Arial,Arial_MSFontService,sans-serif" font-weight="400" font-size="64" transform="matrix(1 0 0 1 5155.04 2461)">267</text></g><g><text font-family="Arial,Arial_MSFontService,sans-serif" font-weight="400" font-size="64" transform="matrix(1 0 0 1 5434.05 2461)">278</text></g><g><text font-family="Arial,Arial_MSFontService,sans-serif" font-weight="400" font-size="64" transform="matrix(1 0 0 1 5713.06 2461)">289</text></g><g><text font-family="Arial,Arial_MSFontService,sans-serif" font-weight="400" font-size="64" transform="matrix(1 0 0 1 5992.08 2461)">300</text></g><g><text font-family="Arial,Arial_MSFontService,sans-serif" font-weight="700" font-size="64" transform="matrix(6.12323e-17 -1 1 6.12323e-17 3314.16 1946)">Test Accuracy @ 1</text></g><g><text font-family="Arial,Arial_MSFontService,sans-serif" font-weight="700" font-size="64" transform="matrix(1 0 0 1 4692.01 2549)">Epoch</text></g><g><g><text font-family="Arial,Arial_MSFontService,sans-serif" font-weight="700" font-size="77" transform="matrix(1 0 0 1 4216.63 880)">MobileNetV2: Imagewoof</text></g></g><g><path d="M3545.5 2661.5 3633.5 2661.5" stroke="#E97132" stroke-width="4.58333" stroke-linecap="round" stroke-linejoin="round" stroke-miterlimit="10" fill="none" fill-rule="evenodd"/></g><g><text font-family="Arial,Arial_MSFontService,sans-serif" font-weight="400" font-size="50" transform="matrix(1 0 0 1 3642.66 2678)">Imagewoof - MobileNetV2 - Base+100</text></g><g><path d="M4651.5 2661.5 4739.5 2661.5" stroke="#0F9ED5" stroke-width="4.58333" stroke-linecap="round" stroke-linejoin="round" stroke-miterlimit="10" fill="none" fill-rule="evenodd"/></g><g><text font-family="Arial,Arial_MSFontService,sans-serif" font-weight="400" font-size="50" transform="matrix(1 0 0 1 4748.84 2678)">Imagewoof - MobileNetV2 - AugmentNoisy+100</text></g><rect x="3197.5" y="773.5" width="2951" height="1957" stroke="#898989" stroke-width="4.58333" stroke-linejoin="round" stroke-miterlimit="10" fill="none"/></g></svg>