<svg width="3123" height="1962" xmlns="http://www.w3.org/2000/svg" xmlns:xlink="http://www.w3.org/1999/xlink" xml:space="preserve" overflow="hidden"><defs><clipPath id="clip0"><rect x="3361" y="771" width="3123" height="1962"/></clipPath></defs><g clip-path="url(#clip0)" transform="translate(-3361 -771)"><rect x="3363" y="773" width="3118" height="1957" fill="#FFFFFF"/><g><rect x="3635" y="962" width="2750" height="1326" fill="#FFFFFF"/></g><g><path d="M3634.5 2098.57 6384.5 2098.57M3634.5 1909.56 6384.5 1909.56M3634.5 1719.56 6384.5 1719.56M3634.5 1530.55 6384.5 1530.55M3634.5 1340.54 6384.5 1340.54M3634.5 1151.54 6384.5 1151.54M3634.5 961.5 6384.5 961.5" stroke="#D9D9D9" stroke-width="3.4375" stroke-linejoin="round" stroke-miterlimit="10" fill="none"/></g><g><path d="M3634.5 2288.5 6384.5 2288.5" stroke="#D9D9D9" stroke-width="3.4375" stroke-linejoin="round" stroke-miterlimit="10" fill="none" fill-rule="evenodd"/></g><g><path d="M3641.5 2263.5 3655.62 2253.57 3668.62 2183.57 3682.62 2198.57 3696.62 2195.57 3709.62 2172.57 3723.62 2117.57 3737.62 2184.57 3751.62 2131.57 3764.62 2057.57 3778.62 2069.57 3792.62 2014.57 3805.62 2000.57 3819.63 2008.57 3833.63 1994.57 3846.63 1903.56 3860.63 1882.56 3874.63 1846.56 3887.63 1824.56 3901.63 1904.56 3915.63 1772.56 3928.63 1812.56 3942.63 1777.56 3956.63 1685.56 3969.63 1756.56 3983.63 1743.56 3997.63 1706.56 4010.63 1709.56 4024.63 1610.55 4038.63 1573.55 4051.63 1653.55 4065.63 1520.55 4079.63 1587.55 4093.63 1503.55 4106.63 1482.55 4120.64 1486.55 4134.64 1453.55 4147.64 1604.55 4161.64 1429.55 4175.64 1448.55 4188.64 1413.55 4202.64 1476.55 4216.64 1385.55 4229.64 1405.55 4243.64 1458.55 4257.64 1343.54 4270.64 1469.55 4284.64 1422.55 4298.64 1360.54 4311.64 1336.54 4325.64 1318.54 4339.64 1333.54 4352.64 1297.54 4366.64 1309.54 4380.64 1311.54 4394.64 1322.54 4407.64 1392.55 4421.65 1349.54 4435.65 1284.54 4448.65 1392.55 4462.65 1270.54 4476.65 1350.54 4489.65 1264.54 4503.65 1258.54 4517.65 1263.54 4530.65 1326.54 4544.65 1279.54 4558.65 1305.54 4571.65 1293.54 4585.65 1274.54 4599.65 1309.54 4612.65 1296.54 4626.65 1341.54 4640.65 1319.54 4653.65 1322.54 4667.65 1316.54 4681.65 1363.54 4694.65 1329.54 4708.65 1287.54 4722.66 1237.54 4736.66 1298.54 4749.66 1293.54 4763.66 1254.54 4777.66 1263.54 4790.66 1251.54 4804.66 1245.54 4818.66 1275.54 4831.66 1323.54 4845.66 1281.54 4859.66 1289.54 4872.66 1236.54 4886.66 1274.54 4900.66 1353.54 4913.66 1276.54 4927.66 1220.54 4941.66 1248.54 4954.66 1263.54 4968.66 1245.54 4982.66 1282.54 4995.66 1200.54 5009.66 1082.54 5023.67 1072.54 5036.67 1066.54 5050.67 1058.53 5064.67 1059.53 5078.67 1062.54 5091.67 1061.54 5105.67 1060.53 5119.67 1059.53 5132.67 1052.53 5146.67 1057.53 5160.67 1063.54 5173.67 1059.53 5187.67 1058.53 5201.67 1060.53 5214.67 1055.53 5228.67 1062.54 5242.67 1058.53 5255.67 1056.53 5269.67 1058.53 5283.67 1056.53 5296.67 1059.53 5310.67 1062.54 5324.67 1057.53 5337.68 1061.54 5351.68 1065.54 5365.68 1051.5 5378.68 1054.53 5392.68 1056.53 5406.68 1059.53 5420.68 1061.54 5433.68 1058.53 5447.68 1058.53 5461.68 1057.53 5474.68 1060.53 5488.68 1061.54 5502.68 1057.53 5515.68 1052.53 5529.68 1060.53 5543.68 1060.53 5556.68 1064.54 5570.68 1059.53 5584.68 1063.54 5597.68 1053.53 5611.68 1061.54 5625.68 1061.54 5638.69 1063.54 5652.69 1062.54 5666.69 1070.54 5679.69 1068.54 5693.69 1060.53 5707.69 1057.53 5721.69 1060.53 5734.69 1058.53 5748.69 1057.53 5762.69 1058.53 5775.69 1059.53 5789.69 1054.53 5803.69 1054.53 5816.69 1060.53 5830.69 1056.53 5844.69 1058.53 5857.69 1059.53 5871.69 1059.53 5885.69 1057.53 5898.69 1058.53 5912.69 1061.54 5926.69 1062.54 5939.7 1064.54 5953.7 1060.53 5967.7 1058.53 5980.7 1059.53 5994.7 1061.54 6008.7 1061.54 6021.7 1057.53 6035.7 1059.53 6049.7 1060.53 6063.7 1057.53 6076.7 1053.53 6090.7 1060.53 6104.7 1061.54 6117.7 1054.53 6131.7 1060.53 6145.7 1057.53 6158.7 1058.53 6172.7 1058.53 6186.7 1058.53 6199.7 1060.53 6213.7 1057.53 6227.7 1053.53 6240.71 1056.53 6254.71 1054.53 6268.71 1058.53 6281.71 1057.53 6295.71 1056.53 6309.71 1058.53 6322.71 1055.53 6336.71 1053.53 6350.71 1057.53 6363.71 1059.53 6377.5 1058.53" stroke="#E97132" stroke-width="4.58333" stroke-linecap="round" stroke-linejoin="round" stroke-miterlimit="10" fill="none"/></g><g><path d="M3641.5 2226.5 3655.62 2202.57 3668.62 2173.57 3682.62 2119.57 3696.62 2159.57 3709.62 2072.57 3723.62 1973.56 3737.62 1929.56 3751.62 1898.56 3764.62 1902.56 3778.62 1898.56 3792.62 1734.56 3805.62 1787.56 3819.63 1704.56 3833.63 1769.56 3846.63 1718.56 3860.63 1637.55 3874.63 1680.56 3887.63 1578.55 3901.63 1569.55 3915.63 1545.55 3928.63 1571.55 3942.63 1476.55 3956.63 1542.55 3969.63 1475.55 3983.63 1427.55 3997.63 1457.55 4010.63 1408.55 4024.63 1426.55 4038.63 1439.55 4051.63 1402.55 4065.63 1394.55 4079.63 1416.55 4093.63 1454.55 4106.63 1339.54 4120.64 1350.54 4134.64 1424.55 4147.64 1345.54 4161.64 1382.55 4175.64 1396.55 4188.64 1359.54 4202.64 1335.54 4216.64 1348.54 4229.64 1393.55 4243.64 1341.54 4257.64 1316.54 4270.64 1368.55 4284.64 1302.54 4298.64 1300.54 4311.64 1349.54 4325.64 1355.54 4339.64 1293.54 4352.64 1282.54 4366.64 1275.54 4380.64 1265.54 4394.64 1289.54 4407.64 1295.54 4421.65 1302.54 4435.65 1311.54 4448.65 1260.54 4462.65 1377.55 4476.65 1303.54 4489.65 1332.54 4503.65 1276.54 4517.65 1263.54 4530.65 1249.54 4544.65 1262.54 4558.65 1285.54 4571.65 1319.54 4585.65 1248.54 4599.65 1290.54 4612.65 1321.54 4626.65 1270.54 4640.65 1282.54 4653.65 1350.54 4667.65 1263.54 4681.65 1297.54 4694.65 1308.54 4708.65 1267.54 4722.66 1284.54 4736.66 1276.54 4749.66 1308.54 4763.66 1244.54 4777.66 1248.54 4790.66 1262.54 4804.66 1290.54 4818.66 1242.54 4831.66 1264.54 4845.66 1347.54 4859.66 1297.54 4872.66 1283.54 4886.66 1337.54 4900.66 1295.54 4913.66 1312.54 4927.66 1237.54 4941.66 1265.54 4954.66 1295.54 4968.66 1263.54 4982.66 1307.54 4995.66 1294.54 5009.66 1058.53 5023.67 1041.53 5036.67 1033.53 5050.67 1036.53 5064.67 1031.53 5078.67 1033.53 5091.67 1022.53 5105.67 1030.53 5119.67 1028.53 5132.67 1031.53 5146.67 1024.53 5160.67 1026.53 5173.67 1034.53 5187.67 1027.53 5201.67 1027.53 5214.67 1036.53 5228.67 1020.5 5242.67 1030.53 5255.67 1037.53 5269.67 1035.53 5283.67 1035.53 5296.67 1038.53 5310.67 1032.53 5324.67 1027.53 5337.68 1030.53 5351.68 1038.53 5365.68 1031.53 5378.68 1038.53 5392.68 1046.53 5406.68 1045.53 5420.68 1042.53 5433.68 1039.53 5447.68 1048.53 5461.68 1034.53 5474.68 1052.53 5488.68 1054.53 5502.68 1038.53 5515.68 1043.53 5529.68 1049.53 5543.68 1061.54 5556.68 1058.53 5570.68 1052.53 5584.68 1050.53 5597.68 1053.53 5611.68 1056.53 5625.68 1041.53 5638.69 1045.53 5652.69 1055.53 5666.69 1043.53 5679.69 1044.53 5693.69 1036.53 5707.69 1031.53 5721.69 1033.53 5734.69 1039.53 5748.69 1031.53 5762.69 1033.53 5775.69 1028.53 5789.69 1032.53 5803.69 1034.53 5816.69 1025.53 5830.69 1028.53 5844.69 1028.53 5857.69 1035.53 5871.69 1033.53 5885.69 1031.53 5898.69 1027.53 5912.69 1026.53 5926.69 1030.53 5939.7 1031.53 5953.7 1034.53 5967.7 1027.53 5980.7 1025.53 5994.7 1027.53 6008.7 1021.53 6021.7 1025.53 6035.7 1032.53 6049.7 1023.53 6063.7 1028.53 6076.7 1034.53 6090.7 1031.53 6104.7 1030.53 6117.7 1029.53 6131.7 1033.53 6145.7 1030.53 6158.7 1031.53 6172.7 1027.53 6186.7 1028.53 6199.7 1033.53 6213.7 1030.53 6227.7 1034.53 6240.71 1028.53 6254.71 1030.53 6268.71 1034.53 6281.71 1031.53 6295.71 1032.53 6309.71 1026.53 6322.71 1033.53 6336.71 1037.53 6350.71 1025.53 6363.71 1030.53 6377.5 1033.53" stroke="#0F9ED5" stroke-width="4.58333" stroke-linecap="round" stroke-linejoin="round" stroke-miterlimit="10" fill="none"/></g><g><path d="M3641.5 2258.5 3655.62 2247.57 3668.62 2241.57 3682.62 2214.57 3696.62 2207.57 3709.62 2191.57 3723.62 2165.57 3737.62 2202.57 3751.62 2206.57 3764.62 2222.57 3778.62 2187.57 3792.62 2146.57 3805.62 2169.57 3819.63 2166.57 3833.63 2157.57 3846.63 2164.57 3860.63 2139.57 3874.63 2164.57 3887.63 2092.57 3901.63 2170.57 3915.63 2075.57 3928.63 2155.57 3942.63 2117.57 3956.63 2046.57 3969.63 2055.57 3983.63 2054.57 3997.63 2060.57 4010.63 2138.57 4024.63 2128.57 4038.63 2086.57 4051.63 2071.57 4065.63 2048.57 4079.63 2078.57 4093.63 2088.57 4106.63 2068.57 4120.64 2088.57 4134.64 2032.57 4147.64 2096.57 4161.64 2092.57 4175.64 2029.57 4188.64 2048.57 4202.64 2047.57 4216.64 2033.57 4229.64 2035.57 4243.64 2060.57 4257.64 2068.57 4270.64 2009.57 4284.64 2064.57 4298.64 2096.57 4311.64 1967.56 4325.64 1979.57 4339.64 2041.57 4352.64 2076.57 4366.64 2110.57 4380.64 2047.57 4394.64 2023.57 4407.64 2059.57 4421.65 2058.57 4435.65 2021.57 4448.65 2052.57 4462.65 2049.57 4476.65 2056.57 4489.65 1997.57 4503.65 1997.57 4517.65 2046.57 4530.65 2039.57 4544.65 2007.57 4558.65 2031.57 4571.65 2017.57 4585.65 2011.57 4599.65 2064.57 4612.65 2040.57 4626.65 1983.57 4640.65 2047.57 4653.65 2043.57 4667.65 2050.57 4681.65 2054.57 4694.65 2006.57 4708.65 2042.57 4722.66 2015.57 4736.66 2022.57 4749.66 2042.57 4763.66 2000.57 4777.66 2008.57 4790.66 2033.57 4804.66 2020.57 4818.66 2070.57 4831.66 2005.57 4845.66 2024.57 4859.66 2007.57 4872.66 2036.57 4886.66 2025.57 4900.66 2021.57 4913.66 2042.57 4927.66 2019.57 4941.66 2022.57 4954.66 2043.57 4968.66 2032.57 4982.66 2063.57 4995.66 2036.57 5009.66 1967.56 5023.67 1972.56 5036.67 1987.57 5050.67 1972.56 5064.67 1966.56 5078.67 1994.57 5091.67 1967.56 5105.67 1975.57 5119.67 1968.56 5132.67 1984.57 5146.67 1977.57 5160.67 1982.57 5173.67 1974.56 5187.67 1964.56 5201.67 1977.57 5214.67 1979.57 5228.67 1966.56 5242.67 1962.5 5255.67 1966.56 5269.67 1988.57 5283.67 1971.56 5296.67 1968.56 5310.67 1972.56 5324.67 1979.57 5337.68 1965.56 5351.68 1972.56 5365.68 1980.57 5378.68 1966.56 5392.68 1974.56 5406.68 1996.57 5420.68 1981.57 5433.68 1980.57 5447.68 1979.57 5461.68 1980.57 5474.68 1970.56 5488.68 1978.57 5502.68 1987.57 5515.68 1991.57 5529.68 1975.57 5543.68 1981.57 5556.68 1967.56 5570.68 1980.57 5584.68 1963.56 5597.68 1992.57 5611.68 1982.57 5625.68 1988.57 5638.69 1988.57 5652.69 1993.57 5666.69 1980.57 5679.69 1975.57 5693.69 1980.57 5707.69 1982.57 5721.69 1982.57 5734.69 1981.57 5748.69 1982.57 5762.69 1980.57 5775.69 1979.57 5789.69 1978.57 5803.69 1974.56 5816.69 1978.57 5830.69 1977.57 5844.69 1983.57 5857.69 1972.56 5871.69 1973.56 5885.69 1976.57 5898.69 1975.57 5912.69 1982.57 5926.69 1978.57 5939.7 1979.57 5953.7 1973.56 5967.7 1978.57 5980.7 1973.56 5994.7 1974.56 6008.7 1972.56 6021.7 1979.57 6035.7 1972.56 6049.7 1978.57 6063.7 1975.57 6076.7 1976.57 6090.7 1974.56 6104.7 1985.57 6117.7 1983.57 6131.7 1982.57 6145.7 1978.57 6158.7 1978.57 6172.7 1978.57 6186.7 1966.56 6199.7 1971.56 6213.7 1970.56 6227.7 1964.56 6240.71 1977.57 6254.71 1976.57 6268.71 1974.56 6281.71 1980.57 6295.71 1977.57 6309.71 1973.56 6322.71 1976.57 6336.71 1977.57 6350.71 1970.56 6363.71 1972.56 6377.5 1979.57" stroke="#4EA72E" stroke-width="4.58333" stroke-linecap="round" stroke-linejoin="round" stroke-miterlimit="10" fill="none"/></g><g><text font-family="Arial,Arial_MSFontService,sans-serif" font-weight="400" font-size="64" transform="matrix(1 0 0 1 3543.98 2308)">0</text></g><g><text font-family="Arial,Arial_MSFontService,sans-serif" font-weight="400" font-size="64" transform="matrix(1 0 0 1 3508.29 2119)">10</text></g><g><text font-family="Arial,Arial_MSFontService,sans-serif" font-weight="400" font-size="64" transform="matrix(1 0 0 1 3508.29 1929)">20</text></g><g><text font-family="Arial,Arial_MSFontService,sans-serif" font-weight="400" font-size="64" transform="matrix(1 0 0 1 3508.29 1740)">30</text></g><g><text font-family="Arial,Arial_MSFontService,sans-serif" font-weight="400" font-size="64" transform="matrix(1 0 0 1 3508.29 1551)">40</text></g><g><text font-family="Arial,Arial_MSFontService,sans-serif" font-weight="400" font-size="64" transform="matrix(1 0 0 1 3508.29 1361)">50</text></g><g><text font-family="Arial,Arial_MSFontService,sans-serif" font-weight="400" font-size="64" transform="matrix(1 0 0 1 3508.29 1172)">60</text></g><g><text font-family="Arial,Arial_MSFontService,sans-serif" font-weight="400" font-size="64" transform="matrix(1 0 0 1 3508.29 982)">70</text></g><g><text font-family="Arial,Arial_MSFontService,sans-serif" font-weight="400" font-size="64" transform="matrix(1 0 0 1 3623.86 2385)">0</text></g><g><text font-family="Arial,Arial_MSFontService,sans-serif" font-weight="400" font-size="64" transform="matrix(1 0 0 1 3879.64 2385)">20</text></g><g><text font-family="Arial,Arial_MSFontService,sans-serif" font-weight="400" font-size="64" transform="matrix(1 0 0 1 4153.26 2385)">40</text></g><g><text font-family="Arial,Arial_MSFontService,sans-serif" font-weight="400" font-size="64" transform="matrix(1 0 0 1 4426.87 2385)">60</text></g><g><text font-family="Arial,Arial_MSFontService,sans-serif" font-weight="400" font-size="64" transform="matrix(1 0 0 1 4700.49 2385)">80</text></g><g><text font-family="Arial,Arial_MSFontService,sans-serif" font-weight="400" font-size="64" transform="matrix(1 0 0 1 4956.26 2385)">100</text></g><g><text font-family="Arial,Arial_MSFontService,sans-serif" font-weight="400" font-size="64" transform="matrix(1 0 0 1 5229.88 2385)">120</text></g><g><text font-family="Arial,Arial_MSFontService,sans-serif" font-weight="400" font-size="64" transform="matrix(1 0 0 1 5503.5 2385)">140</text></g><g><text font-family="Arial,Arial_MSFontService,sans-serif" font-weight="400" font-size="64" transform="matrix(1 0 0 1 5777.11 2385)">160</text></g><g><text font-family="Arial,Arial_MSFontService,sans-serif" font-weight="400" font-size="64" transform="matrix(1 0 0 1 6050.73 2385)">180</text></g><g><text font-family="Arial,Arial_MSFontService,sans-serif" font-weight="400" font-size="64" transform="matrix(1 0 0 1 6324.35 2385)">200</text></g><g><text font-family="Arial,Arial_MSFontService,sans-serif" font-weight="700" font-size="64" transform="matrix(6.12323e-17 -1 1 6.12323e-17 3480.75 1908)">Test Accuracy @ 1</text></g><g><text font-family="Arial,Arial_MSFontService,sans-serif" font-weight="700" font-size="64" transform="matrix(1 0 0 1 4911.76 2472)">Epoch</text></g><g><g><text font-family="Arial,Arial_MSFontService,sans-serif" font-weight="700" font-size="77" transform="matrix(1 0 0 1 4402.46 880)">MobileNetV2: Stanford Dogs</text></g></g><g><path d="M3555.5 2584.5 3643.5 2584.5" stroke="#E97132" stroke-width="4.58333" stroke-linecap="round" stroke-linejoin="round" stroke-miterlimit="10" fill="none" fill-rule="evenodd"/></g><g><text font-family="Arial,Arial_MSFontService,sans-serif" font-weight="400" font-size="50" transform="matrix(1 0 0 1 3652.99 2601)">Stanford Dogs - MobileNetV2 - Original</text></g><g><path d="M4936.5 2584.5 5024.5 2584.5" stroke="#0F9ED5" stroke-width="4.58333" stroke-linecap="round" stroke-linejoin="round" stroke-miterlimit="10" fill="none" fill-rule="evenodd"/></g><g><text font-family="Arial,Arial_MSFontService,sans-serif" font-weight="400" font-size="50" transform="matrix(1 0 0 1 5033.95 2601)">Stanford Dogs - MobileNetV2 - Original+Synthetic(Noisy)</text></g><g><path d="M3555.5 2668.5 3643.5 2668.5" stroke="#4EA72E" stroke-width="4.58333" stroke-linecap="round" stroke-linejoin="round" stroke-miterlimit="10" fill="none" fill-rule="evenodd"/></g><g><text font-family="Arial,Arial_MSFontService,sans-serif" font-weight="400" font-size="50" transform="matrix(1 0 0 1 3652.99 2685)">Stanford Dogs - MobileNetV2 - Synthetic</text></g><rect x="3363.5" y="773.5" width="3118" height="1957" stroke="#898989" stroke-width="4.58333" stroke-linejoin="round" stroke-miterlimit="10" fill="none"/></g></svg>