<svg width="2956" height="1962" xmlns="http://www.w3.org/2000/svg" xmlns:xlink="http://www.w3.org/1999/xlink" xml:space="preserve" overflow="hidden"><defs><clipPath id="clip0"><rect x="3195" y="771" width="2956" height="1962"/></clipPath></defs><g clip-path="url(#clip0)" transform="translate(-3195 -771)"><rect x="3197" y="773" width="2951" height="1957" fill="#FFFFFF"/><g><rect x="3522" y="962" width="2536" height="1402" fill="#FFFFFF"/></g><g><path d="M3521.5 2224.57 6058.5 2224.57M3521.5 2083.57 6058.5 2083.57M3521.5 1943.56 6058.5 1943.56M3521.5 1803.56 6058.5 1803.56M3521.5 1663.55 6058.5 1663.55M3521.5 1522.55 6058.5 1522.55M3521.5 1382.55 6058.5 1382.55M3521.5 1242.54 6058.5 1242.54M3521.5 1102.54 6058.5 1102.54M3521.5 961.5 6058.5 961.5" stroke="#D9D9D9" stroke-width="3.4375" stroke-linejoin="round" stroke-miterlimit="10" fill="none"/></g><g><path d="M3521.5 2364.5 6058.5 2364.5" stroke="#D9D9D9" stroke-width="3.4375" stroke-linejoin="round" stroke-miterlimit="10" fill="none" fill-rule="evenodd"/></g><g><path d="M3534.5 1443.55 3559.62 1514.55 3585.62 1622.55 3610.62 1443.55 3635.62 1407.55 3661.62 1300.54 3686.62 1586.55 3711.62 1443.55 3737.62 1514.55 3762.62 1300.54 3787.62 1479.55 3813.63 1300.54 3838.63 1229.54 3864.63 1371.55 3889.63 1407.55 3914.63 1300.54 3940.63 1622.55 3965.63 1479.55 3990.63 1264.54 4016.63 1229.54 4041.63 1371.55 4067.63 1300.54 4092.63 1300.54 4117.64 1336.54 4143.64 1229.54 4168.64 1371.55 4193.64 1550.55 4219.64 1407.55 4244.64 1443.55 4269.64 1407.55 4295.64 1479.55 4320.64 1443.55 4346.64 1479.55 4371.64 1336.54 4396.64 1514.55 4422.65 1622.55 4447.65 1229.54 4472.65 1193.54 4498.65 1086.5 4523.65 1300.54 4548.65 1300.54 4574.65 1121.54 4599.65 1514.55 4625.65 1550.55 4650.65 1550.55 4675.65 1407.55 4701.65 1371.55 4726.66 1586.55 4751.66 1479.55 4777.66 1407.55 4802.66 1371.55 4827.66 1550.55 4853.66 1479.55 4878.66 1157.54 4904.66 1371.55 4929.66 1371.55 4954.66 1407.55 4980.66 1264.54 5005.66 1300.54 5030.67 1086.5 5056.67 1229.54 5081.67 1550.55 5106.67 1229.54 5132.67 1371.55 5157.67 1336.54 5183.67 1443.55 5208.67 1229.54 5233.67 1514.55 5259.67 1443.55 5284.67 1264.54 5309.67 1229.54 5335.68 1336.54 5360.68 1336.54 5385.68 1336.54 5411.68 1443.55 5436.68 1443.55 5462.68 1229.54 5487.68 1229.54 5512.68 1229.54 5538.68 1300.54 5563.68 1193.54 5588.68 1657.55 5614.68 1229.54 5639.69 1550.55 5664.69 1693.56 5690.69 1371.55 5715.69 1264.54 5741.69 1443.55 5766.69 1586.55 5791.69 1371.55 5817.69 1193.54 5842.69 1300.54 5867.69 1229.54 5893.69 1443.55 5918.69 1443.55 5943.7 1514.55 5969.7 1729.5 5994.7 1657.55 6020.7 1336.54 6045.5 1550.55" stroke="#E97132" stroke-width="4.58333" stroke-linecap="round" stroke-linejoin="round" stroke-miterlimit="10" fill="none"/></g><g><path d="M3534.5 2336.5 3559.62 1872.56 3585.62 1907.56 3610.62 1836.56 3635.62 1872.56 3661.62 1836.56 3686.62 2015.57 3711.62 1836.56 3737.62 1907.56 3762.62 1872.56 3787.62 1764.56 3813.63 1943.56 3838.63 1443.55 3864.63 1693.56 3889.63 2050.57 3914.63 1550.55 3940.63 1836.56 3965.63 1872.56 3990.63 1622.55 4016.63 1657.55 4041.63 1764.56 4067.63 1693.56 4092.63 1729.56 4117.64 1550.55 4143.64 1586.55 4168.64 1657.55 4193.64 1550.55 4219.64 1764.56 4244.64 1657.55 4269.64 1443.55 4295.64 1693.56 4320.64 1514.55 4346.64 1407.55 4371.64 1800.56 4396.64 1800.56 4422.65 1693.56 4447.65 1586.55 4472.65 1657.55 4498.65 1693.56 4523.65 1586.55 4548.65 1693.56 4574.65 1800.56 4599.65 1800.56 4625.65 1622.55 4650.65 1657.55 4675.65 1764.56 4701.65 1479.55 4726.66 1443.55 4751.66 1693.56 4777.66 1622.55 4802.66 1550.55 4827.66 1514.55 4853.66 1586.55 4878.66 1336.54 4904.66 1550.55 4929.66 1514.55 4954.66 1622.55 4980.66 1622.55 5005.66 1622.55 5030.67 1300.5 5056.67 1764.56 5081.67 1657.55 5106.67 1622.55 5132.67 1550.55 5157.67 1586.55 5183.67 1800.56 5208.67 1550.55 5233.67 1586.55 5259.67 1622.55 5284.67 1586.55 5309.67 1622.55 5335.68 1622.55 5360.68 1586.55 5385.68 1657.55 5411.68 1336.54 5436.68 1693.56 5462.68 1729.56 5487.68 1479.55 5512.68 1407.55 5538.68 1729.56 5563.68 1479.55 5588.68 1586.55 5614.68 1479.55 5639.69 1657.55 5664.69 1443.55 5690.69 1657.55 5715.69 1514.55 5741.69 1764.56 5766.69 1479.55 5791.69 1586.55 5817.69 1764.56 5842.69 1443.55 5867.69 1550.55 5893.69 1657.55 5918.69 1622.55 5943.7 1693.56 5969.7 1729.56 5994.7 1479.55 6020.7 1300.5 6045.5 1764.56" stroke="#0F9ED5" stroke-width="4.58333" stroke-linecap="round" stroke-linejoin="round" stroke-miterlimit="10" fill="none"/></g><g><text font-family="Arial,Arial_MSFontService,sans-serif" font-weight="400" font-size="64" transform="matrix(1 0 0 1 3341.71 2385)">91.7</text></g><g><text font-family="Arial,Arial_MSFontService,sans-serif" font-weight="400" font-size="64" transform="matrix(1 0 0 1 3341.71 2244)">91.8</text></g><g><text font-family="Arial,Arial_MSFontService,sans-serif" font-weight="400" font-size="64" transform="matrix(1 0 0 1 3341.71 2104)">91.9</text></g><g><text font-family="Arial,Arial_MSFontService,sans-serif" font-weight="400" font-size="64" transform="matrix(1 0 0 1 3395.22 1964)">92</text></g><g><text font-family="Arial,Arial_MSFontService,sans-serif" font-weight="400" font-size="64" transform="matrix(1 0 0 1 3341.71 1824)">92.1</text></g><g><text font-family="Arial,Arial_MSFontService,sans-serif" font-weight="400" font-size="64" transform="matrix(1 0 0 1 3341.71 1683)">92.2</text></g><g><text font-family="Arial,Arial_MSFontService,sans-serif" font-weight="400" font-size="64" transform="matrix(1 0 0 1 3341.71 1543)">92.3</text></g><g><text font-family="Arial,Arial_MSFontService,sans-serif" font-weight="400" font-size="64" transform="matrix(1 0 0 1 3341.71 1403)">92.4</text></g><g><text font-family="Arial,Arial_MSFontService,sans-serif" font-weight="400" font-size="64" transform="matrix(1 0 0 1 3341.71 1263)">92.5</text></g><g><text font-family="Arial,Arial_MSFontService,sans-serif" font-weight="400" font-size="64" transform="matrix(1 0 0 1 3341.71 1123)">92.6</text></g><g><text font-family="Arial,Arial_MSFontService,sans-serif" font-weight="400" font-size="64" transform="matrix(1 0 0 1 3341.71 982)">92.7</text></g><g><text font-family="Arial,Arial_MSFontService,sans-serif" font-weight="400" font-size="64" transform="matrix(1 0 0 1 3480.95 2461)">201</text></g><g><text font-family="Arial,Arial_MSFontService,sans-serif" font-weight="400" font-size="64" transform="matrix(1 0 0 1 3759.96 2461)">212</text></g><g><text font-family="Arial,Arial_MSFontService,sans-serif" font-weight="400" font-size="64" transform="matrix(1 0 0 1 4038.98 2461)">223</text></g><g><text font-family="Arial,Arial_MSFontService,sans-serif" font-weight="400" font-size="64" transform="matrix(1 0 0 1 4317.99 2461)">234</text></g><g><text font-family="Arial,Arial_MSFontService,sans-serif" font-weight="400" font-size="64" transform="matrix(1 0 0 1 4597.01 2461)">245</text></g><g><text font-family="Arial,Arial_MSFontService,sans-serif" font-weight="400" font-size="64" transform="matrix(1 0 0 1 4876.02 2461)">256</text></g><g><text font-family="Arial,Arial_MSFontService,sans-serif" font-weight="400" font-size="64" transform="matrix(1 0 0 1 5155.04 2461)">267</text></g><g><text font-family="Arial,Arial_MSFontService,sans-serif" font-weight="400" font-size="64" transform="matrix(1 0 0 1 5434.05 2461)">278</text></g><g><text font-family="Arial,Arial_MSFontService,sans-serif" font-weight="400" font-size="64" transform="matrix(1 0 0 1 5713.06 2461)">289</text></g><g><text font-family="Arial,Arial_MSFontService,sans-serif" font-weight="400" font-size="64" transform="matrix(1 0 0 1 5992.08 2461)">300</text></g><g><text font-family="Arial,Arial_MSFontService,sans-serif" font-weight="700" font-size="64" transform="matrix(6.12323e-17 -1 1 6.12323e-17 3314.16 1946)">Test Accuracy @ 1</text></g><g><text font-family="Arial,Arial_MSFontService,sans-serif" font-weight="700" font-size="64" transform="matrix(1 0 0 1 4692.01 2549)">Epoch</text></g><g><g><text font-family="Arial,Arial_MSFontService,sans-serif" font-weight="700" font-size="77" transform="matrix(1 0 0 1 4214.45 880)">MobileNetV2: Imagenette</text></g></g><g><path d="M3539.5 2661.5 3627.5 2661.5" stroke="#E97132" stroke-width="4.58333" stroke-linecap="round" stroke-linejoin="round" stroke-miterlimit="10" fill="none" fill-rule="evenodd"/></g><g><text font-family="Arial,Arial_MSFontService,sans-serif" font-weight="400" font-size="50" transform="matrix(1 0 0 1 3636.65 2678)">Imagenette - MobileNetV2 - Base+100</text></g><g><path d="M4651.5 2661.5 4739.5 2661.5" stroke="#0F9ED5" stroke-width="4.58333" stroke-linecap="round" stroke-linejoin="round" stroke-miterlimit="10" fill="none" fill-rule="evenodd"/></g><g><text font-family="Arial,Arial_MSFontService,sans-serif" font-weight="400" font-size="50" transform="matrix(1 0 0 1 4749.22 2678)">Imagenette - MobileNetV2 - AugmentNoisy+100</text></g><rect x="3197.5" y="773.5" width="2951" height="1957" stroke="#898989" stroke-width="4.58333" stroke-linejoin="round" stroke-miterlimit="10" fill="none"/></g></svg>