<svg width="2956" height="1962" xmlns="http://www.w3.org/2000/svg" xmlns:xlink="http://www.w3.org/1999/xlink" xml:space="preserve" overflow="hidden"><defs><clipPath id="clip0"><rect x="3195" y="771" width="2956" height="1962"/></clipPath></defs><g clip-path="url(#clip0)" transform="translate(-3195 -771)"><rect x="3197" y="773" width="2951" height="1957" fill="#FFFFFF"/><g><rect x="3522" y="962" width="2536" height="1402" fill="#FFFFFF"/></g><g><path d="M3521.5 2083.57 6058.5 2083.57M3521.5 1803.56 6058.5 1803.56M3521.5 1522.55 6058.5 1522.55M3521.5 1242.54 6058.5 1242.54M3521.5 961.5 6058.5 961.5" stroke="#D9D9D9" stroke-width="3.4375" stroke-linejoin="round" stroke-miterlimit="10" fill="none"/></g><g><path d="M3521.5 2364.5 6058.5 2364.5" stroke="#D9D9D9" stroke-width="3.4375" stroke-linejoin="round" stroke-miterlimit="10" fill="none" fill-rule="evenodd"/></g><g><path d="M3534.5 1970.56 3559.62 2013.57 3585.62 1999.57 3610.62 2056.57 3635.62 1870.56 3661.62 2027.57 3686.62 1913.56 3711.62 1956.56 3737.62 2027.57 3762.62 1942.56 3787.62 1913.56 3813.63 1842.5 3838.63 1970.56 3864.63 1956.56 3889.63 1970.56 3914.63 1884.56 3940.63 1984.57 3965.63 1956.56 3990.63 2042.57 4016.63 1970.56 4041.63 2027.57 4067.63 1942.56 4092.63 2056.57 4117.64 2042.57 4143.64 1927.56 4168.64 1942.56 4193.64 1999.57 4219.64 1956.56 4244.64 2127.5 4269.64 2013.57 4295.64 1956.56 4320.64 1956.56 4346.64 1927.56 4371.64 2027.57 4396.64 1927.56 4422.65 2027.57 4447.65 1942.56 4472.65 1913.56 4498.65 2084.57 4523.65 2070.57 4548.65 1956.56 4574.65 1999.57 4599.65 1942.56 4625.65 1984.57 4650.65 1942.56 4675.65 2070.57 4701.65 2013.57 4726.66 2084.57 4751.66 2013.57 4777.66 1984.57 4802.66 2056.57 4827.66 2056.57 4853.66 1984.57 4878.66 2099.57 4904.66 1956.56 4929.66 1913.56 4954.66 1984.57 4980.66 1984.57 5005.66 1999.57 5030.67 1970.56 5056.67 1956.56 5081.67 1999.57 5106.67 2042.57 5132.67 1984.57 5157.67 2084.57 5183.67 1956.56 5208.67 2084.57 5233.67 1884.56 5259.67 1884.56 5284.67 1899.56 5309.67 2027.57 5335.68 2027.57 5360.68 1999.57 5385.68 1942.56 5411.68 1970.56 5436.68 1884.56 5462.68 2027.57 5487.68 1927.56 5512.68 1899.56 5538.68 2042.57 5563.68 2013.57 5588.68 1970.56 5614.68 1970.56 5639.69 2013.57 5664.69 2027.57 5690.69 2027.57 5715.69 1984.57 5741.69 1927.56 5766.69 1970.56 5791.69 2027.57 5817.69 1913.56 5842.69 2084.57 5867.69 1999.57 5893.69 1999.57 5918.69 1999.57 5943.7 1942.56 5969.7 1999.57 5994.7 1942.56 6020.7 1856.56 6045.5 2070.57" stroke="#E97132" stroke-width="4.58333" stroke-linecap="round" stroke-linejoin="round" stroke-miterlimit="10" fill="none"/></g><g><path d="M3534.5 1570.55 3559.62 1656.5 3585.62 1627.55 3610.62 1599.55 3635.62 1513.55 3661.62 1470.55 3686.62 1428.55 3711.62 1470.55 3737.62 1342.54 3762.62 1385.55 3787.62 1342.54 3813.63 1399.55 3838.63 1242.54 3864.63 1285.54 3889.63 1356.54 3914.63 1271.54 3940.63 1328.54 3965.63 1299.54 3990.63 1299.54 4016.63 1271.54 4041.63 1271.54 4067.63 1313.54 4092.63 1199.54 4117.64 1228.54 4143.64 1328.54 4168.64 1199.54 4193.64 1328.54 4219.64 1242.54 4244.64 1285.54 4269.64 1171.54 4295.64 1213.54 4320.64 1142.54 4346.64 1142.54 4371.64 1213.54 4396.64 1213.54 4422.65 1171.54 4447.65 1199.54 4472.65 1213.54 4498.65 1056.53 4523.65 1199.54 4548.65 1171.54 4574.65 1185.54 4599.65 1171.54 4625.65 1142.54 4650.65 1128.54 4675.65 1156.54 4701.65 1171.54 4726.66 1099.54 4751.66 1213.54 4777.66 1142.54 4802.66 1199.54 4827.66 1042.5 4853.66 1128.54 4878.66 1114.54 4904.66 1199.54 4929.66 1156.54 4954.66 1228.54 4980.66 1099.54 5005.66 1142.54 5030.67 1171.54 5056.67 1171.54 5081.67 1213.54 5106.67 1213.54 5132.67 1228.54 5157.67 1156.54 5183.67 1256.54 5208.67 1171.54 5233.67 1271.54 5259.67 1199.54 5284.67 1128.54 5309.67 1085.54 5335.68 1099.54 5360.68 1185.54 5385.68 1256.54 5411.68 1128.54 5436.68 1128.54 5462.68 1156.54 5487.68 1071.54 5512.68 1171.54 5538.68 1185.54 5563.68 1213.54 5588.68 1213.54 5614.68 1156.54 5639.69 1114.54 5664.69 1156.54 5690.69 1171.54 5715.69 1042.5 5741.69 1299.54 5766.69 1199.54 5791.69 1056.53 5817.69 1114.54 5842.69 1271.54 5867.69 1085.54 5893.69 1142.54 5918.69 1128.54 5943.7 1099.54 5969.7 1171.54 5994.7 1156.54 6020.7 1256.54 6045.5 1156.54" stroke="#0F9ED5" stroke-width="4.58333" stroke-linecap="round" stroke-linejoin="round" stroke-miterlimit="10" fill="none"/></g><g><text font-family="Arial,Arial_MSFontService,sans-serif" font-weight="400" font-size="64" transform="matrix(1 0 0 1 3341.71 2385)">82.5</text></g><g><text font-family="Arial,Arial_MSFontService,sans-serif" font-weight="400" font-size="64" transform="matrix(1 0 0 1 3395.22 2104)">83</text></g><g><text font-family="Arial,Arial_MSFontService,sans-serif" font-weight="400" font-size="64" transform="matrix(1 0 0 1 3341.71 1824)">83.5</text></g><g><text font-family="Arial,Arial_MSFontService,sans-serif" font-weight="400" font-size="64" transform="matrix(1 0 0 1 3395.22 1543)">84</text></g><g><text font-family="Arial,Arial_MSFontService,sans-serif" font-weight="400" font-size="64" transform="matrix(1 0 0 1 3341.71 1263)">84.5</text></g><g><text font-family="Arial,Arial_MSFontService,sans-serif" font-weight="400" font-size="64" transform="matrix(1 0 0 1 3395.22 982)">85</text></g><g><text font-family="Arial,Arial_MSFontService,sans-serif" font-weight="400" font-size="64" transform="matrix(1 0 0 1 3480.95 2461)">201</text></g><g><text font-family="Arial,Arial_MSFontService,sans-serif" font-weight="400" font-size="64" transform="matrix(1 0 0 1 3759.96 2461)">212</text></g><g><text font-family="Arial,Arial_MSFontService,sans-serif" font-weight="400" font-size="64" transform="matrix(1 0 0 1 4038.98 2461)">223</text></g><g><text font-family="Arial,Arial_MSFontService,sans-serif" font-weight="400" font-size="64" transform="matrix(1 0 0 1 4317.99 2461)">234</text></g><g><text font-family="Arial,Arial_MSFontService,sans-serif" font-weight="400" font-size="64" transform="matrix(1 0 0 1 4597.01 2461)">245</text></g><g><text font-family="Arial,Arial_MSFontService,sans-serif" font-weight="400" font-size="64" transform="matrix(1 0 0 1 4876.02 2461)">256</text></g><g><text font-family="Arial,Arial_MSFontService,sans-serif" font-weight="400" font-size="64" transform="matrix(1 0 0 1 5155.04 2461)">267</text></g><g><text font-family="Arial,Arial_MSFontService,sans-serif" font-weight="400" font-size="64" transform="matrix(1 0 0 1 5434.05 2461)">278</text></g><g><text font-family="Arial,Arial_MSFontService,sans-serif" font-weight="400" font-size="64" transform="matrix(1 0 0 1 5713.06 2461)">289</text></g><g><text font-family="Arial,Arial_MSFontService,sans-serif" font-weight="400" font-size="64" transform="matrix(1 0 0 1 5992.08 2461)">300</text></g><g><text font-family="Arial,Arial_MSFontService,sans-serif" font-weight="700" font-size="64" transform="matrix(6.12323e-17 -1 1 6.12323e-17 3314.16 1946)">Test Accuracy @ 1</text></g><g><text font-family="Arial,Arial_MSFontService,sans-serif" font-weight="700" font-size="64" transform="matrix(1 0 0 1 4692.01 2549)">Epoch</text></g><g><g><text font-family="Arial,Arial_MSFontService,sans-serif" font-weight="700" font-size="77" transform="matrix(1 0 0 1 4272.18 880)">ResNet18: Imagewoof</text></g></g><g><path d="M3614.5 2661.5 3702.5 2661.5" stroke="#E97132" stroke-width="4.58333" stroke-linecap="round" stroke-linejoin="round" stroke-miterlimit="10" fill="none" fill-rule="evenodd"/></g><g><text font-family="Arial,Arial_MSFontService,sans-serif" font-weight="400" font-size="50" transform="matrix(1 0 0 1 3711.43 2678)">Imagewoof - ResNet18 - Base+100</text></g><g><path d="M4647.5 2661.5 4735.5 2661.5" stroke="#0F9ED5" stroke-width="4.58333" stroke-linecap="round" stroke-linejoin="round" stroke-miterlimit="10" fill="none" fill-rule="evenodd"/></g><g><text font-family="Arial,Arial_MSFontService,sans-serif" font-weight="400" font-size="50" transform="matrix(1 0 0 1 4744.55 2678)">Imagewoof - ResNet18 - AugmentNoisy+100</text></g><rect x="3197.5" y="773.5" width="2951" height="1957" stroke="#898989" stroke-width="4.58333" stroke-linejoin="round" stroke-miterlimit="10" fill="none"/></g></svg>