<svg width="3122" height="1962" xmlns="http://www.w3.org/2000/svg" xmlns:xlink="http://www.w3.org/1999/xlink" xml:space="preserve" overflow="hidden"><defs><clipPath id="clip0"><rect x="3658" y="771" width="3122" height="1962"/></clipPath></defs><g clip-path="url(#clip0)" transform="translate(-3658 -771)"><rect x="3660" y="773" width="3117" height="1957" fill="#FFFFFF"/><g><rect x="3931" y="962" width="2750" height="1326" fill="#FFFFFF"/></g><g><path d="M3931.5 2140.57 6680.5 2140.57M3931.5 1993.57 6680.5 1993.57M3931.5 1845.56 6680.5 1845.56M3931.5 1698.56 6680.5 1698.56M3931.5 1551.55 6680.5 1551.55M3931.5 1403.55 6680.5 1403.55M3931.5 1256.54 6680.5 1256.54M3931.5 1109.54 6680.5 1109.54M3931.5 961.5 6680.5 961.5" stroke="#D9D9D9" stroke-width="3.4375" stroke-linejoin="round" stroke-miterlimit="10" fill="none"/></g><g><path d="M3931.5 2288.5 6680.5 2288.5" stroke="#D9D9D9" stroke-width="3.4375" stroke-linejoin="round" stroke-miterlimit="10" fill="none" fill-rule="evenodd"/></g><g><path d="M3937.5 2211.5 3951.63 2017.57 3965.63 1971.56 3978.63 1849.56 3992.63 1801.56 4006.63 1726.56 4019.63 1783.56 4033.63 1703.56 4047.63 1564.55 4060.63 1587.55 4074.63 1487.55 4088.63 1394.55 4101.63 1368.55 4115.64 1372.55 4129.64 1375.55 4142.64 1328.54 4156.64 1360.54 4170.64 1494.55 4183.64 1428.55 4197.64 1276.54 4211.64 1240.54 4225.64 1269.54 4238.64 1291.54 4252.64 1276.54 4266.64 1221.54 4279.64 1222.54 4293.64 1245.54 4307.64 1221.54 4320.64 1217.54 4334.64 1234.54 4348.64 1200.54 4361.64 1282.54 4375.64 1209.54 4389.64 1243.54 4402.64 1279.54 4416.65 1289.54 4430.65 1160.54 4443.65 1185.54 4457.65 1297.54 4471.65 1186.54 4484.65 1194.54 4498.65 1389.55 4512.65 1253.54 4525.65 1190.54 4539.65 1142.54 4553.65 1145.54 4567.65 1175.54 4580.65 1160.54 4594.65 1144.54 4608.65 1145.54 4621.65 1143.54 4635.65 1156.54 4649.65 1131.54 4662.65 1172.54 4676.65 1161.54 4690.65 1147.54 4703.65 1172.54 4717.66 1121.54 4731.66 1208.54 4744.66 1140.54 4758.66 1111.54 4772.66 1165.54 4785.66 1140.54 4799.66 1103.54 4813.66 1127.54 4826.66 1143.54 4840.66 1107.54 4854.66 1129.54 4867.66 1176.54 4881.66 1160.54 4895.66 1162.54 4909.66 1155.54 4922.66 1128.54 4936.66 1110.54 4950.66 1136.54 4963.66 1186.54 4977.66 1119.54 4991.66 1188.54 5004.66 1100.54 5018.67 1120.54 5032.67 1137.54 5045.67 1110.54 5059.67 1095.54 5073.67 1122.54 5086.67 1112.54 5100.67 1127.54 5114.67 1128.54 5127.67 1105.54 5141.67 1082.54 5155.67 1123.54 5168.67 1128.54 5182.67 1095.54 5196.67 1113.54 5210.67 1159.54 5223.67 1124.54 5237.67 1119.54 5251.67 1092.54 5264.67 1094.54 5278.67 1106.54 5292.67 1108.54 5305.67 1050.53 5319.67 1044.53 5333.68 1049.53 5346.68 1042.53 5360.68 1043.53 5374.68 1047.53 5387.68 1046.53 5401.68 1042.53 5415.68 1048.53 5428.68 1042.53 5442.68 1039.53 5456.68 1043.53 5469.68 1046.53 5483.68 1048.53 5497.68 1043.53 5510.68 1042.53 5524.68 1046.53 5538.68 1041.53 5552.68 1045.53 5565.68 1049.53 5579.68 1045.53 5593.68 1043.53 5606.68 1044.53 5620.68 1042.53 5634.69 1042.53 5647.69 1042.53 5661.69 1044.53 5675.69 1043.53 5688.69 1042.53 5702.69 1041.53 5716.69 1039.53 5729.69 1040.53 5743.69 1040.53 5757.69 1041.53 5770.69 1038.53 5784.69 1053.53 5798.69 1039.53 5811.69 1037.53 5825.69 1038.53 5839.69 1044.53 5852.69 1045.53 5866.69 1042.53 5880.69 1038.53 5894.69 1037.53 5907.69 1042.53 5921.69 1042.53 5935.69 1042.53 5948.7 1039.53 5962.7 1041.53 5976.7 1043.53 5989.7 1038.53 6003.7 1039.53 6017.7 1039.53 6030.7 1039.53 6044.7 1037.53 6058.7 1038.53 6071.7 1036.53 6085.7 1040.53 6099.7 1039.53 6112.7 1036.53 6126.7 1038.53 6140.7 1041.53 6153.7 1038.53 6167.7 1037.53 6181.7 1038.53 6194.7 1038.53 6208.7 1038.53 6222.7 1039.53 6236.71 1040.53 6249.71 1040.53 6263.71 1038.53 6277.71 1038.53 6290.71 1039.53 6304.71 1039.53 6318.71 1036.53 6331.71 1038.53 6345.71 1038.53 6359.71 1038.53 6372.71 1038.53 6386.71 1036.53 6400.71 1038.53 6413.71 1037.53 6427.71 1036.53 6441.71 1039.53 6454.71 1038.53 6468.71 1038.53 6482.71 1038.53 6495.71 1037.53 6509.71 1040.53 6523.71 1040.53 6537.71 1039.53 6550.71 1041.53 6564.72 1038.53 6578.72 1039.53 6591.72 1037.53 6605.72 1038.53 6619.72 1033.5 6632.72 1036.53 6646.72 1039.53 6660.72 1038.53 6674.5 1036.53" stroke="#E97132" stroke-width="4.58333" stroke-linecap="round" stroke-linejoin="round" stroke-miterlimit="10" fill="none"/></g><g><path d="M3937.5 2107.5 3951.63 1918.56 3965.63 1702.56 3978.63 1717.56 3992.63 1543.55 4006.63 1460.55 4019.63 1384.55 4033.63 1417.55 4047.63 1451.55 4060.63 1328.54 4074.63 1300.54 4088.63 1429.55 4101.63 1280.54 4115.64 1250.54 4129.64 1217.54 4142.64 1228.54 4156.64 1247.54 4170.64 1228.54 4183.64 1218.54 4197.64 1225.54 4211.64 1295.54 4225.64 1219.54 4238.64 1202.54 4252.64 1186.54 4266.64 1219.54 4279.64 1217.54 4293.64 1261.54 4307.64 1145.54 4320.64 1170.54 4334.64 1185.54 4348.64 1249.54 4361.64 1138.54 4375.64 1141.54 4389.64 1122.54 4402.64 1110.54 4416.65 1121.54 4430.65 1225.54 4443.65 1149.54 4457.65 1106.54 4471.65 1223.54 4484.65 1157.54 4498.65 1159.54 4512.65 1138.54 4525.65 1118.54 4539.65 1171.54 4553.65 1123.54 4567.65 1167.54 4580.65 1109.54 4594.65 1155.54 4608.65 1130.54 4621.65 1125.54 4635.65 1113.54 4649.65 1089.54 4662.65 1095.54 4676.65 1106.54 4690.65 1165.54 4703.65 1103.54 4717.66 1106.54 4731.66 1124.54 4744.66 1109.54 4758.66 1127.54 4772.66 1133.54 4785.66 1108.54 4799.66 1085.54 4813.66 1088.54 4826.66 1143.54 4840.66 1085.54 4854.66 1125.54 4867.66 1109.54 4881.66 1094.54 4895.66 1089.54 4909.66 1092.54 4922.66 1110.54 4936.66 1116.54 4950.66 1074.54 4963.66 1068.54 4977.66 1086.54 4991.66 1075.54 5004.66 1071.54 5018.67 1108.54 5032.67 1250.54 5045.67 1083.54 5059.67 1136.54 5073.67 1094.54 5086.67 1100.54 5100.67 1077.54 5114.67 1107.54 5127.67 1065.54 5141.67 1106.54 5155.67 1107.54 5168.67 1085.54 5182.67 1125.54 5196.67 1097.54 5210.67 1098.54 5223.67 1101.54 5237.67 1074.54 5251.67 1084.54 5264.67 1071.54 5278.67 1066.54 5292.67 1154.54 5305.67 1023.53 5319.67 1023.53 5333.68 1015.53 5346.68 1019.53 5360.68 1016.53 5374.68 1017.53 5387.68 1016.53 5401.68 1017.53 5415.68 1018.53 5428.68 1022.53 5442.68 1021.53 5456.68 1016.53 5469.68 1020.53 5483.68 1021.53 5497.68 1020.53 5510.68 1019.53 5524.68 1020.53 5538.68 1018.53 5552.68 1028.53 5565.68 1021.53 5579.68 1020.53 5593.68 1015.53 5606.68 1015.53 5620.68 1020.53 5634.69 1017.53 5647.69 1019.53 5661.69 1015.53 5675.69 1014.53 5688.69 1016.53 5702.69 1018.53 5716.69 1017.53 5729.69 1018.53 5743.69 1014.53 5757.69 1009.5 5770.69 1017.53 5784.69 1015.53 5798.69 1018.53 5811.69 1010.53 5825.69 1020.53 5839.69 1015.53 5852.69 1017.53 5866.69 1018.53 5880.69 1018.53 5894.69 1010.53 5907.69 1014.53 5921.69 1014.53 5935.69 1017.53 5948.7 1013.53 5962.7 1018.53 5976.7 1017.53 5989.7 1013.53 6003.7 1013.53 6017.7 1014.53 6030.7 1014.53 6044.7 1014.53 6058.7 1011.53 6071.7 1012.53 6085.7 1012.53 6099.7 1015.53 6112.7 1014.53 6126.7 1014.53 6140.7 1012.53 6153.7 1013.53 6167.7 1015.53 6181.7 1014.53 6194.7 1012.53 6208.7 1012.53 6222.7 1012.53 6236.71 1014.53 6249.71 1016.53 6263.71 1015.53 6277.71 1012.53 6290.71 1015.53 6304.71 1016.53 6318.71 1017.53 6331.71 1016.53 6345.71 1013.53 6359.71 1015.53 6372.71 1015.53 6386.71 1013.53 6400.71 1018.53 6413.71 1015.53 6427.71 1014.53 6441.71 1014.53 6454.71 1017.53 6468.71 1014.53 6482.71 1014.53 6495.71 1014.53 6509.71 1015.53 6523.71 1014.53 6537.71 1016.53 6550.71 1015.53 6564.72 1015.53 6578.72 1017.53 6591.72 1016.53 6605.72 1015.53 6619.72 1012.53 6632.72 1014.53 6646.72 1012.53 6660.72 1013.53 6674.5 1011.53" stroke="#0F9ED5" stroke-width="4.58333" stroke-linecap="round" stroke-linejoin="round" stroke-miterlimit="10" fill="none"/></g><g><path d="M3937.5 2095.5 3951.63 1731.56 3965.63 1651.55 3978.63 1539.55 3992.63 1736.56 4006.63 1489.55 4019.63 1433.55 4033.63 1633.55 4047.63 1306.54 4060.63 1339.54 4074.63 1577.55 4088.63 1412.55 4101.63 1296.54 4115.64 1250.54 4129.64 1443.55 4142.64 1252.54 4156.64 1228.54 4170.64 1228.54 4183.64 1242.54 4197.64 1179.54 4211.64 1185.54 4225.64 1219.54 4238.64 1189.54 4252.64 1300.54 4266.64 1214.54 4279.64 1171.54 4293.64 1172.54 4307.64 1165.54 4320.64 1249.54 4334.64 1315.54 4348.64 1164.54 4361.64 1188.54 4375.64 1129.54 4389.64 1196.54 4402.64 1170.54 4416.65 1178.54 4430.65 1302.54 4443.65 1256.54 4457.65 1112.54 4471.65 1114.54 4484.65 1136.54 4498.65 1118.54 4512.65 1191.54 4525.65 1104.54 4539.65 1103.54 4553.65 1138.54 4567.65 1091.54 4580.65 1165.54 4594.65 1096.54 4608.65 1106.54 4621.65 1131.54 4635.65 1112.54 4649.65 1098.54 4662.65 1106.54 4676.65 1108.54 4690.65 1096.54 4703.65 1165.54 4717.66 1229.54 4731.66 1092.54 4744.66 1071.54 4758.66 1112.54 4772.66 1100.54 4785.66 1100.54 4799.66 1067.54 4813.66 1079.54 4826.66 1085.54 4840.66 1147.54 4854.66 1090.54 4867.66 1087.54 4881.66 1136.54 4895.66 1068.54 4909.66 1185.54 4922.66 1080.54 4936.66 1107.54 4950.66 1140.54 4963.66 1090.54 4977.66 1085.54 4991.66 1085.54 5004.66 1076.54 5018.67 1095.54 5032.67 1082.54 5045.67 1273.54 5059.67 1081.54 5073.67 1100.54 5086.67 1077.54 5100.67 1087.54 5114.67 1080.54 5127.67 1047.53 5141.67 1063.54 5155.67 1083.54 5168.67 1063.54 5182.67 1067.54 5196.67 1100.54 5210.67 1063.54 5223.67 1078.54 5237.67 1057.53 5251.67 1083.54 5264.67 1072.54 5278.67 1094.54 5292.67 1072.54 5305.67 1017.53 5319.67 1019.53 5333.68 1013.53 5346.68 1021.53 5360.68 1012.53 5374.68 1016.53 5387.68 1016.53 5401.68 1017.53 5415.68 1018.53 5428.68 1012.53 5442.68 1021.53 5456.68 1015.53 5469.68 1018.53 5483.68 1015.53 5497.68 1017.53 5510.68 1017.53 5524.68 1023.53 5538.68 1018.53 5552.68 1018.53 5565.68 1015.53 5579.68 1023.53 5593.68 1017.53 5606.68 1013.53 5620.68 1011.53 5634.69 1019.53 5647.69 1019.53 5661.69 1018.53 5675.69 1013.53 5688.69 1020.53 5702.69 1015.53 5716.69 1017.53 5729.69 1019.53 5743.69 1014.53 5757.69 1015.53 5770.69 1017.53 5784.69 1018.53 5798.69 1017.53 5811.69 1014.53 5825.69 1018.53 5839.69 1017.53 5852.69 1018.53 5866.69 1014.53 5880.69 1012.53 5894.69 1015.53 5907.69 1017.53 5921.69 1020.53 5935.69 1018.53 5948.7 1017.53 5962.7 1018.53 5976.7 1018.53 5989.7 1014.53 6003.7 1016.53 6017.7 1015.53 6030.7 1017.53 6044.7 1017.53 6058.7 1016.53 6071.7 1014.53 6085.7 1011.53 6099.7 1013.53 6112.7 1012.53 6126.7 1016.53 6140.7 1011.53 6153.7 1017.53 6167.7 1013.53 6181.7 1011.53 6194.7 1015.53 6208.7 1014.53 6222.7 1015.53 6236.71 1011.53 6249.71 1014.53 6263.71 1016.53 6277.71 1013.53 6290.71 1012.53 6304.71 1013.53 6318.71 1014.53 6331.71 1016.53 6345.71 1013.53 6359.71 1012.53 6372.71 1012.53 6386.71 1014.53 6400.71 1017.53 6413.71 1015.53 6427.71 1014.53 6441.71 1014.53 6454.71 1016.53 6468.71 1013.53 6482.71 1015.53 6495.71 1013.53 6509.71 1012.53 6523.71 1012.53 6537.71 1020.53 6550.71 1014.53 6564.72 1014.53 6578.72 1013.53 6591.72 1014.53 6605.72 1015.53 6619.72 1012.53 6632.72 1012.53 6646.72 1011.53 6660.72 1010.5 6674.5 1014.53" stroke="#4EA72E" stroke-width="4.58333" stroke-linecap="round" stroke-linejoin="round" stroke-miterlimit="10" fill="none"/></g><g><path d="M3937.5 2069.5 3951.63 1955.56 3965.63 1890.56 3978.63 1865.56 3992.63 1958.56 4006.63 1698.56 4019.63 1756.56 4033.63 1719.56 4047.63 1726.56 4060.63 1674.56 4074.63 1743.56 4088.63 1642.55 4101.63 1736.56 4115.64 1726.56 4129.64 1673.56 4142.64 1674.56 4156.64 1574.55 4170.64 1614.55 4183.64 1707.56 4197.64 1509.55 4211.64 1696.56 4225.64 1575.55 4238.64 1666.55 4252.64 1602.55 4266.64 1468.55 4279.64 1569.55 4293.64 1653.55 4307.64 1511.55 4320.64 1638.55 4334.64 1568.55 4348.64 1598.55 4361.64 1664.55 4375.64 1446.55 4389.64 1499.55 4402.64 1547.55 4416.65 1492.55 4430.65 1672.56 4443.65 1521.55 4457.65 1635.55 4471.65 1521.55 4484.65 1621.55 4498.65 1587.55 4512.65 1500.55 4525.65 1442.55 4539.65 1425.55 4553.65 1436.55 4567.65 1526.55 4580.65 1478.55 4594.65 1479.55 4608.65 1430.55 4621.65 1466.55 4635.65 1378.55 4649.65 1437.55 4662.65 1480.55 4676.65 1451.55 4690.65 1451.55 4703.65 1536.55 4717.66 1530.55 4731.66 1471.55 4744.66 1532.55 4758.66 1493.55 4772.66 1389.55 4785.66 1522.55 4799.66 1588.55 4813.66 1517.55 4826.66 1509.55 4840.66 1435.55 4854.66 1416.55 4867.66 1403.55 4881.66 1412.55 4895.66 1427.55 4909.66 1461.55 4922.66 1408.55 4936.66 1538.55 4950.66 1586.55 4963.66 1473.55 4977.66 1570.55 4991.66 1484.55 5004.66 1463.55 5018.67 1442.55 5032.67 1563.55 5045.67 1484.55 5059.67 1479.55 5073.67 1437.55 5086.67 1391.55 5100.67 1453.55 5114.67 1495.55 5127.67 1446.55 5141.67 1479.55 5155.67 1374.55 5168.67 1409.55 5182.67 1442.55 5196.67 1462.55 5210.67 1441.55 5223.67 1460.55 5237.67 1413.55 5251.67 1366.5 5264.67 1482.55 5278.67 1470.55 5292.67 1461.55 5305.67 1387.55 5319.67 1389.55 5333.68 1367.55 5346.68 1378.55 5360.68 1395.55 5374.68 1400.55 5387.68 1406.55 5401.68 1394.55 5415.68 1383.55 5428.68 1400.55 5442.68 1381.55 5456.68 1370.55 5469.68 1390.55 5483.68 1386.55 5497.68 1390.55 5510.68 1379.55 5524.68 1406.55 5538.68 1394.55 5552.68 1392.55 5565.68 1387.55 5579.68 1394.55 5593.68 1399.55 5606.68 1389.55 5620.68 1398.55 5634.69 1384.55 5647.69 1402.55 5661.69 1386.55 5675.69 1393.55 5688.69 1389.55 5702.69 1371.55 5716.69 1422.55 5729.69 1402.55 5743.69 1376.55 5757.69 1399.55 5770.69 1396.55 5784.69 1416.55 5798.69 1390.55 5811.69 1392.55 5825.69 1380.55 5839.69 1405.55 5852.69 1398.55 5866.69 1380.55 5880.69 1386.55 5894.69 1389.55 5907.69 1394.55 5921.69 1387.55 5935.69 1390.55 5948.7 1397.55 5962.7 1412.55 5976.7 1375.55 5989.7 1385.55 6003.7 1383.55 6017.7 1386.55 6030.7 1397.55 6044.7 1386.55 6058.7 1395.55 6071.7 1396.55 6085.7 1378.55 6099.7 1396.55 6112.7 1405.55 6126.7 1411.55 6140.7 1401.55 6153.7 1401.55 6167.7 1387.55 6181.7 1400.55 6194.7 1415.55 6208.7 1398.55 6222.7 1392.55 6236.71 1389.55 6249.71 1396.55 6263.71 1398.55 6277.71 1400.55 6290.71 1398.55 6304.71 1409.55 6318.71 1406.55 6331.71 1394.55 6345.71 1403.55 6359.71 1411.55 6372.71 1403.55 6386.71 1402.55 6400.71 1398.55 6413.71 1403.55 6427.71 1396.55 6441.71 1403.55 6454.71 1414.55 6468.71 1400.55 6482.71 1410.55 6495.71 1401.55 6509.71 1390.55 6523.71 1406.55 6537.71 1406.55 6550.71 1401.55 6564.72 1394.55 6578.72 1403.55 6591.72 1405.55 6605.72 1387.55 6619.72 1397.55 6632.72 1398.55 6646.72 1382.55 6660.72 1389.55 6674.5 1400.55" stroke="#994010" stroke-width="4.58333" stroke-linecap="square" stroke-linejoin="round" stroke-miterlimit="10" fill="none"/></g><g><text font-family="Arial,Arial_MSFontService,sans-serif" font-weight="400" font-size="64" transform="matrix(1 0 0 1 3840.13 2308)">5</text></g><g><text font-family="Arial,Arial_MSFontService,sans-serif" font-weight="400" font-size="64" transform="matrix(1 0 0 1 3804.45 2161)">15</text></g><g><text font-family="Arial,Arial_MSFontService,sans-serif" font-weight="400" font-size="64" transform="matrix(1 0 0 1 3804.45 2014)">25</text></g><g><text font-family="Arial,Arial_MSFontService,sans-serif" font-weight="400" font-size="64" transform="matrix(1 0 0 1 3804.45 1866)">35</text></g><g><text font-family="Arial,Arial_MSFontService,sans-serif" font-weight="400" font-size="64" transform="matrix(1 0 0 1 3804.45 1719)">45</text></g><g><text font-family="Arial,Arial_MSFontService,sans-serif" font-weight="400" font-size="64" transform="matrix(1 0 0 1 3804.45 1572)">55</text></g><g><text font-family="Arial,Arial_MSFontService,sans-serif" font-weight="400" font-size="64" transform="matrix(1 0 0 1 3804.45 1424)">65</text></g><g><text font-family="Arial,Arial_MSFontService,sans-serif" font-weight="400" font-size="64" transform="matrix(1 0 0 1 3804.45 1277)">75</text></g><g><text font-family="Arial,Arial_MSFontService,sans-serif" font-weight="400" font-size="64" transform="matrix(1 0 0 1 3804.45 1130)">85</text></g><g><text font-family="Arial,Arial_MSFontService,sans-serif" font-weight="400" font-size="64" transform="matrix(1 0 0 1 3804.45 982)">95</text></g><g><text font-family="Arial,Arial_MSFontService,sans-serif" font-weight="400" font-size="64" transform="matrix(1 0 0 1 3920.02 2385)">0</text></g><g><text font-family="Arial,Arial_MSFontService,sans-serif" font-weight="400" font-size="64" transform="matrix(1 0 0 1 4175.79 2385)">20</text></g><g><text font-family="Arial,Arial_MSFontService,sans-serif" font-weight="400" font-size="64" transform="matrix(1 0 0 1 4449.41 2385)">40</text></g><g><text font-family="Arial,Arial_MSFontService,sans-serif" font-weight="400" font-size="64" transform="matrix(1 0 0 1 4723.03 2385)">60</text></g><g><text font-family="Arial,Arial_MSFontService,sans-serif" font-weight="400" font-size="64" transform="matrix(1 0 0 1 4996.64 2385)">80</text></g><g><text font-family="Arial,Arial_MSFontService,sans-serif" font-weight="400" font-size="64" transform="matrix(1 0 0 1 5252.42 2385)">100</text></g><g><text font-family="Arial,Arial_MSFontService,sans-serif" font-weight="400" font-size="64" transform="matrix(1 0 0 1 5526.04 2385)">120</text></g><g><text font-family="Arial,Arial_MSFontService,sans-serif" font-weight="400" font-size="64" transform="matrix(1 0 0 1 5799.65 2385)">140</text></g><g><text font-family="Arial,Arial_MSFontService,sans-serif" font-weight="400" font-size="64" transform="matrix(1 0 0 1 6073.27 2385)">160</text></g><g><text font-family="Arial,Arial_MSFontService,sans-serif" font-weight="400" font-size="64" transform="matrix(1 0 0 1 6346.89 2385)">180</text></g><g><text font-family="Arial,Arial_MSFontService,sans-serif" font-weight="400" font-size="64" transform="matrix(1 0 0 1 6620.5 2385)">200</text></g><g><text font-family="Arial,Arial_MSFontService,sans-serif" font-weight="700" font-size="64" transform="matrix(6.12323e-17 -1 1 6.12323e-17 3776.9 1908)">Test Accuracy @ 1</text></g><g><text font-family="Arial,Arial_MSFontService,sans-serif" font-weight="700" font-size="64" transform="matrix(1 0 0 1 5207.92 2472)">Epoch</text></g><g><g><text font-family="Arial,Arial_MSFontService,sans-serif" font-weight="700" font-size="77" transform="matrix(1 0 0 1 4816.1 880)">ResNet18: Imagenette</text></g></g><g><path d="M3980.5 2584.5 4068.5 2584.5" stroke="#E97132" stroke-width="4.58333" stroke-linecap="round" stroke-linejoin="round" stroke-miterlimit="10" fill="none" fill-rule="evenodd"/></g><g><text font-family="Arial,Arial_MSFontService,sans-serif" font-weight="400" font-size="50" transform="matrix(1 0 0 1 4077.96 2601)">Imagenette - ResNet18 - Original</text></g><g><path d="M5232.5 2584.5 5320.5 2584.5" stroke="#0F9ED5" stroke-width="4.58333" stroke-linecap="round" stroke-linejoin="round" stroke-miterlimit="10" fill="none" fill-rule="evenodd"/></g><g><text font-family="Arial,Arial_MSFontService,sans-serif" font-weight="400" font-size="50" transform="matrix(1 0 0 1 5330.11 2601)">Imagenette - ResNet18 - Original+Synthetic(Clean)</text></g><g><path d="M3980.5 2668.5 4068.5 2668.5" stroke="#4EA72E" stroke-width="4.58333" stroke-linecap="round" stroke-linejoin="round" stroke-miterlimit="10" fill="none" fill-rule="evenodd"/></g><g><text font-family="Arial,Arial_MSFontService,sans-serif" font-weight="400" font-size="50" transform="matrix(1 0 0 1 4077.96 2685)">Imagenette - ResNet18 - Original+Synthetic(Noisy)</text></g><g><path d="M5232.5 2668.5 5320.5 2668.5" stroke="#994010" stroke-width="4.58333" stroke-linecap="square" stroke-linejoin="round" stroke-miterlimit="10" fill="none" fill-rule="evenodd"/></g><g><text font-family="Arial,Arial_MSFontService,sans-serif" font-weight="400" font-size="50" transform="matrix(1 0 0 1 5330.11 2685)">Imagenette - ResNet18 - Synthetic</text></g><rect x="3660.5" y="773.5" width="3117" height="1957" stroke="#898989" stroke-width="4.58333" stroke-linejoin="round" stroke-miterlimit="10" fill="none"/></g></svg>