<svg width="2956" height="1962" xmlns="http://www.w3.org/2000/svg" xmlns:xlink="http://www.w3.org/1999/xlink" xml:space="preserve" overflow="hidden"><defs><clipPath id="clip0"><rect x="3195" y="771" width="2956" height="1962"/></clipPath></defs><g clip-path="url(#clip0)" transform="translate(-3195 -771)"><rect x="3197" y="773" width="2951" height="1957" fill="#FFFFFF"/><g><rect x="3522" y="962" width="2536" height="1402" fill="#FFFFFF"/></g><g><path d="M3521.5 2083.57 6058.5 2083.57M3521.5 1803.56 6058.5 1803.56M3521.5 1522.55 6058.5 1522.55M3521.5 1242.54 6058.5 1242.54M3521.5 961.5 6058.5 961.5" stroke="#D9D9D9" stroke-width="3.4375" stroke-linejoin="round" stroke-miterlimit="10" fill="none"/></g><g><path d="M3521.5 2364.5 6058.5 2364.5" stroke="#D9D9D9" stroke-width="3.4375" stroke-linejoin="round" stroke-miterlimit="10" fill="none" fill-rule="evenodd"/></g><g><path d="M3534.5 2219.57 3559.62 2091.57 3585.62 2233.57 3610.62 2176.57 3635.62 2176.57 3661.62 2191.57 3686.62 2162.57 3711.62 2176.57 3737.62 2133.57 3762.62 2076.57 3787.62 2176.57 3813.63 2162.57 3838.63 2133.57 3864.63 2205.57 3889.63 2119.57 3914.63 2162.57 3940.63 2191.57 3965.63 2162.57 3990.63 2191.57 4016.63 2162.57 4041.63 2176.57 4067.63 2119.57 4092.63 2105.57 4117.64 2205.57 4143.64 2133.57 4168.64 2219.57 4193.64 2191.57 4219.64 2191.57 4244.64 2176.57 4269.64 2205.57 4295.64 2148.57 4320.64 2133.57 4346.64 2162.57 4371.64 2162.57 4396.64 2148.57 4422.65 2191.57 4447.65 2191.57 4472.65 2176.57 4498.65 2148.57 4523.65 2162.57 4548.65 2148.57 4574.65 2033.5 4599.65 2205.57 4625.65 2162.57 4650.65 2148.57 4675.65 2176.57 4701.65 2105.57 4726.66 2191.57 4751.66 2148.57 4777.66 2119.57 4802.66 2162.57 4827.66 2176.57 4853.66 2176.57 4878.66 2148.57 4904.66 2176.57 4929.66 2133.57 4954.66 2148.57 4980.66 2233.57 5005.66 2276.5 5030.67 2219.57 5056.67 2233.57 5081.67 2191.57 5106.67 2162.57 5132.67 2176.57 5157.67 2233.57 5183.67 2148.57 5208.67 2162.57 5233.67 2176.57 5259.67 2162.57 5284.67 2219.57 5309.67 2205.57 5335.68 2205.57 5360.68 2205.57 5385.68 2148.57 5411.68 2205.57 5436.68 2148.57 5462.68 2148.57 5487.68 2233.57 5512.68 2191.57 5538.68 2233.57 5563.68 2248.57 5588.68 2219.57 5614.68 2191.57 5639.69 2105.57 5664.69 2162.57 5690.69 2162.57 5715.69 2176.57 5741.69 2191.57 5766.69 2176.57 5791.69 2191.57 5817.69 2119.57 5842.69 2176.57 5867.69 2176.57 5893.69 2233.57 5918.69 2219.57 5943.7 2148.57 5969.7 2191.57 5994.7 2248.57 6020.7 2148.57 6045.5 2191.57" stroke="#E97132" stroke-width="4.58333" stroke-linecap="round" stroke-linejoin="round" stroke-miterlimit="10" fill="none"/></g><g><path d="M3534.5 1419.55 3559.62 1476.55 3585.62 1433.55 3610.62 1490.5 3635.62 1405.55 3661.62 1390.55 3686.62 1390.55 3711.62 1405.55 3737.62 1405.55 3762.62 1304.54 3787.62 1347.54 3813.63 1376.55 3838.63 1390.55 3864.63 1419.55 3889.63 1419.55 3914.63 1347.54 3940.63 1405.55 3965.63 1304.54 3990.63 1347.54 4016.63 1333.54 4041.63 1319.54 4067.63 1390.55 4092.63 1290.54 4117.64 1419.55 4143.64 1319.54 4168.64 1304.54 4193.64 1347.54 4219.64 1262.54 4244.64 1262.54 4269.64 1405.55 4295.64 1362.54 4320.64 1347.54 4346.64 1405.55 4371.64 1347.54 4396.64 1376.55 4422.65 1347.54 4447.65 1319.54 4472.65 1304.54 4498.65 1276.54 4523.65 1247.54 4548.65 1247.54 4574.65 1204.54 4599.65 1333.54 4625.65 1219.54 4650.65 1247.54 4675.65 1233.54 4701.65 1362.54 4726.66 1304.54 4751.66 1276.54 4777.66 1219.54 4802.66 1204.54 4827.66 1219.54 4853.66 1276.54 4878.66 1247.54 4904.66 1233.54 4929.66 1233.54 4954.66 1247.54 4980.66 1262.54 5005.66 1276.54 5030.67 1247.54 5056.67 1247.54 5081.67 1219.54 5106.67 1290.54 5132.67 1219.54 5157.67 1219.54 5183.67 1276.54 5208.67 1219.54 5233.67 1304.54 5259.67 1204.54 5284.67 1176.54 5309.67 1233.54 5335.68 1247.54 5360.68 1247.54 5385.68 1333.54 5411.68 1190.54 5436.68 1219.54 5462.68 1204.54 5487.68 1233.54 5512.68 1290.54 5538.68 1276.54 5563.68 1304.54 5588.68 1276.54 5614.68 1233.54 5639.69 1204.54 5664.69 1247.54 5690.69 1233.54 5715.69 1290.54 5741.69 1262.54 5766.69 1176.54 5791.69 1247.54 5817.69 1319.54 5842.69 1276.54 5867.69 1233.54 5893.69 1290.54 5918.69 1233.54 5943.7 1219.54 5969.7 1176.54 5994.7 1262.54 6020.7 1133.5 6045.5 1262.54" stroke="#0F9ED5" stroke-width="4.58333" stroke-linecap="round" stroke-linejoin="round" stroke-miterlimit="10" fill="none"/></g><g><text font-family="Arial,Arial_MSFontService,sans-serif" font-weight="400" font-size="64" transform="matrix(1 0 0 1 3341.71 2385)">89.5</text></g><g><text font-family="Arial,Arial_MSFontService,sans-serif" font-weight="400" font-size="64" transform="matrix(1 0 0 1 3395.22 2104)">90</text></g><g><text font-family="Arial,Arial_MSFontService,sans-serif" font-weight="400" font-size="64" transform="matrix(1 0 0 1 3341.71 1824)">90.5</text></g><g><text font-family="Arial,Arial_MSFontService,sans-serif" font-weight="400" font-size="64" transform="matrix(1 0 0 1 3395.22 1543)">91</text></g><g><text font-family="Arial,Arial_MSFontService,sans-serif" font-weight="400" font-size="64" transform="matrix(1 0 0 1 3341.71 1263)">91.5</text></g><g><text font-family="Arial,Arial_MSFontService,sans-serif" font-weight="400" font-size="64" transform="matrix(1 0 0 1 3395.22 982)">92</text></g><g><text font-family="Arial,Arial_MSFontService,sans-serif" font-weight="400" font-size="64" transform="matrix(1 0 0 1 3480.95 2461)">201</text></g><g><text font-family="Arial,Arial_MSFontService,sans-serif" font-weight="400" font-size="64" transform="matrix(1 0 0 1 3759.96 2461)">212</text></g><g><text font-family="Arial,Arial_MSFontService,sans-serif" font-weight="400" font-size="64" transform="matrix(1 0 0 1 4038.98 2461)">223</text></g><g><text font-family="Arial,Arial_MSFontService,sans-serif" font-weight="400" font-size="64" transform="matrix(1 0 0 1 4317.99 2461)">234</text></g><g><text font-family="Arial,Arial_MSFontService,sans-serif" font-weight="400" font-size="64" transform="matrix(1 0 0 1 4597.01 2461)">245</text></g><g><text font-family="Arial,Arial_MSFontService,sans-serif" font-weight="400" font-size="64" transform="matrix(1 0 0 1 4876.02 2461)">256</text></g><g><text font-family="Arial,Arial_MSFontService,sans-serif" font-weight="400" font-size="64" transform="matrix(1 0 0 1 5155.04 2461)">267</text></g><g><text font-family="Arial,Arial_MSFontService,sans-serif" font-weight="400" font-size="64" transform="matrix(1 0 0 1 5434.05 2461)">278</text></g><g><text font-family="Arial,Arial_MSFontService,sans-serif" font-weight="400" font-size="64" transform="matrix(1 0 0 1 5713.06 2461)">289</text></g><g><text font-family="Arial,Arial_MSFontService,sans-serif" font-weight="400" font-size="64" transform="matrix(1 0 0 1 5992.08 2461)">300</text></g><g><text font-family="Arial,Arial_MSFontService,sans-serif" font-weight="700" font-size="64" transform="matrix(6.12323e-17 -1 1 6.12323e-17 3314.16 1946)">Test Accuracy @ 1</text></g><g><text font-family="Arial,Arial_MSFontService,sans-serif" font-weight="700" font-size="64" transform="matrix(1 0 0 1 4692.01 2549)">Epoch</text></g><g><g><text font-family="Arial,Arial_MSFontService,sans-serif" font-weight="700" font-size="77" transform="matrix(1 0 0 1 4270 880)">ResNet18: Imagenette</text></g></g><g><path d="M3608.5 2661.5 3696.5 2661.5" stroke="#E97132" stroke-width="4.58333" stroke-linecap="round" stroke-linejoin="round" stroke-miterlimit="10" fill="none" fill-rule="evenodd"/></g><g><text font-family="Arial,Arial_MSFontService,sans-serif" font-weight="400" font-size="50" transform="matrix(1 0 0 1 3705.41 2678)">Imagenette - ResNet18 - Base+100</text></g><g><path d="M4647.5 2661.5 4735.5 2661.5" stroke="#0F9ED5" stroke-width="4.58333" stroke-linecap="round" stroke-linejoin="round" stroke-miterlimit="10" fill="none" fill-rule="evenodd"/></g><g><text font-family="Arial,Arial_MSFontService,sans-serif" font-weight="400" font-size="50" transform="matrix(1 0 0 1 4744.92 2678)">Imagenette - ResNet18 - AugmentNoisy+100</text></g><rect x="3197.5" y="773.5" width="2951" height="1957" stroke="#898989" stroke-width="4.58333" stroke-linejoin="round" stroke-miterlimit="10" fill="none"/></g></svg>