<svg width="2956" height="1962" xmlns="http://www.w3.org/2000/svg" xmlns:xlink="http://www.w3.org/1999/xlink" xml:space="preserve" overflow="hidden"><defs><clipPath id="clip0"><rect x="3195" y="771" width="2956" height="1962"/></clipPath></defs><g clip-path="url(#clip0)" transform="translate(-3195 -771)"><rect x="3197" y="773" width="2951" height="1957" fill="#FFFFFF"/><g><rect x="3522" y="962" width="2536" height="1402" fill="#FFFFFF"/></g><g><path d="M3521.5 2130.57 6058.5 2130.57M3521.5 1896.56 6058.5 1896.56M3521.5 1663.55 6058.5 1663.55M3521.5 1429.55 6058.5 1429.55M3521.5 1195.54 6058.5 1195.54M3521.5 961.5 6058.5 961.5" stroke="#D9D9D9" stroke-width="3.4375" stroke-linejoin="round" stroke-miterlimit="10" fill="none"/></g><g><path d="M3521.5 2364.5 6058.5 2364.5" stroke="#D9D9D9" stroke-width="3.4375" stroke-linejoin="round" stroke-miterlimit="10" fill="none" fill-rule="evenodd"/></g><g><path d="M3534.5 1833.56 3559.62 1866.56 3585.62 1822.56 3610.62 1773.56 3635.62 1822.56 3661.62 1828.56 3686.62 1784.56 3711.62 1795.56 3737.62 1866.56 3762.62 1724.5 3787.62 1811.56 3813.63 1779.56 3838.63 1855.56 3864.63 1877.56 3889.63 1806.56 3914.63 1811.56 3940.63 1811.56 3965.63 1795.56 3990.63 1850.56 4016.63 1800.56 4041.63 1833.56 4067.63 1828.56 4092.63 1839.56 4117.64 1790.56 4143.64 1822.56 4168.64 1839.56 4193.64 1844.56 4219.64 1822.56 4244.64 1828.56 4269.64 1784.56 4295.64 1779.56 4320.64 1730.56 4346.64 1844.56 4371.64 1822.56 4396.64 1822.56 4422.65 1882.56 4447.65 1844.56 4472.65 1811.56 4498.65 1828.56 4523.65 1844.56 4548.65 1871.56 4574.65 1855.56 4599.65 1822.56 4625.65 1795.56 4650.65 1784.56 4675.65 1817.56 4701.65 1773.56 4726.66 1866.56 4751.66 1800.56 4777.66 1833.56 4802.66 1866.56 4827.66 1768.56 4853.66 1860.56 4878.66 1855.56 4904.66 1762.56 4929.66 1899.5 4954.66 1757.56 4980.66 1784.56 5005.66 1833.56 5030.67 1784.56 5056.67 1877.56 5081.67 1751.56 5106.67 1850.56 5132.67 1844.56 5157.67 1757.56 5183.67 1762.56 5208.67 1833.56 5233.67 1779.56 5259.67 1768.56 5284.67 1888.56 5309.67 1860.56 5335.68 1790.56 5360.68 1811.56 5385.68 1822.56 5411.68 1844.56 5436.68 1768.56 5462.68 1800.56 5487.68 1779.56 5512.68 1811.56 5538.68 1768.56 5563.68 1779.56 5588.68 1850.56 5614.68 1800.56 5639.69 1866.56 5664.69 1817.56 5690.69 1828.56 5715.69 1773.56 5741.69 1806.56 5766.69 1795.56 5791.69 1806.56 5817.69 1784.56 5842.69 1882.56 5867.69 1817.56 5893.69 1762.56 5918.69 1850.56 5943.7 1882.56 5969.7 1795.56 5994.7 1877.56 6020.7 1828.56 6045.5 1860.56" stroke="#E97132" stroke-width="4.58333" stroke-linecap="round" stroke-linejoin="round" stroke-miterlimit="10" fill="none"/></g><g><path d="M3534.5 2247.5 3559.62 2155.57 3585.62 2122.57 3610.62 2122.57 3635.62 2013.57 3661.62 1975.56 3686.62 1926.56 3711.62 1926.56 3737.62 1806.56 3762.62 1877.56 3787.62 1850.56 3813.63 1784.56 3838.63 1751.56 3864.63 1730.56 3889.63 1757.56 3914.63 1692.56 3940.63 1697.56 3965.63 1670.55 3990.63 1632.55 4016.63 1664.55 4041.63 1626.55 4067.63 1675.56 4092.63 1632.55 4117.64 1534.55 4143.64 1544.55 4168.64 1512.55 4193.64 1572.55 4219.64 1550.55 4244.64 1544.55 4269.64 1490.55 4295.64 1501.55 4320.64 1414.55 4346.64 1490.55 4371.64 1435.55 4396.64 1452.55 4422.65 1376.55 4447.65 1506.55 4472.65 1414.55 4498.65 1397.55 4523.65 1386.55 4548.65 1354.54 4574.65 1326.54 4599.65 1397.55 4625.65 1288.54 4650.65 1316.54 4675.65 1272.54 4701.65 1359.54 4726.66 1305.54 4751.66 1239.54 4777.66 1250.54 4802.66 1223.54 4827.66 1218.54 4853.66 1163.54 4878.66 1212.54 4904.66 1256.54 4929.66 1321.54 4954.66 1250.54 4980.66 1267.54 5005.66 1261.54 5030.67 1179.54 5056.67 1201.54 5081.67 1228.54 5106.67 1256.54 5132.67 1267.54 5157.67 1256.54 5183.67 1218.54 5208.67 1228.54 5233.67 1201.54 5259.67 1212.54 5284.67 1212.54 5309.67 1288.54 5335.68 1196.54 5360.68 1196.54 5385.68 1207.54 5411.68 1179.54 5436.68 1218.54 5462.68 1250.54 5487.68 1185.54 5512.68 1201.54 5538.68 1190.54 5563.68 1277.54 5588.68 1239.54 5614.68 1196.54 5639.69 1207.54 5664.69 1250.54 5690.69 1250.54 5715.69 1119.5 5741.69 1168.54 5766.69 1207.54 5791.69 1256.54 5817.69 1218.54 5842.69 1223.54 5867.69 1234.54 5893.69 1152.54 5918.69 1223.54 5943.7 1168.54 5969.7 1196.54 5994.7 1207.54 6020.7 1316.54 6045.5 1288.54" stroke="#0F9ED5" stroke-width="4.58333" stroke-linecap="round" stroke-linejoin="round" stroke-miterlimit="10" fill="none"/></g><g><text font-family="Arial,Arial_MSFontService,sans-serif" font-weight="400" font-size="64" transform="matrix(1 0 0 1 3395.22 2385)">57</text></g><g><text font-family="Arial,Arial_MSFontService,sans-serif" font-weight="400" font-size="64" transform="matrix(1 0 0 1 3341.71 2151)">57.5</text></g><g><text font-family="Arial,Arial_MSFontService,sans-serif" font-weight="400" font-size="64" transform="matrix(1 0 0 1 3395.22 1917)">58</text></g><g><text font-family="Arial,Arial_MSFontService,sans-serif" font-weight="400" font-size="64" transform="matrix(1 0 0 1 3341.71 1683)">58.5</text></g><g><text font-family="Arial,Arial_MSFontService,sans-serif" font-weight="400" font-size="64" transform="matrix(1 0 0 1 3395.22 1450)">59</text></g><g><text font-family="Arial,Arial_MSFontService,sans-serif" font-weight="400" font-size="64" transform="matrix(1 0 0 1 3341.71 1216)">59.5</text></g><g><text font-family="Arial,Arial_MSFontService,sans-serif" font-weight="400" font-size="64" transform="matrix(1 0 0 1 3395.22 982)">60</text></g><g><text font-family="Arial,Arial_MSFontService,sans-serif" font-weight="400" font-size="64" transform="matrix(1 0 0 1 3480.95 2461)">201</text></g><g><text font-family="Arial,Arial_MSFontService,sans-serif" font-weight="400" font-size="64" transform="matrix(1 0 0 1 3759.96 2461)">212</text></g><g><text font-family="Arial,Arial_MSFontService,sans-serif" font-weight="400" font-size="64" transform="matrix(1 0 0 1 4038.98 2461)">223</text></g><g><text font-family="Arial,Arial_MSFontService,sans-serif" font-weight="400" font-size="64" transform="matrix(1 0 0 1 4317.99 2461)">234</text></g><g><text font-family="Arial,Arial_MSFontService,sans-serif" font-weight="400" font-size="64" transform="matrix(1 0 0 1 4597.01 2461)">245</text></g><g><text font-family="Arial,Arial_MSFontService,sans-serif" font-weight="400" font-size="64" transform="matrix(1 0 0 1 4876.02 2461)">256</text></g><g><text font-family="Arial,Arial_MSFontService,sans-serif" font-weight="400" font-size="64" transform="matrix(1 0 0 1 5155.04 2461)">267</text></g><g><text font-family="Arial,Arial_MSFontService,sans-serif" font-weight="400" font-size="64" transform="matrix(1 0 0 1 5434.05 2461)">278</text></g><g><text font-family="Arial,Arial_MSFontService,sans-serif" font-weight="400" font-size="64" transform="matrix(1 0 0 1 5713.06 2461)">289</text></g><g><text font-family="Arial,Arial_MSFontService,sans-serif" font-weight="400" font-size="64" transform="matrix(1 0 0 1 5992.08 2461)">300</text></g><g><text font-family="Arial,Arial_MSFontService,sans-serif" font-weight="700" font-size="64" transform="matrix(6.12323e-17 -1 1 6.12323e-17 3314.16 1946)">Test Accuracy @ 1</text></g><g><text font-family="Arial,Arial_MSFontService,sans-serif" font-weight="700" font-size="64" transform="matrix(1 0 0 1 4692.01 2549)">Epoch</text></g><g><g><text font-family="Arial,Arial_MSFontService,sans-serif" font-weight="700" font-size="77" transform="matrix(1 0 0 1 4208.06 880)">ResNet18: Stanford Dogs</text></g></g><g><path d="M3533.5 2661.5 3621.5 2661.5" stroke="#E97132" stroke-width="4.58333" stroke-linecap="round" stroke-linejoin="round" stroke-miterlimit="10" fill="none" fill-rule="evenodd"/></g><g><text font-family="Arial,Arial_MSFontService,sans-serif" font-weight="400" font-size="50" transform="matrix(1 0 0 1 3630.71 2678)">Stanford Dogs - ResNet18 - Base+100</text></g><g><path d="M4652.5 2661.5 4740.5 2661.5" stroke="#0F9ED5" stroke-width="4.58333" stroke-linecap="round" stroke-linejoin="round" stroke-miterlimit="10" fill="none" fill-rule="evenodd"/></g><g><text font-family="Arial,Arial_MSFontService,sans-serif" font-weight="400" font-size="50" transform="matrix(1 0 0 1 4749.59 2678)">Stanford Dogs - ResNet18 - AugmentNoisy+100</text></g><rect x="3197.5" y="773.5" width="2951" height="1957" stroke="#898989" stroke-width="4.58333" stroke-linejoin="round" stroke-miterlimit="10" fill="none"/></g></svg>