<svg width="3122" height="1962" xmlns="http://www.w3.org/2000/svg" xmlns:xlink="http://www.w3.org/1999/xlink" xml:space="preserve" overflow="hidden"><defs><clipPath id="clip0"><rect x="3658" y="771" width="3122" height="1962"/></clipPath></defs><g clip-path="url(#clip0)" transform="translate(-3658 -771)"><rect x="3660" y="773" width="3117" height="1957" fill="#FFFFFF"/><g><rect x="3931" y="962" width="2750" height="1326" fill="#FFFFFF"/></g><g><path d="M3931.5 2122.57 6680.5 2122.57M3931.5 1956.56 6680.5 1956.56M3931.5 1790.56 6680.5 1790.56M3931.5 1624.55 6680.5 1624.55M3931.5 1459.55 6680.5 1459.55M3931.5 1293.54 6680.5 1293.54M3931.5 1127.54 6680.5 1127.54M3931.5 961.5 6680.5 961.5" stroke="#D9D9D9" stroke-width="3.4375" stroke-linejoin="round" stroke-miterlimit="10" fill="none"/></g><g><path d="M3931.5 2288.5 6680.5 2288.5" stroke="#D9D9D9" stroke-width="3.4375" stroke-linejoin="round" stroke-miterlimit="10" fill="none" fill-rule="evenodd"/></g><g><path d="M3937.5 2277.5 3951.63 2154.57 3965.63 2152.57 3978.63 2120.57 3992.63 2101.57 4006.63 2059.57 4019.63 2034.57 4033.63 2001.57 4047.63 1991.57 4060.63 1998.57 4074.63 1928.56 4088.63 1973.56 4101.63 1890.56 4115.64 1845.56 4129.64 1846.56 4142.64 1805.56 4156.64 1918.56 4170.64 1730.56 4183.64 1813.56 4197.64 1841.56 4211.64 1817.56 4225.64 1693.56 4238.64 1771.56 4252.64 1623.55 4266.64 1680.56 4279.64 1782.56 4293.64 1610.55 4307.64 1699.56 4320.64 1570.55 4334.64 1716.56 4348.64 1588.55 4361.64 1555.55 4375.64 1656.55 4389.64 1547.55 4402.64 1553.55 4416.65 1491.55 4430.65 1505.55 4443.65 1535.55 4457.65 1573.55 4471.65 1449.55 4484.65 1532.55 4498.65 1475.55 4512.65 1468.55 4525.65 1380.55 4539.65 1343.54 4553.65 1366.54 4567.65 1342.54 4580.65 1368.55 4594.65 1389.55 4608.65 1356.54 4621.65 1378.55 4635.65 1478.55 4649.65 1432.55 4662.65 1333.54 4676.65 1339.54 4690.65 1270.54 4703.65 1323.54 4717.66 1398.55 4731.66 1356.54 4744.66 1387.55 4758.66 1334.54 4772.66 1339.54 4785.66 1327.54 4799.66 1230.54 4813.66 1331.54 4826.66 1244.54 4840.66 1304.54 4854.66 1291.54 4867.66 1258.54 4881.66 1292.54 4895.66 1231.54 4909.66 1215.54 4922.66 1217.54 4936.66 1225.54 4950.66 1219.54 4963.66 1196.54 4977.66 1292.54 4991.66 1217.54 5004.66 1223.54 5018.67 1334.54 5032.67 1256.54 5045.67 1192.54 5059.67 1233.54 5073.67 1334.54 5086.67 1224.54 5100.67 1245.54 5114.67 1171.54 5127.67 1172.54 5141.67 1234.54 5155.67 1205.54 5168.67 1199.54 5182.67 1231.54 5196.67 1175.54 5210.67 1207.54 5223.67 1210.54 5237.67 1183.54 5251.67 1168.54 5264.67 1189.54 5278.67 1275.54 5292.67 1251.54 5305.67 1094.54 5319.67 1080.54 5333.68 1085.54 5346.68 1086.54 5360.68 1073.54 5374.68 1080.54 5387.68 1084.54 5401.68 1073.54 5415.68 1087.54 5428.68 1083.54 5442.68 1086.54 5456.68 1081.54 5469.68 1085.54 5483.68 1082.54 5497.68 1077.54 5510.68 1085.54 5524.68 1084.54 5538.68 1077.54 5552.68 1090.54 5565.68 1076.54 5579.68 1081.54 5593.68 1091.54 5606.68 1084.54 5620.68 1079.54 5634.69 1080.54 5647.69 1091.54 5661.69 1085.54 5675.69 1086.54 5688.69 1086.54 5702.69 1084.54 5716.69 1086.54 5729.69 1089.54 5743.69 1079.54 5757.69 1085.54 5770.69 1088.54 5784.69 1090.54 5798.69 1091.54 5811.69 1082.54 5825.69 1080.54 5839.69 1091.54 5852.69 1088.54 5866.69 1083.54 5880.69 1086.54 5894.69 1080.54 5907.69 1083.54 5921.69 1089.54 5935.69 1082.54 5948.7 1082.54 5962.7 1079.54 5976.7 1091.54 5989.7 1078.54 6003.7 1078.54 6017.7 1080.54 6030.7 1078.54 6044.7 1074.54 6058.7 1078.54 6071.7 1076.54 6085.7 1078.54 6099.7 1075.54 6112.7 1076.54 6126.7 1078.54 6140.7 1073.54 6153.7 1076.54 6167.7 1076.54 6181.7 1075.54 6194.7 1078.54 6208.7 1079.54 6222.7 1074.54 6236.71 1076.54 6249.71 1072.54 6263.71 1073.54 6277.71 1079.54 6290.71 1080.54 6304.71 1076.54 6318.71 1078.54 6331.71 1078.54 6345.71 1080.54 6359.71 1076.54 6372.71 1074.54 6386.71 1075.54 6400.71 1077.54 6413.71 1075.54 6427.71 1076.54 6441.71 1075.54 6454.71 1074.54 6468.71 1077.54 6482.71 1076.54 6495.71 1079.54 6509.71 1080.54 6523.71 1079.54 6537.71 1079.54 6550.71 1078.54 6564.72 1075.54 6578.72 1077.54 6591.72 1075.54 6605.72 1078.54 6619.72 1076.54 6632.72 1072.54 6646.72 1075.54 6660.72 1076.54 6674.5 1070.5" stroke="#E97132" stroke-width="4.58333" stroke-linecap="round" stroke-linejoin="round" stroke-miterlimit="10" fill="none"/></g><g><path d="M3937.5 2186.5 3951.63 2145.57 3965.63 2090.57 3978.63 2023.57 3992.63 1985.57 4006.63 1933.56 4019.63 1902.56 4033.63 1861.56 4047.63 1846.56 4060.63 1825.56 4074.63 1811.56 4088.63 1786.56 4101.63 1720.56 4115.64 1669.55 4129.64 1680.56 4142.64 1727.56 4156.64 1608.55 4170.64 1575.55 4183.64 1672.56 4197.64 1538.55 4211.64 1481.55 4225.64 1391.55 4238.64 1466.55 4252.64 1470.55 4266.64 1383.55 4279.64 1358.54 4293.64 1453.55 4307.64 1498.55 4320.64 1366.55 4334.64 1307.54 4348.64 1285.54 4361.64 1349.54 4375.64 1386.55 4389.64 1343.54 4402.64 1293.54 4416.65 1327.54 4430.65 1232.54 4443.65 1231.54 4457.65 1314.54 4471.65 1255.54 4484.65 1272.54 4498.65 1237.54 4512.65 1194.54 4525.65 1216.54 4539.65 1216.54 4553.65 1261.54 4567.65 1208.54 4580.65 1204.54 4594.65 1237.54 4608.65 1276.54 4621.65 1181.54 4635.65 1220.54 4649.65 1218.54 4662.65 1211.54 4676.65 1191.54 4690.65 1218.54 4703.65 1182.54 4717.66 1205.54 4731.66 1125.54 4744.66 1187.54 4758.66 1229.54 4772.66 1145.54 4785.66 1144.54 4799.66 1175.54 4813.66 1137.54 4826.66 1185.54 4840.66 1195.54 4854.66 1150.54 4867.66 1194.54 4881.66 1180.54 4895.66 1145.54 4909.66 1139.54 4922.66 1166.54 4936.66 1177.54 4950.66 1147.54 4963.66 1194.54 4977.66 1121.54 4991.66 1128.54 5004.66 1139.54 5018.67 1173.54 5032.67 1155.54 5045.67 1137.54 5059.67 1156.54 5073.67 1118.54 5086.67 1115.54 5100.67 1140.54 5114.67 1098.54 5127.67 1105.54 5141.67 1156.54 5155.67 1117.54 5168.67 1167.54 5182.67 1101.54 5196.67 1123.54 5210.67 1118.54 5223.67 1110.54 5237.67 1153.54 5251.67 1095.54 5264.67 1125.54 5278.67 1113.54 5292.67 1121.54 5305.67 1036.53 5319.67 1034.53 5333.68 1029.53 5346.68 1027.53 5360.68 1023.53 5374.68 1022.53 5387.68 1026.53 5401.68 1021.53 5415.68 1017.53 5428.68 1027.53 5442.68 1020.53 5456.68 1018.53 5469.68 1016.53 5483.68 1029.53 5497.68 1023.53 5510.68 1013.53 5524.68 1015.53 5538.68 1018.53 5552.68 1024.53 5565.68 1016.53 5579.68 1024.53 5593.68 1020.53 5606.68 1015.53 5620.68 1025.53 5634.69 1020.53 5647.69 1022.53 5661.69 1026.53 5675.69 1018.53 5688.69 1021.53 5702.69 1015.53 5716.69 1018.53 5729.69 1018.53 5743.69 1013.53 5757.69 1021.53 5770.69 1016.53 5784.69 1020.53 5798.69 1023.53 5811.69 1021.53 5825.69 1021.53 5839.69 1016.53 5852.69 1023.53 5866.69 1020.53 5880.69 1022.53 5894.69 1024.53 5907.69 1020.53 5921.69 1023.53 5935.69 1014.53 5948.7 1021.53 5962.7 1022.53 5976.7 1022.53 5989.7 1016.53 6003.7 1015.53 6017.7 1013.53 6030.7 1013.53 6044.7 1015.53 6058.7 1016.53 6071.7 1017.53 6085.7 1013.53 6099.7 1015.53 6112.7 1014.53 6126.7 1014.53 6140.7 1010.5 6153.7 1014.53 6167.7 1014.53 6181.7 1016.53 6194.7 1015.53 6208.7 1015.53 6222.7 1017.53 6236.71 1018.53 6249.71 1016.53 6263.71 1015.53 6277.71 1014.53 6290.71 1014.53 6304.71 1017.53 6318.71 1015.53 6331.71 1017.53 6345.71 1016.53 6359.71 1018.53 6372.71 1019.53 6386.71 1018.53 6400.71 1017.53 6413.71 1016.53 6427.71 1016.53 6441.71 1015.53 6454.71 1013.53 6468.71 1015.53 6482.71 1014.53 6495.71 1018.53 6509.71 1013.53 6523.71 1015.53 6537.71 1016.53 6550.71 1019.53 6564.72 1015.53 6578.72 1016.53 6591.72 1015.53 6605.72 1014.53 6619.72 1015.53 6632.72 1018.53 6646.72 1017.53 6660.72 1018.53 6674.5 1018.53" stroke="#0F9ED5" stroke-width="4.58333" stroke-linecap="round" stroke-linejoin="round" stroke-miterlimit="10" fill="none"/></g><g><path d="M3937.5 2222.5 3951.63 2145.57 3965.63 2154.57 3978.63 1981.57 3992.63 2012.57 4006.63 1938.56 4019.63 1899.56 4033.63 1886.56 4047.63 1807.56 4060.63 1833.56 4074.63 1753.56 4088.63 1718.56 4101.63 1839.56 4115.64 1684.56 4129.64 1656.55 4142.64 1566.55 4156.64 1491.55 4170.64 1694.56 4183.64 1434.55 4197.64 1479.55 4211.64 1515.55 4225.64 1403.55 4238.64 1447.55 4252.64 1553.55 4266.64 1418.55 4279.64 1392.55 4293.64 1402.55 4307.64 1322.54 4320.64 1362.54 4334.64 1225.54 4348.64 1245.54 4361.64 1342.54 4375.64 1279.54 4389.64 1255.54 4402.64 1248.54 4416.65 1280.54 4430.65 1235.54 4443.65 1223.54 4457.65 1250.54 4471.65 1219.54 4484.65 1314.54 4498.65 1255.54 4512.65 1239.54 4525.65 1250.54 4539.65 1223.54 4553.65 1222.54 4567.65 1198.54 4580.65 1204.54 4594.65 1215.54 4608.65 1186.54 4621.65 1250.54 4635.65 1163.54 4649.65 1141.54 4662.65 1270.54 4676.65 1213.54 4690.65 1175.54 4703.65 1188.54 4717.66 1163.54 4731.66 1184.54 4744.66 1143.54 4758.66 1211.54 4772.66 1143.54 4785.66 1189.54 4799.66 1143.54 4813.66 1162.54 4826.66 1154.54 4840.66 1140.54 4854.66 1185.54 4867.66 1171.54 4881.66 1126.54 4895.66 1242.54 4909.66 1195.54 4922.66 1142.54 4936.66 1186.54 4950.66 1137.54 4963.66 1185.54 4977.66 1147.54 4991.66 1190.54 5004.66 1153.54 5018.67 1136.54 5032.67 1148.54 5045.67 1154.54 5059.67 1133.54 5073.67 1145.54 5086.67 1143.54 5100.67 1106.54 5114.67 1141.54 5127.67 1164.54 5141.67 1141.54 5155.67 1140.54 5168.67 1122.54 5182.67 1129.54 5196.67 1119.54 5210.67 1202.54 5223.67 1128.54 5237.67 1107.54 5251.67 1183.54 5264.67 1100.54 5278.67 1168.54 5292.67 1112.54 5305.67 1047.53 5319.67 1038.53 5333.68 1045.53 5346.68 1041.53 5360.68 1037.53 5374.68 1040.53 5387.68 1032.53 5401.68 1033.53 5415.68 1041.53 5428.68 1045.53 5442.68 1044.53 5456.68 1039.53 5469.68 1043.53 5483.68 1032.53 5497.68 1037.53 5510.68 1042.53 5524.68 1039.53 5538.68 1032.53 5552.68 1034.53 5565.68 1040.53 5579.68 1043.53 5593.68 1029.5 5606.68 1038.53 5620.68 1041.53 5634.69 1044.53 5647.69 1033.53 5661.69 1041.53 5675.69 1040.53 5688.69 1040.53 5702.69 1043.53 5716.69 1047.53 5729.69 1042.53 5743.69 1037.53 5757.69 1043.53 5770.69 1044.53 5784.69 1046.53 5798.69 1041.53 5811.69 1044.53 5825.69 1047.53 5839.69 1045.53 5852.69 1041.53 5866.69 1036.53 5880.69 1040.53 5894.69 1041.53 5907.69 1050.53 5921.69 1038.53 5935.69 1038.53 5948.7 1046.53 5962.7 1046.53 5976.7 1046.53 5989.7 1041.53 6003.7 1039.53 6017.7 1040.53 6030.7 1037.53 6044.7 1039.53 6058.7 1040.53 6071.7 1037.53 6085.7 1037.53 6099.7 1040.53 6112.7 1040.53 6126.7 1035.53 6140.7 1037.53 6153.7 1042.53 6167.7 1040.53 6181.7 1036.53 6194.7 1038.53 6208.7 1035.53 6222.7 1039.53 6236.71 1040.53 6249.71 1037.53 6263.71 1038.53 6277.71 1039.53 6290.71 1040.53 6304.71 1036.53 6318.71 1037.53 6331.71 1032.53 6345.71 1035.53 6359.71 1038.53 6372.71 1040.53 6386.71 1035.53 6400.71 1037.53 6413.71 1040.53 6427.71 1039.53 6441.71 1040.53 6454.71 1034.53 6468.71 1040.53 6482.71 1036.53 6495.71 1038.53 6509.71 1036.53 6523.71 1039.53 6537.71 1037.53 6550.71 1034.53 6564.72 1037.53 6578.72 1035.53 6591.72 1038.53 6605.72 1034.53 6619.72 1036.53 6632.72 1039.53 6646.72 1035.53 6660.72 1034.53 6674.5 1038.53" stroke="#4EA72E" stroke-width="4.58333" stroke-linecap="round" stroke-linejoin="round" stroke-miterlimit="10" fill="none"/></g><g><path d="M3937.5 2213.5 3951.63 2141.57 3965.63 2143.57 3978.63 2084.57 3992.63 2095.57 4006.63 2119.57 4019.63 2015.57 4033.63 2016.57 4047.63 2010.57 4060.63 2112.57 4074.63 2032.57 4088.63 1999.57 4101.63 2045.57 4115.64 2020.57 4129.64 1943.56 4142.64 1976.57 4156.64 1915.56 4170.64 1929.56 4183.64 1952.56 4197.64 1973.56 4211.64 2017.57 4225.64 1948.56 4238.64 1883.56 4252.64 1899.56 4266.64 1868.56 4279.64 1981.57 4293.64 1734.56 4307.64 1786.56 4320.64 1871.56 4334.64 1905.56 4348.64 1974.56 4361.64 1750.56 4375.64 1936.56 4389.64 1806.56 4402.64 1757.56 4416.65 1895.56 4430.65 1811.56 4443.65 1833.56 4457.65 1829.56 4471.65 1870.56 4484.65 1696.56 4498.65 1782.56 4512.65 1836.56 4525.65 1768.56 4539.65 1781.56 4553.65 1693.56 4567.65 1836.56 4580.65 1827.56 4594.65 1802.56 4608.65 1678.56 4621.65 1770.56 4635.65 1675.56 4649.65 1673.56 4662.65 1695.56 4676.65 1755.56 4690.65 1743.56 4703.65 1680.56 4717.66 1642.55 4731.66 1780.56 4744.66 1696.56 4758.66 1770.56 4772.66 1752.56 4785.66 1793.56 4799.66 1830.56 4813.66 1773.56 4826.66 1718.56 4840.66 1902.56 4854.66 1673.56 4867.66 1820.56 4881.66 1636.55 4895.66 1795.56 4909.66 1815.56 4922.66 1769.56 4936.66 1675.56 4950.66 1747.56 4963.66 1669.56 4977.66 1667.55 4991.66 1755.56 5004.66 1700.56 5018.67 1787.56 5032.67 1747.56 5045.67 1728.56 5059.67 1837.56 5073.67 1900.56 5086.67 1778.56 5100.67 1726.56 5114.67 1643.55 5127.67 1715.56 5141.67 1713.56 5155.67 1693.56 5168.67 1705.56 5182.67 1733.56 5196.67 1668.55 5210.67 1658.55 5223.67 1677.56 5237.67 1717.56 5251.67 1697.56 5264.67 1724.56 5278.67 1735.56 5292.67 1875.56 5305.67 1671.56 5319.67 1662.55 5333.68 1686.56 5346.68 1639.55 5360.68 1652.55 5374.68 1640.55 5387.68 1664.55 5401.68 1640.55 5415.68 1658.55 5428.68 1647.55 5442.68 1638.55 5456.68 1681.56 5469.68 1650.55 5483.68 1684.56 5497.68 1669.56 5510.68 1664.55 5524.68 1672.56 5538.68 1647.55 5552.68 1648.55 5565.68 1656.55 5579.68 1617.5 5593.68 1670.56 5606.68 1650.55 5620.68 1676.56 5634.69 1664.55 5647.69 1637.55 5661.69 1632.55 5675.69 1657.55 5688.69 1639.55 5702.69 1652.55 5716.69 1644.55 5729.69 1653.55 5743.69 1630.55 5757.69 1671.56 5770.69 1650.55 5784.69 1637.55 5798.69 1658.55 5811.69 1693.56 5825.69 1690.56 5839.69 1664.55 5852.69 1677.56 5866.69 1677.56 5880.69 1659.55 5894.69 1672.56 5907.69 1704.56 5921.69 1669.56 5935.69 1666.55 5948.7 1672.56 5962.7 1662.55 5976.7 1685.56 5989.7 1670.56 6003.7 1655.55 6017.7 1655.55 6030.7 1658.55 6044.7 1657.55 6058.7 1650.55 6071.7 1664.55 6085.7 1662.55 6099.7 1660.55 6112.7 1655.55 6126.7 1653.55 6140.7 1663.55 6153.7 1651.55 6167.7 1656.55 6181.7 1656.55 6194.7 1656.55 6208.7 1655.55 6222.7 1657.55 6236.71 1662.55 6249.71 1662.55 6263.71 1665.55 6277.71 1654.55 6290.71 1656.55 6304.71 1658.55 6318.71 1667.55 6331.71 1663.55 6345.71 1664.55 6359.71 1666.55 6372.71 1656.55 6386.71 1658.55 6400.71 1661.55 6413.71 1657.55 6427.71 1652.55 6441.71 1649.55 6454.71 1646.55 6468.71 1644.55 6482.71 1664.55 6495.71 1650.55 6509.71 1658.55 6523.71 1652.55 6537.71 1658.55 6550.71 1647.55 6564.72 1657.55 6578.72 1658.55 6591.72 1660.55 6605.72 1658.55 6619.72 1662.55 6632.72 1657.55 6646.72 1653.55 6660.72 1657.55 6674.5 1653.55" stroke="#994010" stroke-width="4.58333" stroke-linecap="round" stroke-linejoin="round" stroke-miterlimit="10" fill="none"/></g><g><text font-family="Arial,Arial_MSFontService,sans-serif" font-weight="400" font-size="64" transform="matrix(1 0 0 1 3804.45 2308)">10</text></g><g><text font-family="Arial,Arial_MSFontService,sans-serif" font-weight="400" font-size="64" transform="matrix(1 0 0 1 3804.45 2143)">20</text></g><g><text font-family="Arial,Arial_MSFontService,sans-serif" font-weight="400" font-size="64" transform="matrix(1 0 0 1 3804.45 1977)">30</text></g><g><text font-family="Arial,Arial_MSFontService,sans-serif" font-weight="400" font-size="64" transform="matrix(1 0 0 1 3804.45 1811)">40</text></g><g><text font-family="Arial,Arial_MSFontService,sans-serif" font-weight="400" font-size="64" transform="matrix(1 0 0 1 3804.45 1645)">50</text></g><g><text font-family="Arial,Arial_MSFontService,sans-serif" font-weight="400" font-size="64" transform="matrix(1 0 0 1 3804.45 1480)">60</text></g><g><text font-family="Arial,Arial_MSFontService,sans-serif" font-weight="400" font-size="64" transform="matrix(1 0 0 1 3804.45 1314)">70</text></g><g><text font-family="Arial,Arial_MSFontService,sans-serif" font-weight="400" font-size="64" transform="matrix(1 0 0 1 3804.45 1148)">80</text></g><g><text font-family="Arial,Arial_MSFontService,sans-serif" font-weight="400" font-size="64" transform="matrix(1 0 0 1 3804.45 982)">90</text></g><g><text font-family="Arial,Arial_MSFontService,sans-serif" font-weight="400" font-size="64" transform="matrix(1 0 0 1 3920.02 2385)">0</text></g><g><text font-family="Arial,Arial_MSFontService,sans-serif" font-weight="400" font-size="64" transform="matrix(1 0 0 1 4175.79 2385)">20</text></g><g><text font-family="Arial,Arial_MSFontService,sans-serif" font-weight="400" font-size="64" transform="matrix(1 0 0 1 4449.41 2385)">40</text></g><g><text font-family="Arial,Arial_MSFontService,sans-serif" font-weight="400" font-size="64" transform="matrix(1 0 0 1 4723.03 2385)">60</text></g><g><text font-family="Arial,Arial_MSFontService,sans-serif" font-weight="400" font-size="64" transform="matrix(1 0 0 1 4996.64 2385)">80</text></g><g><text font-family="Arial,Arial_MSFontService,sans-serif" font-weight="400" font-size="64" transform="matrix(1 0 0 1 5252.42 2385)">100</text></g><g><text font-family="Arial,Arial_MSFontService,sans-serif" font-weight="400" font-size="64" transform="matrix(1 0 0 1 5526.04 2385)">120</text></g><g><text font-family="Arial,Arial_MSFontService,sans-serif" font-weight="400" font-size="64" transform="matrix(1 0 0 1 5799.65 2385)">140</text></g><g><text font-family="Arial,Arial_MSFontService,sans-serif" font-weight="400" font-size="64" transform="matrix(1 0 0 1 6073.27 2385)">160</text></g><g><text font-family="Arial,Arial_MSFontService,sans-serif" font-weight="400" font-size="64" transform="matrix(1 0 0 1 6346.89 2385)">180</text></g><g><text font-family="Arial,Arial_MSFontService,sans-serif" font-weight="400" font-size="64" transform="matrix(1 0 0 1 6620.5 2385)">200</text></g><g><text font-family="Arial,Arial_MSFontService,sans-serif" font-weight="700" font-size="64" transform="matrix(6.12323e-17 -1 1 6.12323e-17 3776.9 1908)">Test Accuracy @ 1</text></g><g><text font-family="Arial,Arial_MSFontService,sans-serif" font-weight="700" font-size="64" transform="matrix(1 0 0 1 5207.92 2472)">Epoch</text></g><g><g><text font-family="Arial,Arial_MSFontService,sans-serif" font-weight="700" font-size="77" transform="matrix(1 0 0 1 4818.29 880)">ResNet18: Imagewoof</text></g></g><g><path d="M3986.5 2584.5 4074.5 2584.5" stroke="#E97132" stroke-width="4.58333" stroke-linecap="round" stroke-linejoin="round" stroke-miterlimit="10" fill="none" fill-rule="evenodd"/></g><g><text font-family="Arial,Arial_MSFontService,sans-serif" font-weight="400" font-size="50" transform="matrix(1 0 0 1 4083.6 2601)">Imagewoof - ResNet18 - Original</text></g><g><path d="M5232.5 2584.5 5320.5 2584.5" stroke="#0F9ED5" stroke-width="4.58333" stroke-linecap="round" stroke-linejoin="round" stroke-miterlimit="10" fill="none" fill-rule="evenodd"/></g><g><text font-family="Arial,Arial_MSFontService,sans-serif" font-weight="400" font-size="50" transform="matrix(1 0 0 1 5330.11 2601)">Imagewoof - ResNet18 - Original+Synthetic(Clean)</text></g><g><path d="M3986.5 2668.5 4074.5 2668.5" stroke="#4EA72E" stroke-width="4.58333" stroke-linecap="round" stroke-linejoin="round" stroke-miterlimit="10" fill="none" fill-rule="evenodd"/></g><g><text font-family="Arial,Arial_MSFontService,sans-serif" font-weight="400" font-size="50" transform="matrix(1 0 0 1 4083.6 2685)">Imagewoof - ResNet18 - Original+Synthetic(Noisy)</text></g><g><path d="M5232.5 2668.5 5320.5 2668.5" stroke="#994010" stroke-width="4.58333" stroke-linecap="round" stroke-linejoin="round" stroke-miterlimit="10" fill="none" fill-rule="evenodd"/></g><g><text font-family="Arial,Arial_MSFontService,sans-serif" font-weight="400" font-size="50" transform="matrix(1 0 0 1 5330.11 2685)">Imagewoof - ResNet18 - Synthetic</text></g><rect x="3660.5" y="773.5" width="3117" height="1957" stroke="#898989" stroke-width="4.58333" stroke-linejoin="round" stroke-miterlimit="10" fill="none"/></g></svg>