<svg width="3123" height="1962" xmlns="http://www.w3.org/2000/svg" xmlns:xlink="http://www.w3.org/1999/xlink" xml:space="preserve" overflow="hidden"><defs><clipPath id="clip0"><rect x="3380" y="771" width="3123" height="1962"/></clipPath></defs><g clip-path="url(#clip0)" transform="translate(-3380 -771)"><rect x="3382" y="773" width="3118" height="1957" fill="#FFFFFF"/><g><rect x="3653" y="962" width="2750" height="1326" fill="#FFFFFF"/></g><g><path d="M3653.5 2083.57 6403.5 2083.57M3653.5 1879.56 6403.5 1879.56M3653.5 1675.56 6403.5 1675.56M3653.5 1471.55 6403.5 1471.55M3653.5 1267.54 6403.5 1267.54M3653.5 1063.5 6403.5 1063.5" stroke="#D9D9D9" stroke-width="3.4375" stroke-linejoin="round" stroke-miterlimit="10" fill="none"/></g><g><path d="M3653.5 2288.5 6403.5 2288.5" stroke="#D9D9D9" stroke-width="3.4375" stroke-linejoin="round" stroke-miterlimit="10" fill="none" fill-rule="evenodd"/></g><g><path d="M3660.5 2250.5 3673.62 2199.57 3687.62 2238.57 3701.62 2213.57 3714.62 2163.57 3728.62 2153.57 3742.62 2123.57 3755.62 2082.57 3769.62 2136.57 3783.62 2081.57 3796.62 2053.57 3810.62 2123.57 3824.63 2117.57 3837.63 2060.57 3851.63 2068.57 3865.63 1973.56 3878.63 1934.56 3892.63 1946.56 3906.63 1833.56 3920.63 1950.56 3933.63 1769.56 3947.63 1901.56 3961.63 1693.56 3974.63 1720.56 3988.63 1842.56 4002.63 1701.56 4015.63 1563.55 4029.63 1802.56 4043.63 1566.55 4056.63 1746.56 4070.63 1644.55 4084.63 1454.55 4097.63 1525.55 4111.63 1606.55 4125.64 1529.55 4138.64 1510.55 4152.64 1497.55 4166.64 1490.55 4179.64 1502.55 4193.64 1507.55 4207.64 1503.55 4220.64 1374.55 4234.64 1440.55 4248.64 1416.55 4262.64 1436.55 4275.64 1475.55 4289.64 1367.55 4303.64 1469.55 4316.64 1439.55 4330.64 1431.55 4344.64 1358.54 4357.64 1356.54 4371.64 1413.55 4385.64 1425.55 4398.64 1339.54 4412.65 1386.55 4426.65 1318.54 4439.65 1302.54 4453.65 1349.54 4467.65 1433.55 4480.65 1385.55 4494.65 1361.54 4508.65 1381.55 4521.65 1389.55 4535.65 1344.54 4549.65 1288.54 4562.65 1322.54 4576.65 1406.55 4590.65 1397.55 4604.65 1346.54 4617.65 1271.54 4631.65 1350.54 4645.65 1352.54 4658.65 1387.55 4672.65 1309.54 4686.65 1329.54 4699.65 1261.54 4713.65 1380.55 4727.66 1243.54 4740.66 1302.54 4754.66 1279.54 4768.66 1305.54 4781.66 1239.54 4795.66 1330.54 4809.66 1261.54 4822.66 1352.54 4836.66 1272.54 4850.66 1278.54 4863.66 1350.54 4877.66 1289.54 4891.66 1255.54 4905.66 1271.54 4918.66 1221.54 4932.66 1293.54 4946.66 1286.54 4959.66 1285.54 4973.66 1249.54 4987.66 1278.54 5000.66 1298.54 5014.66 1245.54 5028.67 1116.54 5041.67 1103.54 5055.67 1108.54 5069.67 1108.54 5082.67 1108.54 5096.67 1105.54 5110.67 1100.54 5123.67 1097.54 5137.67 1100.54 5151.67 1100.54 5164.67 1099.54 5178.67 1099.54 5192.67 1105.54 5205.67 1101.54 5219.67 1098.54 5233.67 1105.54 5247.67 1102.54 5260.67 1104.54 5274.67 1110.54 5288.67 1108.54 5301.67 1099.54 5315.67 1105.54 5329.67 1097.54 5342.68 1111.54 5356.68 1099.54 5370.68 1096.54 5383.68 1103.54 5397.68 1096.54 5411.68 1098.54 5424.68 1105.54 5438.68 1104.54 5452.68 1100.54 5465.68 1109.54 5479.68 1095.54 5493.68 1107.54 5506.68 1107.54 5520.68 1100.54 5534.68 1103.54 5547.68 1095.5 5561.68 1096.54 5575.68 1103.54 5589.68 1098.54 5602.68 1099.54 5616.68 1105.54 5630.68 1099.54 5643.69 1113.54 5657.69 1107.54 5671.69 1107.54 5684.69 1104.54 5698.69 1106.54 5712.69 1102.54 5725.69 1098.54 5739.69 1096.54 5753.69 1101.54 5766.69 1102.54 5780.69 1102.54 5794.69 1100.54 5807.69 1102.54 5821.69 1099.54 5835.69 1100.54 5848.69 1097.54 5862.69 1100.54 5876.69 1100.54 5889.69 1099.54 5903.69 1100.54 5917.69 1100.54 5931.69 1098.54 5944.7 1100.54 5958.7 1100.54 5972.7 1102.54 5985.7 1104.54 5999.7 1103.54 6013.7 1102.54 6026.7 1101.54 6040.7 1101.54 6054.7 1100.54 6067.7 1101.54 6081.7 1100.54 6095.7 1105.54 6108.7 1101.54 6122.7 1102.54 6136.7 1103.54 6149.7 1100.54 6163.7 1102.54 6177.7 1101.54 6190.7 1098.54 6204.7 1103.54 6218.7 1100.54 6232.7 1102.54 6245.71 1101.54 6259.71 1100.54 6273.71 1099.54 6286.71 1098.54 6300.71 1097.54 6314.71 1101.54 6327.71 1099.54 6341.71 1100.54 6355.71 1100.54 6368.71 1099.54 6382.71 1100.54 6396.5 1102.54" stroke="#E97132" stroke-width="4.58333" stroke-linecap="round" stroke-linejoin="round" stroke-miterlimit="10" fill="none"/></g><g><path d="M3660.5 2232.5 3673.62 2207.57 3687.62 2222.57 3701.62 2126.57 3714.62 2223.57 3728.62 2094.57 3742.62 2028.57 3755.62 2025.57 3769.62 1847.56 3783.62 2018.57 3796.62 1828.56 3810.62 1800.56 3824.63 1784.56 3837.63 1736.56 3851.63 1620.55 3865.63 1733.56 3878.63 1703.56 3892.63 1718.56 3906.63 1558.55 3920.63 1603.55 3933.63 1628.55 3947.63 1498.55 3961.63 1591.55 3974.63 1417.55 3988.63 1434.55 4002.63 1546.55 4015.63 1408.55 4029.63 1357.54 4043.63 1449.55 4056.63 1485.55 4070.63 1407.55 4084.63 1426.55 4097.63 1360.54 4111.63 1301.54 4125.64 1348.54 4138.64 1419.55 4152.64 1305.54 4166.64 1269.54 4179.64 1303.54 4193.64 1300.54 4207.64 1337.54 4220.64 1253.54 4234.64 1353.54 4248.64 1290.54 4262.64 1241.54 4275.64 1372.55 4289.64 1223.54 4303.64 1333.54 4316.64 1268.54 4330.64 1253.54 4344.64 1269.54 4357.64 1297.54 4371.64 1294.54 4385.64 1340.54 4398.64 1313.54 4412.65 1234.54 4426.65 1239.54 4439.65 1253.54 4453.65 1279.54 4467.65 1410.55 4480.65 1221.54 4494.65 1201.54 4508.65 1237.54 4521.65 1255.54 4535.65 1231.54 4549.65 1265.54 4562.65 1279.54 4576.65 1298.54 4590.65 1233.54 4604.65 1222.54 4617.65 1233.54 4631.65 1265.54 4645.65 1213.54 4658.65 1217.54 4672.65 1217.54 4686.65 1216.54 4699.65 1231.54 4713.65 1264.54 4727.66 1228.54 4740.66 1250.54 4754.66 1186.54 4768.66 1257.54 4781.66 1177.54 4795.66 1224.54 4809.66 1261.54 4822.66 1300.54 4836.66 1242.54 4850.66 1217.54 4863.66 1219.54 4877.66 1198.54 4891.66 1283.54 4905.66 1242.54 4918.66 1252.54 4932.66 1150.54 4946.66 1282.54 4959.66 1195.54 4973.66 1232.54 4987.66 1262.54 5000.66 1232.54 5014.66 1211.54 5028.67 1081.54 5041.67 1070.54 5055.67 1052.53 5069.67 1054.53 5082.67 1059.53 5096.67 1058.53 5110.67 1046.53 5123.67 1051.53 5137.67 1049.53 5151.67 1040.53 5164.67 1042.53 5178.67 1051.53 5192.67 1039.53 5205.67 1041.53 5219.67 1048.53 5233.67 1043.53 5247.67 1046.53 5260.67 1047.53 5274.67 1058.53 5288.67 1052.53 5301.67 1051.53 5315.67 1055.53 5329.67 1050.53 5342.68 1058.53 5356.68 1056.53 5370.68 1047.53 5383.68 1048.53 5397.68 1048.53 5411.68 1047.53 5424.68 1048.53 5438.68 1051.53 5452.68 1039.5 5465.68 1051.53 5479.68 1045.53 5493.68 1049.53 5506.68 1054.53 5520.68 1059.53 5534.68 1053.53 5547.68 1050.53 5561.68 1054.53 5575.68 1053.53 5589.68 1054.53 5602.68 1048.53 5616.68 1051.53 5630.68 1050.53 5643.69 1044.53 5657.69 1050.53 5671.69 1051.53 5684.69 1048.53 5698.69 1048.53 5712.69 1042.53 5725.69 1044.53 5739.69 1048.53 5753.69 1049.53 5766.69 1042.53 5780.69 1045.53 5794.69 1044.53 5807.69 1045.53 5821.69 1047.53 5835.69 1047.53 5848.69 1046.53 5862.69 1043.53 5876.69 1049.53 5889.69 1047.53 5903.69 1047.53 5917.69 1043.53 5931.69 1046.53 5944.7 1044.53 5958.7 1047.53 5972.7 1046.53 5985.7 1050.53 5999.7 1044.53 6013.7 1045.53 6026.7 1044.53 6040.7 1045.53 6054.7 1044.53 6067.7 1043.53 6081.7 1048.53 6095.7 1043.53 6108.7 1047.53 6122.7 1041.53 6136.7 1043.53 6149.7 1044.53 6163.7 1045.53 6177.7 1044.53 6190.7 1050.53 6204.7 1045.53 6218.7 1046.53 6232.7 1043.53 6245.71 1044.53 6259.71 1044.53 6273.71 1043.53 6286.71 1043.53 6300.71 1043.53 6314.71 1043.53 6327.71 1044.53 6341.71 1043.53 6355.71 1044.53 6368.71 1049.53 6382.71 1047.53 6396.5 1049.53" stroke="#0F9ED5" stroke-width="4.58333" stroke-linecap="round" stroke-linejoin="round" stroke-miterlimit="10" fill="none"/></g><g><path d="M3660.5 2243.57 3673.62 2252.5 3687.62 2218.57 3701.62 2208.57 3714.62 2183.57 3728.62 2198.57 3742.62 2217.57 3755.62 2230.57 3769.62 2185.57 3783.62 2177.57 3796.62 2214.57 3810.62 2154.57 3824.63 2169.57 3837.63 2161.57 3851.63 2141.57 3865.63 2072.57 3878.63 2111.57 3892.63 2135.57 3906.63 2068.57 3920.63 2111.57 3933.63 2159.57 3947.63 2127.57 3961.63 2150.57 3974.63 2150.57 3988.63 2109.57 4002.63 2135.57 4015.63 2118.57 4029.63 2104.57 4043.63 2029.57 4056.63 2020.57 4070.63 2064.57 4084.63 2100.57 4097.63 2014.57 4111.63 2092.57 4125.64 1992.57 4138.64 2085.57 4152.64 2010.57 4166.64 2080.57 4179.64 2111.57 4193.64 2135.57 4207.64 2010.57 4220.64 2105.57 4234.64 2063.57 4248.64 2039.57 4262.64 2131.57 4275.64 2026.57 4289.64 2082.57 4303.64 2020.57 4316.64 2011.57 4330.64 2093.57 4344.64 2062.57 4357.64 2064.57 4371.64 2073.57 4385.64 2037.57 4398.64 2044.57 4412.65 2092.57 4426.65 1974.5 4439.65 2034.57 4453.65 2030.57 4467.65 2022.57 4480.65 2050.57 4494.65 2053.57 4508.65 2037.57 4521.65 2067.57 4535.65 2081.57 4549.65 2088.57 4562.65 2048.57 4576.65 2058.57 4590.65 2047.57 4604.65 2058.57 4617.65 2045.57 4631.65 1982.57 4645.65 2042.57 4658.65 2017.57 4672.65 2024.57 4686.65 2043.57 4699.65 2051.57 4713.65 2069.57 4727.66 2045.57 4740.66 2046.57 4754.66 2065.57 4768.66 2060.57 4781.66 2056.57 4795.66 2042.57 4809.66 2062.57 4822.66 2083.57 4836.66 2069.57 4850.66 2107.57 4863.66 2054.57 4877.66 2082.57 4891.66 2060.57 4905.66 2090.57 4918.66 2042.57 4932.66 2050.57 4946.66 2071.57 4959.66 2041.57 4973.66 1997.57 4987.66 2040.57 5000.66 2096.57 5014.66 2083.57 5028.67 2015.57 5041.67 2006.57 5055.67 2011.57 5069.67 2011.57 5082.67 2011.57 5096.67 2008.57 5110.67 2007.57 5123.67 2010.57 5137.67 2014.57 5151.67 2017.57 5164.67 2013.57 5178.67 2024.57 5192.67 2002.57 5205.67 2014.57 5219.67 2012.57 5233.67 2004.57 5247.67 2010.57 5260.67 2015.57 5274.67 2007.57 5288.67 2018.57 5301.67 2001.57 5315.67 2013.57 5329.67 2011.57 5342.68 2005.57 5356.68 2009.57 5370.68 1996.57 5383.68 2010.57 5397.68 2019.57 5411.68 2006.57 5424.68 2018.57 5438.68 2006.57 5452.68 2000.57 5465.68 2018.57 5479.68 2009.57 5493.68 2010.57 5506.68 2013.57 5520.68 2018.57 5534.68 2014.57 5547.68 2026.57 5561.68 2013.57 5575.68 2022.57 5589.68 2022.57 5602.68 2019.57 5616.68 2015.57 5630.68 2026.57 5643.69 2014.57 5657.69 2029.57 5671.69 2015.57 5684.69 2015.57 5698.69 2013.57 5712.69 2017.57 5725.69 2016.57 5739.69 2014.57 5753.69 2014.57 5766.69 2014.57 5780.69 2010.57 5794.69 2015.57 5807.69 2014.57 5821.69 2009.57 5835.69 2009.57 5848.69 2013.57 5862.69 2019.57 5876.69 2014.57 5889.69 2011.57 5903.69 2016.57 5917.69 2008.57 5931.69 2013.57 5944.7 2011.57 5958.7 2009.57 5972.7 2006.57 5985.7 2016.57 5999.7 2010.57 6013.7 2014.57 6026.7 2012.57 6040.7 2015.57 6054.7 2010.57 6067.7 2015.57 6081.7 2014.57 6095.7 2010.57 6108.7 2013.57 6122.7 2013.57 6136.7 2015.57 6149.7 2011.57 6163.7 2013.57 6177.7 2012.57 6190.7 2017.57 6204.7 2013.57 6218.7 2014.57 6232.7 2012.57 6245.71 2010.57 6259.71 2015.57 6273.71 2017.57 6286.71 2016.57 6300.71 2017.57 6314.71 2019.57 6327.71 2014.57 6341.71 2012.57 6355.71 2014.57 6368.71 2014.57 6382.71 2014.57 6396.5 2014.57" stroke="#4EA72E" stroke-width="4.58333" stroke-linecap="round" stroke-linejoin="round" stroke-miterlimit="10" fill="none"/></g><g><text font-family="Arial,Arial_MSFontService,sans-serif" font-weight="400" font-size="64" transform="matrix(1 0 0 1 3562.49 2308)">0</text></g><g><text font-family="Arial,Arial_MSFontService,sans-serif" font-weight="400" font-size="64" transform="matrix(1 0 0 1 3526.8 2104)">10</text></g><g><text font-family="Arial,Arial_MSFontService,sans-serif" font-weight="400" font-size="64" transform="matrix(1 0 0 1 3526.8 1900)">20</text></g><g><text font-family="Arial,Arial_MSFontService,sans-serif" font-weight="400" font-size="64" transform="matrix(1 0 0 1 3526.8 1696)">30</text></g><g><text font-family="Arial,Arial_MSFontService,sans-serif" font-weight="400" font-size="64" transform="matrix(1 0 0 1 3526.8 1492)">40</text></g><g><text font-family="Arial,Arial_MSFontService,sans-serif" font-weight="400" font-size="64" transform="matrix(1 0 0 1 3526.8 1288)">50</text></g><g><text font-family="Arial,Arial_MSFontService,sans-serif" font-weight="400" font-size="64" transform="matrix(1 0 0 1 3526.8 1084)">60</text></g><g><text font-family="Arial,Arial_MSFontService,sans-serif" font-weight="400" font-size="64" transform="matrix(1 0 0 1 3642.37 2385)">0</text></g><g><text font-family="Arial,Arial_MSFontService,sans-serif" font-weight="400" font-size="64" transform="matrix(1 0 0 1 3898.15 2385)">20</text></g><g><text font-family="Arial,Arial_MSFontService,sans-serif" font-weight="400" font-size="64" transform="matrix(1 0 0 1 4171.77 2385)">40</text></g><g><text font-family="Arial,Arial_MSFontService,sans-serif" font-weight="400" font-size="64" transform="matrix(1 0 0 1 4445.38 2385)">60</text></g><g><text font-family="Arial,Arial_MSFontService,sans-serif" font-weight="400" font-size="64" transform="matrix(1 0 0 1 4719 2385)">80</text></g><g><text font-family="Arial,Arial_MSFontService,sans-serif" font-weight="400" font-size="64" transform="matrix(1 0 0 1 4974.77 2385)">100</text></g><g><text font-family="Arial,Arial_MSFontService,sans-serif" font-weight="400" font-size="64" transform="matrix(1 0 0 1 5248.39 2385)">120</text></g><g><text font-family="Arial,Arial_MSFontService,sans-serif" font-weight="400" font-size="64" transform="matrix(1 0 0 1 5522.01 2385)">140</text></g><g><text font-family="Arial,Arial_MSFontService,sans-serif" font-weight="400" font-size="64" transform="matrix(1 0 0 1 5795.62 2385)">160</text></g><g><text font-family="Arial,Arial_MSFontService,sans-serif" font-weight="400" font-size="64" transform="matrix(1 0 0 1 6069.24 2385)">180</text></g><g><text font-family="Arial,Arial_MSFontService,sans-serif" font-weight="400" font-size="64" transform="matrix(1 0 0 1 6342.86 2385)">200</text></g><g><text font-family="Arial,Arial_MSFontService,sans-serif" font-weight="700" font-size="64" transform="matrix(6.12323e-17 -1 1 6.12323e-17 3499.26 1908)">Test Accuracy @ 1</text></g><g><text font-family="Arial,Arial_MSFontService,sans-serif" font-weight="700" font-size="64" transform="matrix(1 0 0 1 4930.27 2472)">Epoch</text></g><g><g><text font-family="Arial,Arial_MSFontService,sans-serif" font-weight="700" font-size="77" transform="matrix(1 0 0 1 4476.52 880)">ResNet18: Stanford Dogs</text></g></g><g><path d="M3638.5 2584.5 3726.5 2584.5" stroke="#E97132" stroke-width="4.58333" stroke-linecap="round" stroke-linejoin="round" stroke-miterlimit="10" fill="none" fill-rule="evenodd"/></g><g><text font-family="Arial,Arial_MSFontService,sans-serif" font-weight="400" font-size="50" transform="matrix(1 0 0 1 3735.96 2601)">Stanford Dogs - ResNet18 - Original</text></g><g><path d="M4955.5 2584.5 5043.5 2584.5" stroke="#0F9ED5" stroke-width="4.58333" stroke-linecap="round" stroke-linejoin="round" stroke-miterlimit="10" fill="none" fill-rule="evenodd"/></g><g><text font-family="Arial,Arial_MSFontService,sans-serif" font-weight="400" font-size="50" transform="matrix(1 0 0 1 5052.46 2601)">Stanford Dogs - ResNet18 - Original+Synthetic(Noisy)</text></g><g><path d="M3638.5 2668.5 3726.5 2668.5" stroke="#4EA72E" stroke-width="4.58333" stroke-linecap="round" stroke-linejoin="round" stroke-miterlimit="10" fill="none" fill-rule="evenodd"/></g><g><text font-family="Arial,Arial_MSFontService,sans-serif" font-weight="400" font-size="50" transform="matrix(1 0 0 1 3735.96 2685)">Stanford Dogs - ResNet18 - Synthetic</text></g><rect x="3382.5" y="773.5" width="3118" height="1957" stroke="#898989" stroke-width="4.58333" stroke-linejoin="round" stroke-miterlimit="10" fill="none"/></g></svg>